<?xml version="1.0" encoding="utf-8" ?>
<svg xmlns="http://www.w3.org/2000/svg" xmlns:xlink="http://www.w3.org/1999/xlink" width="40" height="40">
	<path fill="white" transform="scale(0.078125 0.078125)" d="M226.108 379.58Q222.402 379.815 218.688 379.868Q214.975 379.922 211.263 379.792Q207.552 379.663 203.851 379.352Q200.15 379.041 196.469 378.549Q192.788 378.057 189.136 377.384Q185.483 376.712 181.868 375.862Q178.253 375.011 174.684 373.984Q171.115 372.957 167.601 371.756Q164.087 370.556 160.635 369.184Q157.184 367.812 153.805 366.273Q150.425 364.733 147.125 363.03Q143.825 361.326 140.612 359.463Q137.399 357.6 134.282 355.581Q131.165 353.563 128.15 351.393Q125.136 349.224 122.231 346.91Q119.327 344.596 116.54 342.142Q113.752 339.687 111.089 337.1Q108.425 334.512 105.891 331.796Q103.358 329.081 100.961 326.244Q98.5635 323.408 96.3083 320.457Q94.0531 317.506 91.9454 314.449Q89.8377 311.391 87.8826 308.233Q85.9275 305.076 84.1296 301.826Q82.3317 298.577 80.6954 295.243Q79.0591 291.909 77.5884 288.499Q76.1176 285.089 74.8159 281.61Q73.5143 278.132 72.3848 274.594Q71.2553 271.056 70.3008 267.467Q69.3462 263.878 68.5689 260.247Q67.7916 256.615 67.1934 252.95Q66.5952 249.285 66.1775 245.595Q65.7598 241.904 65.5237 238.198Q65.2876 234.492 65.2336 230.778Q65.1796 227.065 65.3079 223.353Q65.4362 219.642 65.7464 215.941Q66.0566 212.24 66.5479 208.559Q67.0393 204.878 67.7107 201.225Q68.3821 197.572 69.2319 193.957Q70.0817 190.342 71.1079 186.773Q72.134 183.203 73.334 179.689Q74.534 176.174 75.905 172.723Q77.276 169.271 78.8147 165.891Q80.3534 162.511 82.056 159.211Q83.7587 155.91 85.6212 152.697Q87.4837 149.484 89.5016 146.366Q91.5195 143.248 93.688 140.233Q95.8564 137.218 98.1702 134.313Q100.484 131.408 102.937 128.62Q105.391 125.832 107.978 123.168Q110.565 120.504 113.28 117.97Q115.995 115.436 118.831 113.038Q121.667 110.64 124.617 108.384Q127.568 106.128 130.625 104.02Q133.682 101.912 136.839 99.9557Q139.996 97.9998 143.246 96.2012Q146.495 94.4026 149.828 92.7656Q153.162 91.1285 156.572 89.657Q159.982 88.1855 163.459 86.883Q166.937 85.5806 170.475 84.4503Q174.013 83.32 177.601 82.3647Q181.19 81.4093 184.822 80.6312Q188.453 79.8531 192.118 79.2541Q195.783 78.655 199.474 78.2365Q203.164 77.8181 206.87 77.5811Q210.577 77.3441 214.292 77.2893Q218.006 77.2345 221.719 77.3621Q225.432 77.4897 229.134 77.7993Q232.836 78.1089 236.518 78.5998Q240.2 79.0907 243.854 79.7617Q247.508 80.4328 251.124 81.2823Q254.741 82.1318 258.311 83.1578Q261.881 84.1838 265.397 85.3837Q268.913 86.5837 272.365 87.9547Q275.818 89.3258 279.199 90.8646Q282.58 92.4034 285.882 94.1063Q289.184 95.8092 292.398 97.6721Q295.612 99.535 298.73 101.553Q301.849 103.572 304.865 105.741Q307.881 107.91 310.787 110.224Q313.693 112.538 316.481 114.993Q319.27 117.447 321.935 120.035Q324.6 122.623 327.135 125.339Q329.67 128.054 332.068 130.891Q334.467 133.728 336.723 136.679Q338.979 139.63 341.088 142.689Q343.197 145.747 345.153 148.905Q347.109 152.063 348.908 155.314Q350.707 158.564 352.344 161.899Q353.981 165.233 355.452 168.644Q356.924 172.055 358.226 175.534Q359.529 179.014 360.659 182.552Q361.789 186.091 362.744 189.681Q363.699 193.271 364.477 196.904Q365.254 200.536 365.853 204.203Q366.451 207.869 366.869 211.56Q367.287 215.252 367.523 218.959Q367.759 222.666 367.813 226.381Q367.867 230.095 367.739 233.808Q367.61 237.521 367.3 241.223Q366.989 244.924 366.498 248.607Q366.006 252.289 365.334 255.943Q364.662 259.596 363.812 263.212Q362.961 266.829 361.935 270.399Q360.908 273.969 359.707 277.484Q358.506 281 357.135 284.452Q355.763 287.905 354.223 291.285Q352.683 294.666 350.98 297.967Q349.276 301.269 347.413 304.482Q345.549 307.696 343.53 310.814Q341.511 313.932 339.341 316.948Q337.171 319.963 334.856 322.869Q332.541 325.774 330.086 328.562Q327.632 331.35 325.043 334.015Q322.454 336.679 319.738 339.213Q317.022 341.748 314.184 344.145Q311.347 346.543 308.395 348.799Q305.443 351.054 302.385 353.163Q299.326 355.271 296.167 357.226Q293.009 359.181 289.758 360.98Q286.507 362.778 283.172 364.414Q279.837 366.05 276.426 367.521Q273.014 368.992 269.535 370.293Q266.055 371.595 262.516 372.724Q258.977 373.853 255.387 374.808Q251.797 375.762 248.164 376.539Q244.531 377.315 240.865 377.913Q237.198 378.511 233.507 378.928Q229.815 379.345 226.108 379.58ZM210.665 131.514C203.283 132.176 185.598 134.256 180.581 140.071C176.466 144.841 177.933 152.259 182.739 155.975C189.655 161.325 208.177 152.361 220.939 154.06C230.471 154.47 244.066 160.933 250.462 155.117C255.11 150.891 255.614 143.366 251.171 138.817C244.718 132.208 218.983 130.967 210.665 131.514ZM292.543 183.581C285.778 184.215 280.69 189.785 281.483 196.769C281.838 199.898 283.702 202.865 284.826 205.772C289.97 219.079 290.581 234.215 286.938 248.007C285.311 254.167 279.968 262.18 283.2 268.498C285.526 273.043 290.473 275.299 295.442 274.807C313.528 271.505 314.06 226.052 311.508 212.799C309.678 203.294 305.718 182.245 292.543 183.581ZM138.529 183.581C119.832 186.453 118.53 231.773 121.194 245.352C123.643 257.838 125.55 274.205 140.609 274.807C156.083 270.607 150.053 260.469 147.128 250.323C143.298 237.041 142.566 222.958 147.109 209.724C148.693 205.109 151.767 199.914 151.629 194.961C151.429 187.743 145.232 183.38 138.529 183.581ZM214.099 192.961Q213.208 193.03 212.321 193.143Q211.434 193.256 210.553 193.412Q209.673 193.568 208.801 193.767Q207.929 193.966 207.068 194.208Q206.208 194.449 205.36 194.733Q204.512 195.017 203.679 195.341Q202.845 195.666 202.029 196.031Q201.213 196.396 200.416 196.801Q199.619 197.206 198.842 197.649Q198.066 198.093 197.312 198.574Q196.558 199.055 195.829 199.572Q195.099 200.089 194.396 200.642Q193.693 201.194 193.018 201.78Q192.343 202.366 191.697 202.985Q191.052 203.604 190.437 204.253Q189.823 204.903 189.241 205.582Q188.659 206.26 188.111 206.967Q187.563 207.674 187.05 208.406Q186.538 209.139 186.062 209.896Q185.586 210.652 185.147 211.432Q184.709 212.211 184.309 213.011Q183.909 213.811 183.549 214.629Q183.189 215.448 182.87 216.283Q182.55 217.118 182.272 217.968Q181.994 218.817 181.758 219.68Q181.522 220.542 181.328 221.415Q181.135 222.288 180.984 223.169Q180.834 224.051 180.726 224.939Q180.619 225.826 180.556 226.718Q180.492 227.61 180.473 228.504Q180.453 229.398 180.477 230.292Q180.501 231.185 180.569 232.077Q180.637 232.969 180.748 233.856Q180.86 234.743 181.015 235.623Q181.17 236.504 181.368 237.376Q181.566 238.248 181.806 239.109Q182.046 239.97 182.329 240.819Q182.611 241.667 182.935 242.501Q183.258 243.334 183.622 244.151Q183.986 244.967 184.39 245.765Q184.794 246.563 185.236 247.34Q185.678 248.117 186.158 248.872Q186.638 249.626 187.154 250.356Q187.67 251.086 188.222 251.79Q188.773 252.494 189.358 253.17Q189.944 253.846 190.561 254.492Q191.179 255.139 191.828 255.754Q192.476 256.37 193.154 256.953Q193.832 257.536 194.538 258.084Q195.244 258.633 195.976 259.147Q196.708 259.661 197.464 260.138Q198.22 260.615 198.999 261.055Q199.777 261.494 200.576 261.895Q201.376 262.296 202.194 262.657Q203.012 263.018 203.846 263.339Q204.681 263.659 205.53 263.939Q206.38 264.218 207.242 264.455Q208.104 264.693 208.976 264.888Q209.849 265.082 210.73 265.234Q211.611 265.386 212.499 265.494Q213.386 265.603 214.278 265.668Q215.17 265.732 216.064 265.753Q216.958 265.774 217.852 265.752Q218.745 265.729 219.637 265.662Q220.53 265.595 221.419 265.485Q222.308 265.374 223.19 265.22Q224.073 265.066 224.946 264.869Q225.82 264.671 226.683 264.431Q227.546 264.192 228.396 263.909Q229.247 263.627 230.082 263.304Q230.917 262.981 231.736 262.617Q232.554 262.253 233.354 261.849Q234.153 261.445 234.932 261.002Q235.711 260.56 236.467 260.079Q237.223 259.599 237.954 259.082Q238.686 258.565 239.391 258.013Q240.096 257.461 240.774 256.875Q241.451 256.289 242.099 255.67Q242.747 255.051 243.363 254.402Q243.98 253.752 244.564 253.073Q245.147 252.393 245.697 251.686Q246.247 250.979 246.762 250.246Q247.276 249.513 247.754 248.755Q248.232 247.997 248.672 247.217Q249.112 246.437 249.513 245.636Q249.914 244.835 250.276 244.016Q250.637 243.196 250.958 242.36Q251.278 241.524 251.558 240.672Q251.837 239.821 252.074 238.958Q252.311 238.094 252.505 237.219Q252.7 236.345 252.851 235.462Q253.002 234.579 253.11 233.69Q253.218 232.801 253.281 231.907Q253.345 231.014 253.365 230.118Q253.385 229.223 253.361 228.328Q253.337 227.432 253.269 226.539Q253.201 225.646 253.089 224.757Q252.977 223.868 252.822 222.986Q252.667 222.104 252.468 221.231Q252.27 220.357 252.029 219.494Q251.788 218.632 251.504 217.782Q251.221 216.932 250.897 216.097Q250.572 215.262 250.207 214.444Q249.842 213.627 249.437 212.828Q249.032 212.029 248.588 211.25Q248.144 210.472 247.663 209.717Q247.182 208.961 246.664 208.231Q246.146 207.5 245.593 206.795Q245.04 206.091 244.453 205.414Q243.866 204.738 243.246 204.091Q242.626 203.444 241.976 202.828Q241.325 202.213 240.645 201.63Q239.965 201.047 239.257 200.498Q238.549 199.949 237.815 199.435Q237.081 198.922 236.323 198.445Q235.565 197.968 234.784 197.529Q234.003 197.09 233.202 196.69Q232.4 196.29 231.58 195.93Q230.76 195.57 229.923 195.25Q229.086 194.931 228.235 194.653Q227.384 194.375 226.519 194.139Q225.655 193.903 224.781 193.71Q223.906 193.516 223.023 193.367Q222.14 193.217 221.25 193.11Q220.361 193.004 219.467 192.941Q218.574 192.878 217.678 192.86Q216.783 192.841 215.887 192.866Q214.992 192.892 214.099 192.961ZM241.728 298.306C227.014 301.811 219.239 304.626 202.929 301.634C195.452 300.262 185.262 295.437 180.119 303.964C173.964 314.168 183.243 320.513 191.69 323.267C206.287 327.756 221.227 327.836 236.023 324.234C267.919 316.468 253.685 296.734 241.728 298.306Z"/>
	<path fill="white" transform="scale(0.078125 0.078125)" d="M161.592 396.914C229.54 416.761 294.548 399.613 344.922 348.632C346.44 349.218 345.481 351.15 345.024 352.253C335.203 375.965 323.317 392.341 299.6 402.254C304.982 402.029 310.468 402.249 315.86 402.249L446.952 402.254L446.952 425.05L301.769 425.05L252.071 425.058C215.558 425.073 190.686 425.52 161.592 396.914Z"/>
</svg>
