<?xml version="1.0" encoding="utf-8" ?>
<svg xmlns="http://www.w3.org/2000/svg" xmlns:xlink="http://www.w3.org/1999/xlink" width="40" height="40">
	<path fill="white" transform="scale(0.078125 0.078125)" d="M142.588 98.598C146.172 96.6162 149.426 93.9553 152.804 91.6384C181.27 72.1131 214.797 63.0512 248.909 60.2569C328.646 57.7061 400.45 104.98 431.486 177.683C465.117 256.463 440.815 349.492 373.466 401.727C260.929 489.008 95.034 426.107 68.7828 287.981C57.7956 230.17 74.9133 165.994 115.22 122.679C122.904 129.268 131.237 139.401 138.463 144.976C136.135 148.104 133.554 151.087 131.091 154.112C88.4049 207.117 88.5351 289.338 128.281 343.97C176.74 410.581 267.949 428.505 337.894 386.056C383.368 358.458 411.728 311.338 413.918 257.694C418.712 140.253 297.151 58.9269 191.899 105.969C184.434 109.305 168.991 117.379 163.252 122.679C156.948 114.221 148.814 107.202 142.588 98.598Z"/>
	<path fill="white" transform="scale(0.078125 0.078125)" d="M273.103 253.2C288.196 245.556 296.099 229.166 293.561 212.496C287.246 171.006 227.071 170.588 219.044 208.14C217.666 214.584 219.768 221.347 211.207 222.309C207.242 222.755 194.393 222.866 190.798 221.955C184.879 220.456 185.777 213.254 186.218 208.686C189.597 173.64 220.255 150.672 254.069 147.853C266.478 146.634 283.213 152.568 293.327 158.991C345.642 192.214 334.544 273.954 271.346 287.185C271.147 292.532 270.899 296.937 264.425 298.038C258.122 299.109 242.077 300.289 241.296 290.979C241.029 287.795 240.918 265.729 241.765 263.066C244.316 255.053 255.456 258.034 261.884 257.103C265.827 256.533 269.551 254.936 273.103 253.2Z"/>
	<path fill="white" transform="scale(0.078125 0.078125)" d="M257.905 354.025Q257.558 354.074 257.21 354.107Q256.861 354.139 256.511 354.155Q256.161 354.17 255.811 354.168Q255.461 354.167 255.111 354.148Q254.761 354.129 254.413 354.093Q254.065 354.057 253.719 354.004Q253.372 353.951 253.029 353.882Q252.686 353.812 252.347 353.725Q252.007 353.639 251.673 353.536Q251.338 353.433 251.009 353.314Q250.679 353.195 250.356 353.06Q250.033 352.925 249.717 352.774Q249.401 352.623 249.093 352.457Q248.784 352.291 248.484 352.11Q248.184 351.929 247.894 351.734Q247.603 351.539 247.322 351.33Q247.042 351.12 246.771 350.897Q246.501 350.675 246.242 350.439Q245.983 350.203 245.736 349.955Q245.489 349.707 245.254 349.447Q245.019 349.187 244.797 348.916Q244.576 348.645 244.367 348.364Q244.159 348.082 243.965 347.791Q243.771 347.5 243.591 347.199Q243.411 346.899 243.246 346.59Q243.081 346.281 242.932 345.964Q242.782 345.647 242.648 345.324Q242.514 345 242.396 344.67Q242.278 344.341 242.177 344.006Q242.075 343.671 241.99 343.331Q241.905 342.991 241.836 342.648Q241.768 342.304 241.716 341.958Q241.664 341.612 241.63 341.263Q241.595 340.915 241.578 340.565Q241.56 340.215 241.559 339.865Q241.559 339.515 241.576 339.165Q241.592 338.815 241.626 338.467Q241.66 338.118 241.711 337.771Q241.761 337.425 241.829 337.081Q241.897 336.738 241.981 336.398Q242.065 336.058 242.166 335.723Q242.267 335.387 242.384 335.057Q242.501 334.727 242.634 334.403Q242.767 334.079 242.916 333.762Q243.065 333.445 243.229 333.136Q243.393 332.826 243.572 332.525Q243.751 332.224 243.944 331.933Q244.138 331.641 244.345 331.359Q244.553 331.077 244.774 330.805Q244.995 330.533 245.229 330.273Q245.463 330.012 245.71 329.764Q245.956 329.515 246.215 329.279Q246.473 329.042 246.743 328.819Q247.012 328.595 247.293 328.385Q247.573 328.175 247.863 327.979Q248.153 327.783 248.453 327.602Q248.752 327.42 249.06 327.253Q249.368 327.086 249.684 326.935Q249.999 326.783 250.322 326.647Q250.645 326.511 250.974 326.391Q251.303 326.271 251.637 326.167Q251.972 326.064 252.311 325.976Q252.65 325.889 252.993 325.818Q253.336 325.748 253.682 325.694Q254.031 325.64 254.382 325.603Q254.733 325.566 255.085 325.546Q255.438 325.526 255.791 325.524Q256.144 325.522 256.496 325.537Q256.849 325.552 257.201 325.585Q257.552 325.617 257.901 325.667Q258.251 325.717 258.598 325.784Q258.944 325.851 259.287 325.935Q259.63 326.018 259.968 326.119Q260.306 326.22 260.639 326.337Q260.972 326.454 261.299 326.588Q261.626 326.721 261.946 326.871Q262.265 327.02 262.578 327.185Q262.89 327.35 263.193 327.53Q263.497 327.711 263.791 327.906Q264.085 328.1 264.37 328.31Q264.654 328.519 264.928 328.742Q265.201 328.965 265.464 329.201Q265.726 329.437 265.976 329.686Q266.227 329.934 266.465 330.195Q266.703 330.456 266.927 330.728Q267.152 331 267.363 331.283Q267.574 331.566 267.771 331.859Q267.968 332.152 268.15 332.455Q268.332 332.757 268.499 333.068Q268.666 333.379 268.818 333.698Q268.969 334.017 269.105 334.342Q269.241 334.668 269.36 335.001Q269.479 335.333 269.582 335.67Q269.685 336.008 269.771 336.35Q269.858 336.693 269.927 337.039Q269.996 337.385 270.048 337.734Q270.1 338.083 270.135 338.434Q270.17 338.786 270.187 339.138Q270.205 339.491 270.205 339.844Q270.205 340.197 270.187 340.549Q270.17 340.902 270.135 341.253Q270.101 341.605 270.049 341.954Q269.997 342.303 269.928 342.649Q269.859 342.995 269.773 343.338Q269.686 343.68 269.584 344.018Q269.481 344.355 269.361 344.688Q269.242 345.02 269.107 345.346Q268.971 345.672 268.82 345.991Q268.668 346.31 268.501 346.621Q268.334 346.932 268.152 347.234Q267.97 347.536 267.773 347.83Q267.576 348.123 267.366 348.406Q267.155 348.689 266.93 348.961Q266.705 349.233 266.467 349.494Q266.23 349.755 265.979 350.004Q265.729 350.253 265.467 350.489Q265.204 350.725 264.931 350.948Q264.657 351.171 264.373 351.381Q264.088 351.59 263.794 351.785Q263.5 351.98 263.196 352.16Q262.893 352.34 262.581 352.505Q262.269 352.671 261.949 352.82Q261.629 352.97 261.303 353.103Q260.976 353.237 260.643 353.354Q260.31 353.471 259.972 353.572Q259.633 353.673 259.29 353.757Q258.948 353.841 258.601 353.908Q258.254 353.975 257.905 354.025Z"/>
</svg>
