<?xml version="1.0" encoding="utf-8" ?>
<svg xmlns="http://www.w3.org/2000/svg" xmlns:xlink="http://www.w3.org/1999/xlink" width="40" height="40">
	<path fill="white" transform="scale(0.078125 0.078125)" d="M285.625 331.493L363.643 331.477C372.623 331.46 383.044 330.467 383.327 343.374C383.833 366.392 387.209 397.544 370.753 414.379C361.645 423.697 350.947 427.725 338.05 427.888C321.346 428.099 304.613 427.901 287.905 427.901L145.6 427.917C137.348 427.922 127.607 428.591 119.517 427.232C93.3413 422.834 81.15 401.414 81.0607 376.877L81.0536 144.088C81.0466 134.104 80.2923 122.137 81.961 112.377C84.9274 95.0269 99.0755 79.9894 116.106 75.7623C123.402 73.9513 130.793 74.167 138.243 74.1734L210.184 74.1786L330.764 74.1714C341.278 74.1705 358.433 71.8184 358.781 87.129C359.153 103.49 338.308 100.022 327.983 100.019L182.677 100.015C165.384 100.015 148.044 99.7294 130.756 100.008C108.909 100.361 106.603 112.571 106.599 131.156L106.609 362.509C106.607 368.323 106.454 374.157 106.566 379.969C107.089 406.916 145.256 410.457 150.773 384.877C151.746 380.363 151.319 375.338 151.31 370.734L151.27 349.987C151.267 328.906 157.035 331.474 176.276 331.483L285.625 331.493ZM176.018 357.75L176.029 375.701C176.028 385.559 175.871 393.331 170.704 402.062L322.805 402.071C331.6 402.076 341.502 403.828 349.345 398.929C358.833 392.421 357.903 385.145 357.767 375.148C357.688 369.352 357.751 363.546 357.754 357.75L176.018 357.75Z"/>
	<path fill="white" transform="scale(0.078125 0.078125)" d="M355.874 276.344Q353.912 276.443 351.948 276.445Q349.984 276.447 348.022 276.353Q346.06 276.259 344.105 276.068Q342.15 275.878 340.207 275.592Q338.263 275.306 336.336 274.925Q334.41 274.544 332.504 274.069Q330.598 273.594 328.717 273.026Q326.837 272.458 324.987 271.799Q323.137 271.139 321.321 270.39Q319.505 269.64 317.729 268.803Q315.952 267.965 314.219 267.041Q312.485 266.118 310.799 265.11Q309.113 264.102 307.479 263.013Q305.844 261.924 304.265 260.756Q302.686 259.588 301.166 258.344Q299.646 257.1 298.188 255.782Q296.731 254.465 295.341 253.078Q293.95 251.691 292.629 250.238Q291.308 248.784 290.06 247.267Q288.811 245.751 287.639 244.175Q286.467 242.598 285.373 240.967Q284.28 239.335 283.268 237.652Q282.256 235.968 281.327 234.237Q280.399 232.506 279.556 230.732Q278.714 228.958 277.96 227.144Q277.206 225.33 276.541 223.482Q275.877 221.633 275.304 219.755Q274.731 217.876 274.251 215.971Q273.771 214.067 273.385 212.141Q272.999 210.215 272.708 208.272Q272.416 206.33 272.221 204.375Q272.025 202.421 271.926 200.459Q271.827 198.497 271.824 196.533Q271.821 194.569 271.914 192.607Q272.007 190.645 272.197 188.69Q272.386 186.735 272.671 184.791Q272.956 182.848 273.337 180.921Q273.717 178.994 274.191 177.088Q274.665 175.181 275.232 173.301Q275.799 171.42 276.458 169.57Q277.117 167.719 277.866 165.903Q278.614 164.087 279.451 162.31Q280.288 160.533 281.211 158.8Q282.134 157.066 283.141 155.379Q284.148 153.693 285.237 152.058Q286.325 150.423 287.492 148.843Q288.66 147.263 289.903 145.743Q291.147 144.222 292.463 142.765Q293.78 141.307 295.166 139.916Q296.553 138.524 298.006 137.203Q299.459 135.881 300.975 134.632Q302.491 133.383 304.067 132.21Q305.642 131.038 307.274 129.943Q308.905 128.849 310.588 127.836Q312.271 126.823 314.001 125.894Q315.732 124.965 317.506 124.122Q319.28 123.279 321.094 122.524Q322.907 121.769 324.755 121.104Q326.603 120.439 328.482 119.865Q330.36 119.291 332.265 118.81Q334.169 118.329 336.095 117.943Q338.021 117.556 339.963 117.264Q341.906 116.972 343.86 116.776Q345.814 116.579 347.776 116.479Q349.739 116.379 351.704 116.375Q353.669 116.371 355.632 116.464Q357.596 116.556 359.552 116.745Q361.508 116.934 363.452 117.219Q365.397 117.504 367.325 117.883Q369.254 118.263 371.161 118.737Q373.068 119.211 374.95 119.778Q376.832 120.345 378.683 121.004Q380.535 121.662 382.352 122.411Q384.169 123.16 385.947 123.997Q387.725 124.834 389.46 125.757Q391.195 126.68 392.883 127.688Q394.57 128.695 396.206 129.784Q397.842 130.873 399.423 132.041Q401.003 133.209 402.525 134.453Q404.046 135.697 405.504 137.014Q406.963 138.332 408.355 139.719Q409.747 141.106 411.069 142.56Q412.392 144.014 413.641 145.531Q414.89 147.048 416.064 148.625Q417.237 150.201 418.332 151.834Q419.426 153.466 420.439 155.15Q421.453 156.834 422.382 158.566Q423.311 160.297 424.154 162.073Q424.998 163.848 425.753 165.662Q426.508 167.477 427.173 169.326Q427.838 171.175 428.411 173.055Q428.985 174.935 429.465 176.841Q429.946 178.746 430.332 180.673Q430.719 182.6 431.01 184.544Q431.301 186.487 431.497 188.443Q431.693 190.398 431.792 192.361Q431.891 194.324 431.894 196.289Q431.897 198.254 431.804 200.217Q431.71 202.18 431.521 204.137Q431.331 206.093 431.045 208.037Q430.76 209.982 430.379 211.91Q429.999 213.838 429.524 215.745Q429.049 217.652 428.481 219.533Q427.913 221.415 427.254 223.266Q426.594 225.117 425.845 226.934Q425.095 228.751 424.258 230.529Q423.42 232.306 422.496 234.041Q421.572 235.775 420.564 237.462Q419.556 239.15 418.466 240.785Q417.376 242.421 416.208 244.001Q415.039 245.581 413.794 247.102Q412.55 248.622 411.232 250.08Q409.914 251.538 408.526 252.93Q407.138 254.321 405.684 255.643Q404.229 256.965 402.711 258.213Q401.194 259.462 399.617 260.635Q398.04 261.807 396.407 262.901Q394.774 263.995 393.09 265.008Q391.405 266.02 389.673 266.948Q387.941 267.877 386.166 268.719Q384.39 269.562 382.575 270.316Q380.76 271.07 378.911 271.735Q377.061 272.399 375.181 272.971Q373.301 273.544 371.395 274.024Q369.49 274.504 367.562 274.889Q365.635 275.275 363.692 275.565Q361.748 275.856 359.792 276.051Q357.837 276.245 355.874 276.344ZM349.989 141.887Q348.652 141.929 347.318 142.037Q345.984 142.145 344.658 142.318Q343.331 142.492 342.014 142.73Q340.697 142.968 339.394 143.271Q338.091 143.573 336.804 143.94Q335.517 144.306 334.25 144.735Q332.982 145.164 331.737 145.655Q330.493 146.146 329.273 146.697Q328.054 147.249 326.864 147.859Q325.673 148.47 324.514 149.138Q323.355 149.806 322.23 150.531Q321.105 151.255 320.017 152.034Q318.929 152.813 317.88 153.644Q316.832 154.475 315.826 155.357Q314.819 156.239 313.857 157.169Q312.896 158.099 311.981 159.076Q311.066 160.052 310.2 161.072Q309.334 162.092 308.519 163.154Q307.704 164.215 306.943 165.315Q306.181 166.415 305.474 167.551Q304.768 168.688 304.118 169.857Q303.468 171.027 302.876 172.227Q302.284 173.427 301.752 174.654Q301.22 175.882 300.749 177.134Q300.277 178.387 299.868 179.661Q299.459 180.935 299.113 182.227Q298.767 183.52 298.485 184.828Q298.203 186.135 297.985 187.456Q297.768 188.776 297.615 190.105Q297.463 191.435 297.376 192.77Q297.289 194.105 297.268 195.443Q297.247 196.781 297.291 198.118Q297.335 199.455 297.446 200.789Q297.556 202.122 297.731 203.449Q297.907 204.775 298.147 206.091Q298.387 207.408 298.692 208.711Q298.997 210.013 299.365 211.3Q299.734 212.586 300.165 213.853Q300.596 215.119 301.089 216.363Q301.582 217.607 302.135 218.826Q302.688 220.044 303.301 221.233Q303.913 222.423 304.583 223.581Q305.254 224.739 305.98 225.863Q306.706 226.987 307.487 228.073Q308.267 229.16 309.101 230.207Q309.934 231.254 310.817 232.259Q311.701 233.264 312.632 234.224Q313.564 235.185 314.542 236.098Q315.52 237.012 316.541 237.876Q317.563 238.74 318.625 239.553Q319.688 240.366 320.789 241.126Q321.891 241.886 323.028 242.591Q324.165 243.295 325.336 243.943Q326.507 244.592 327.708 245.181Q328.909 245.771 330.137 246.301Q331.366 246.831 332.619 247.301Q333.872 247.77 335.146 248.177Q336.421 248.584 337.714 248.928Q339.007 249.272 340.316 249.552Q341.624 249.832 342.945 250.047Q344.265 250.262 345.595 250.413Q346.924 250.563 348.26 250.648Q349.595 250.732 350.933 250.752Q352.271 250.771 353.608 250.724Q354.942 250.677 356.273 250.566Q357.604 250.454 358.927 250.277Q360.251 250.1 361.564 249.858Q362.877 249.616 364.177 249.311Q365.477 249.005 366.76 248.636Q368.043 248.267 369.307 247.835Q370.57 247.404 371.811 246.911Q373.052 246.418 374.267 245.864Q375.483 245.311 376.669 244.699Q377.856 244.087 379.011 243.418Q380.167 242.748 381.288 242.023Q382.409 241.297 383.493 240.518Q384.577 239.738 385.622 238.907Q386.666 238.075 387.669 237.193Q388.672 236.311 389.63 235.382Q390.588 234.452 391.499 233.476Q392.411 232.5 393.273 231.481Q394.136 230.461 394.948 229.401Q395.759 228.341 396.518 227.242Q397.276 226.143 397.98 225.008Q398.684 223.874 399.331 222.706Q399.979 221.538 400.568 220.34Q401.157 219.142 401.687 217.916Q402.217 216.69 402.686 215.44Q403.155 214.19 403.563 212.919Q403.97 211.647 404.315 210.357Q404.659 209.067 404.94 207.761Q405.221 206.456 405.437 205.138Q405.654 203.821 405.806 202.494Q405.957 201.168 406.044 199.835Q406.13 198.503 406.151 197.168Q406.172 195.833 406.128 194.498Q406.084 193.164 405.974 191.833Q405.864 190.502 405.689 189.178Q405.514 187.855 405.275 186.541Q405.035 185.227 404.732 183.927Q404.428 182.627 404.061 181.343Q403.694 180.059 403.265 178.795Q402.835 177.531 402.344 176.289Q401.853 175.047 401.302 173.831Q400.751 172.615 400.141 171.427Q399.531 170.24 398.863 169.083Q398.195 167.927 397.472 166.805Q396.748 165.683 395.971 164.597Q395.193 163.512 394.363 162.466Q393.533 161.42 392.653 160.416Q391.773 159.412 390.845 158.452Q389.916 157.492 388.942 156.579Q387.968 155.666 386.95 154.802Q385.932 153.938 384.873 153.125Q383.814 152.311 382.716 151.551Q381.619 150.791 380.485 150.085Q379.352 149.379 378.185 148.73Q377.018 148.081 375.821 147.49Q374.624 146.898 373.399 146.366Q372.174 145.834 370.925 145.363Q369.676 144.892 368.405 144.483Q367.134 144.073 365.845 143.727Q364.555 143.38 363.25 143.097Q361.945 142.814 360.628 142.595Q359.311 142.376 357.985 142.223Q356.658 142.069 355.326 141.98Q353.994 141.891 352.659 141.868Q351.324 141.845 349.989 141.887Z"/>
	<path fill="white" transform="scale(0.078125 0.078125)" d="M345.793 192.308L345.785 169.092C345.782 162.326 343.465 153.418 350.89 151.04C356.737 150.68 357.705 154.914 357.751 159.746L357.764 185.6C357.752 201.662 360.664 202.982 343.071 202.966L323.452 202.945C317.864 202.606 313.627 198.518 317.97 194.144C321.078 191.013 340.305 192.326 345.793 192.308Z"/>
	<path fill="white" transform="scale(0.078125 0.078125)" d="M174.375 187.451L155.954 187.471C150.582 187.473 142.977 188.514 138.62 184.534C131.57 178.094 133.263 164.107 143.71 162.4C148.588 161.603 158.532 162.123 163.799 162.122L207.064 162.13L225.359 162.107C229.552 162.082 234.45 161.563 238.545 162.486C251.149 165.324 249.904 184.449 237.61 187.045C232.95 188.029 222.611 187.46 217.514 187.46L174.375 187.451Z"/>
	<path fill="white" transform="scale(0.078125 0.078125)" d="M153.875 238.945C148.595 239.037 142.981 239.634 138.725 235.819C131.548 229.388 133.459 215.295 143.849 213.538C147.203 212.971 150.692 213.218 154.081 213.22L228.759 213.23L229.265 213.197C234.445 212.914 240.029 212.752 244.081 216.588C249.278 221.508 248.719 230.297 243.748 235.124C238.962 239.77 233.308 238.956 227.118 238.955L153.875 238.945Z"/>
</svg>
