<?xml version="1.0" encoding="utf-8" ?>
<svg xmlns="http://www.w3.org/2000/svg" xmlns:xlink="http://www.w3.org/1999/xlink" width="40" height="40">
	<path fill="white" transform="scale(0.078125 0.078125)" d="M140.007 93.1477C143.703 91.5798 147.872 90.6276 151.733 89.5049L247.1 61.441C249.993 60.5783 252.917 59.5602 255.897 59.0577C258.503 59.0382 264.744 61.4123 267.496 62.2223L339.204 83.3137C350.071 86.4284 361.307 89.2495 371.909 93.1477C375.431 98.545 378.8 106.571 381.699 112.528L438.056 227.143C441.857 235.009 446.105 242.679 449.68 250.651C447.966 255.237 445.585 259.69 443.456 264.098L380.396 392.951C378.419 396.908 373.511 405.599 372.796 409.19C368.322 409.785 364.022 411.276 359.717 412.59L342.535 417.879C324.353 423.457 305.985 428.462 287.738 433.83C277.309 436.899 266.615 441.061 255.897 442.963C253.351 443.037 237.068 437.528 233.233 436.389L152.524 412.849C148.424 411.64 143.953 410.802 140.007 409.19C138.057 406.294 136.676 402.559 135.156 399.405L69.468 266.482C67.1743 261.796 65.1271 256.49 62.1894 252.2C65.7379 244.235 69.6753 236.461 73.4837 228.619L102.171 169.898C111.517 150.334 120.898 130.85 130.603 111.459C133.587 105.496 135.808 98.3328 140.007 93.1477ZM255.159 71.0247C245.252 73.754 235.447 76.8682 225.598 79.7962L173.726 95.0067C165.558 97.3733 157.412 99.9292 149.178 102.054L161.204 193.949C162.182 201.197 163.344 208.397 164.161 215.668C185.491 207.448 210.285 198.996 232.193 192.014C244.517 188.093 256.715 183.913 268.956 179.748C287.774 173.347 283.093 174.958 298.205 160.536L352.083 109.737C354.966 107.043 357.769 104.269 361.051 102.054C356.719 100.1 351.848 99.0012 347.291 97.6377L274.536 76.1636C270.725 75.0558 258.485 70.5576 255.159 71.0247ZM365.495 105.679C360.329 110.836 354.868 115.619 349.585 120.648L316.176 152.351C307.734 160.209 298.54 168.413 290.611 176.722C294.635 178.889 298.864 180.674 303.004 182.608L325.837 193.318C344.799 202.301 363.549 211.716 382.725 220.252C396.983 227.001 419.414 235.405 432.255 243.525L433.643 244.402C432.146 240.035 429.982 235.892 427.974 231.743L417.195 210.007C414.026 203.572 366.809 106.477 365.495 105.679ZM144.067 110.434C140.132 115.267 137.931 121.671 135.293 127.295L96.8828 206.477C90.7596 218.953 83.8112 231.431 78.7737 244.402C82.6634 243.353 86.4022 241.762 90.1887 240.396L134.049 225.388C141.694 222.802 150.731 219.357 158.443 217.549C156.166 210.73 155.75 201.411 154.755 194.173L147.593 139.312C146.727 132.445 145.473 125.654 144.728 118.769C144.527 116.908 144.505 111.733 144.067 110.434ZM285.373 181.253C269.561 186.162 254.048 191.868 238.39 197.22L179.155 217.147C174.595 218.67 170.095 220.388 165.434 221.59L173.081 281.218C174.4 291.382 175.931 301.46 176.961 311.666C185.775 314.865 194.372 319.499 202.884 323.476L303.542 370.251C312.993 374.553 322.535 378.704 331.867 383.26L353.834 393.319C357.723 395.124 361.523 397.197 365.495 398.808C366.584 394.559 368.983 390.626 370.906 386.7L429.612 266.644C431.94 261.876 434.483 257.158 436.388 252.2C432.593 250.767 428.934 248.956 425.252 247.255L407.726 239.225C393.165 232.714 379.484 226.23 365.166 219.363L298.826 187.652C296.161 186.348 287.699 181.687 285.373 181.253ZM158.443 224.033C151.401 226.224 144.481 228.776 137.505 231.162L94.5253 245.746C88.1114 247.877 81.777 250.434 75.2535 252.2C80.2897 264.778 88.2926 278.961 94.5112 291.4L125.866 355.677C131.859 368.11 138.854 380.354 144.067 393.128C145.133 389.411 146.474 385.788 147.697 382.122L163.271 335.347C172.16 309.339 171.596 316.514 167.785 289.31L163.362 255.463C162.784 251.251 159.924 225.894 158.948 224.089L158.443 224.033ZM176.166 318.035C173.799 323.768 172.152 329.847 170.16 335.724L157.137 375.066C154.714 382.555 150.232 392.883 149.178 400.293C153.545 401.901 158.154 402.935 162.624 404.229L255.897 431.217C274.881 426.078 293.664 420.223 312.586 414.877C327.073 410.536 342.219 406.638 356.515 402.066C347.71 397.327 338.27 393.435 329.183 389.252L176.166 318.035Z"/>
</svg>
