<?xml version="1.0" encoding="utf-8" ?>
<svg xmlns="http://www.w3.org/2000/svg" xmlns:xlink="http://www.w3.org/1999/xlink" width="40" height="40">
	<path fill="white" transform="scale(0.078125 0.078125)" d="M70.6862 79.371L90.9413 79.371L441.548 79.371L441.548 104.64L350.994 104.64C335.75 104.64 320.48 104.45 305.239 104.64L305.239 130.921L402.932 130.914C423.218 130.908 427.263 131.308 427.258 154.497L427.25 422.737L421.795 422.737L85.0312 422.737L85.0194 154.07C85.0086 132.862 86.1547 130.862 107.497 130.904L206.78 130.921L206.78 104.64C191.702 104.275 176.531 104.636 161.439 104.637L70.6862 104.64L70.6862 79.371ZM232.306 104.64L232.306 151.431L279.791 151.431L279.791 104.64L248.475 104.629C243.1 104.627 237.675 104.471 232.306 104.64ZM110.482 156.043L110.482 327.688L206.215 327.688L206.215 278.695L305.239 278.695L305.239 327.688L401.83 327.688L401.83 296.312L401.83 156.043L305.239 156.043C305.26 161.81 306.189 167.295 301.849 171.635L280.256 193.187C276.252 197.19 271.963 201.101 268.299 205.406L268.299 237.244L243.74 237.244L243.74 205.406C232.004 193.94 218.921 179.664 206.78 169.179C207.296 164.873 206.719 160.388 206.78 156.043L110.482 156.043ZM231.595 303.983C231.505 311.882 231.596 319.788 231.595 327.688L279.791 327.688L279.791 303.983L231.595 303.983ZM158.64 353.476L158.64 397.303L353.428 397.303L353.428 353.476L158.64 353.476Z"/>
</svg>
