<?xml version="1.0" encoding="utf-8" ?>
<svg xmlns="http://www.w3.org/2000/svg" xmlns:xlink="http://www.w3.org/1999/xlink" width="40" height="40">
	<path fill="white" transform="scale(0.078125 0.078125)" d="M441.448 415.769C436.707 416.1 431.716 415.782 426.95 415.779L102.973 415.772C93.9728 415.775 84.9353 415.942 75.9402 415.735C57.1629 415.301 61.4299 397.207 61.432 384.117L61.4285 128.515C61.4225 119.318 61.2502 110.092 61.4691 100.899C61.6445 93.5352 64.053 88.2473 71.8232 86.5322C87.1954 85.0525 86.584 98.8924 86.5798 109.021L86.568 390.445L424.249 390.44C429.431 390.435 434.718 390.282 439.881 390.713C452.854 391.796 456.181 410.151 441.448 415.769Z"/>
	<path fill="white" transform="scale(0.078125 0.078125)" d="M406.313 362.444L368.257 362.435C360.734 362.433 353.119 362.733 345.609 362.429C334.893 361.995 338.195 350.584 338.234 342.34L338.233 106.994C338.236 100.117 335.961 88.4775 344.955 86.5322C348.238 86.3203 351.595 86.5076 354.888 86.5151L393.405 86.5205C413.323 86.5092 412.069 85.4736 412.015 106.48L412.017 348.5C412.027 354.096 414.011 361.403 406.313 362.444Z"/>
	<path fill="white" transform="scale(0.078125 0.078125)" d="M301.229 362.444L256.64 362.436C251.074 362.434 245.392 362.801 239.852 362.624C231.515 362.357 234.259 346.508 234.273 340.982L234.272 218.248C234.272 202.928 233.894 187.496 234.314 172.191C234.452 167.196 235.557 163.835 240.935 162.774L281.425 162.763C297.056 162.767 307.791 157.617 307.767 175.715L307.75 345.252C307.76 351.781 310.442 361.685 301.229 362.444Z"/>
	<path fill="white" transform="scale(0.078125 0.078125)" d="M197.813 362.444L157.522 362.451C150.559 362.451 143.385 362.795 136.445 362.354C127.354 361.776 129.985 351.856 130.004 345.436L130.022 278.572C130.025 270.067 126.278 252.065 137.018 251.056L175.677 251.05C182.433 251.052 189.492 250.624 196.21 251.197C207.172 252.133 204.002 263.259 203.988 271.123L203.975 338.919C203.953 345.911 207.117 361.812 197.813 362.444Z"/>
</svg>
