<?xml version="1.0" encoding="utf-8" ?>
<svg xmlns="http://www.w3.org/2000/svg" xmlns:xlink="http://www.w3.org/1999/xlink" width="40" height="40">
	<path fill="white" transform="scale(0.078125 0.078125)" d="M401.563 439.094C393.863 438.703 385.924 439.091 378.204 439.092L137.182 439.088C129.292 439.094 111.431 441.046 104.825 436.465C98.5972 432.146 99.9729 423.479 99.9889 416.923L100.002 98.366C100 86.4954 95.4306 66.2442 110.621 63.7416L368.217 63.7514C378.741 63.7533 389.413 63.3441 399.921 63.7536C414.994 64.341 412.227 80.0415 412.219 90.5883L412.209 398.303C412.209 407.462 412.403 416.662 412.204 425.817C412.047 433.09 408.592 436.982 401.563 439.094ZM123.017 86.2984L123.017 415.538L389.063 415.538C389.258 403.387 389.062 391.207 389.062 379.053L389.063 86.2984L123.017 86.2984Z"/>
	<path fill="white" transform="scale(0.078125 0.078125)" d="M177.588 182.069Q177.246 182.141 176.9 182.197Q176.555 182.253 176.207 182.291Q175.859 182.33 175.51 182.351Q175.161 182.373 174.811 182.377Q174.461 182.382 174.112 182.369Q173.762 182.357 173.413 182.327Q173.065 182.297 172.718 182.251Q172.371 182.204 172.027 182.14Q171.683 182.077 171.343 181.997Q171.002 181.916 170.666 181.819Q170.33 181.723 169.999 181.609Q169.668 181.496 169.343 181.367Q169.018 181.238 168.699 181.093Q168.381 180.948 168.07 180.788Q167.759 180.627 167.456 180.452Q167.153 180.277 166.859 180.087Q166.566 179.897 166.281 179.693Q165.997 179.489 165.723 179.271Q165.45 179.053 165.187 178.822Q164.924 178.591 164.672 178.348Q164.421 178.105 164.182 177.849Q163.943 177.594 163.717 177.327Q163.49 177.06 163.277 176.783Q163.064 176.505 162.865 176.218Q162.666 175.93 162.481 175.633Q162.296 175.336 162.126 175.03Q161.955 174.725 161.8 174.411Q161.645 174.097 161.506 173.777Q161.366 173.456 161.243 173.129Q161.119 172.801 161.011 172.468Q160.904 172.135 160.813 171.798Q160.722 171.46 160.647 171.118Q160.572 170.776 160.515 170.431Q160.457 170.086 160.416 169.739Q160.375 169.391 160.352 169.042Q160.328 168.693 160.321 168.343Q160.315 167.993 160.325 167.644Q160.335 167.294 160.363 166.945Q160.39 166.596 160.435 166.249Q160.479 165.902 160.541 165.558Q160.602 165.213 160.681 164.872Q160.759 164.531 160.854 164.194Q160.948 163.858 161.059 163.526Q161.171 163.194 161.298 162.868Q161.425 162.542 161.568 162.223Q161.711 161.904 161.869 161.592Q162.028 161.28 162.201 160.976Q162.375 160.672 162.563 160.377Q162.751 160.082 162.953 159.797Q163.155 159.511 163.371 159.236Q163.587 158.961 163.817 158.696Q164.046 158.432 164.288 158.179Q164.53 157.926 164.784 157.686Q165.037 157.445 165.303 157.217Q165.568 156.989 165.844 156.774Q166.121 156.559 166.407 156.358Q166.693 156.157 166.989 155.971Q167.285 155.784 167.59 155.612Q167.894 155.44 168.207 155.283Q168.52 155.126 168.84 154.984Q169.16 154.843 169.486 154.717Q169.813 154.591 170.145 154.482Q170.477 154.372 170.814 154.279Q171.152 154.186 171.493 154.109Q171.837 154.032 172.185 153.972Q172.532 153.911 172.882 153.868Q173.232 153.825 173.584 153.8Q173.935 153.774 174.288 153.765Q174.641 153.757 174.993 153.766Q175.346 153.775 175.697 153.801Q176.049 153.828 176.399 153.871Q176.749 153.915 177.096 153.976Q177.444 154.037 177.787 154.115Q178.131 154.192 178.471 154.287Q178.811 154.382 179.145 154.493Q179.48 154.605 179.809 154.732Q180.137 154.86 180.459 155.004Q180.781 155.147 181.096 155.307Q181.411 155.466 181.717 155.641Q182.023 155.816 182.321 156.005Q182.618 156.195 182.906 156.399Q183.193 156.603 183.47 156.821Q183.748 157.039 184.014 157.27Q184.28 157.501 184.534 157.746Q184.789 157.99 185.031 158.246Q185.273 158.503 185.502 158.771Q185.732 159.039 185.947 159.318Q186.163 159.597 186.365 159.886Q186.566 160.175 186.754 160.474Q186.941 160.773 187.113 161.08Q187.285 161.388 187.442 161.704Q187.599 162.02 187.74 162.343Q187.881 162.666 188.006 162.996Q188.132 163.326 188.24 163.661Q188.349 163.997 188.441 164.337Q188.533 164.677 188.608 165.022Q188.683 165.367 188.741 165.714Q188.799 166.062 188.84 166.413Q188.881 166.763 188.904 167.115Q188.928 167.467 188.934 167.819Q188.94 168.172 188.929 168.524Q188.918 168.877 188.889 169.228Q188.861 169.58 188.815 169.929Q188.769 170.279 188.706 170.626Q188.643 170.973 188.563 171.317Q188.483 171.66 188.386 171.999Q188.29 172.338 188.176 172.672Q188.063 173.006 187.933 173.334Q187.803 173.662 187.657 173.983Q187.512 174.304 187.35 174.618Q187.189 174.931 187.012 175.237Q186.836 175.542 186.644 175.838Q186.453 176.134 186.247 176.42Q186.041 176.707 185.821 176.983Q185.602 177.259 185.369 177.523Q185.136 177.788 184.89 178.041Q184.644 178.294 184.386 178.534Q184.128 178.775 183.859 179.002Q183.59 179.23 183.309 179.444Q183.029 179.658 182.738 179.858Q182.448 180.058 182.148 180.243Q181.848 180.428 181.539 180.599Q181.23 180.769 180.913 180.924Q180.597 181.079 180.272 181.218Q179.948 181.357 179.618 181.48Q179.287 181.603 178.951 181.71Q178.615 181.816 178.274 181.906Q177.933 181.996 177.588 182.069Z"/>
	<path fill="white" transform="scale(0.078125 0.078125)" d="M341.492 178.74C334.88 179.155 327.949 178.745 321.306 178.743L243.032 178.75C236.524 178.752 221.705 180.415 216.268 176.486C208.233 170.68 210.675 157.696 222.383 156.262C230.176 156.04 238.03 156.26 245.833 156.262L323.269 156.256C329.68 156.256 341.148 154.717 346.736 158.403C356.225 164.663 351.489 176.956 341.492 178.74Z"/>
	<path fill="white" transform="scale(0.078125 0.078125)" d="M177.643 265.139Q177.296 265.212 176.945 265.267Q176.594 265.322 176.241 265.361Q175.888 265.399 175.534 265.42Q175.18 265.44 174.825 265.444Q174.47 265.447 174.115 265.433Q173.76 265.419 173.407 265.387Q173.053 265.356 172.702 265.307Q172.35 265.258 172.001 265.192Q171.652 265.126 171.307 265.043Q170.962 264.96 170.621 264.86Q170.281 264.76 169.945 264.644Q169.61 264.527 169.281 264.395Q168.952 264.262 168.629 264.113Q168.307 263.964 167.993 263.8Q167.678 263.635 167.372 263.456Q167.066 263.276 166.769 263.081Q166.472 262.887 166.185 262.678Q165.898 262.469 165.621 262.246Q165.345 262.024 165.08 261.788Q164.815 261.552 164.561 261.303Q164.308 261.054 164.067 260.793Q163.827 260.532 163.599 260.26Q163.371 259.987 163.157 259.704Q162.943 259.421 162.744 259.128Q162.544 258.834 162.359 258.531Q162.173 258.229 162.003 257.917Q161.833 257.605 161.679 257.286Q161.524 256.966 161.385 256.639Q161.247 256.313 161.124 255.979Q161.002 255.646 160.896 255.308Q160.79 254.969 160.7 254.625Q160.611 254.282 160.539 253.934Q160.467 253.586 160.412 253.236Q160.357 252.885 160.319 252.532Q160.281 252.179 160.261 251.825Q160.24 251.47 160.237 251.115Q160.234 250.76 160.249 250.406Q160.263 250.051 160.295 249.697Q160.327 249.344 160.376 248.992Q160.425 248.641 160.491 248.292Q160.558 247.943 160.641 247.598Q160.725 247.253 160.825 246.912Q160.925 246.572 161.042 246.237Q161.159 245.901 161.292 245.572Q161.425 245.243 161.574 244.921Q161.723 244.599 161.888 244.285Q162.053 243.97 162.233 243.664Q162.413 243.358 162.608 243.061Q162.803 242.765 163.012 242.478Q163.221 242.191 163.444 241.915Q163.667 241.639 163.903 241.374Q164.14 241.109 164.389 240.856Q164.638 240.603 164.899 240.362Q165.16 240.122 165.433 239.894Q165.705 239.667 165.989 239.453Q166.272 239.24 166.566 239.04Q166.859 238.841 167.163 238.656Q167.466 238.471 167.777 238.301Q168.089 238.131 168.409 237.977Q168.729 237.823 169.056 237.685Q169.382 237.546 169.716 237.424Q170.049 237.302 170.388 237.196Q170.727 237.091 171.071 237.002Q171.414 236.913 171.762 236.841Q172.109 236.769 172.46 236.715Q172.81 236.66 173.162 236.622Q173.515 236.585 173.869 236.565Q174.223 236.545 174.577 236.542Q174.932 236.539 175.286 236.554Q175.64 236.569 175.993 236.601Q176.347 236.633 176.698 236.682Q177.049 236.731 177.397 236.798Q177.745 236.864 178.09 236.947Q178.434 237.031 178.774 237.131Q179.115 237.231 179.449 237.348Q179.784 237.465 180.113 237.598Q180.441 237.731 180.763 237.88Q181.085 238.029 181.399 238.194Q181.713 238.358 182.018 238.538Q182.324 238.718 182.62 238.912Q182.917 239.107 183.203 239.316Q183.49 239.525 183.765 239.747Q184.041 239.97 184.306 240.206Q184.571 240.442 184.823 240.691Q185.076 240.939 185.316 241.2Q185.557 241.461 185.784 241.733Q186.011 242.005 186.225 242.288Q186.438 242.571 186.637 242.864Q186.837 243.157 187.022 243.46Q187.207 243.763 187.376 244.074Q187.546 244.385 187.7 244.704Q187.855 245.023 187.993 245.35Q188.132 245.676 188.254 246.009Q188.376 246.342 188.482 246.68Q188.588 247.019 188.677 247.362Q188.766 247.705 188.838 248.052Q188.91 248.399 188.965 248.749Q189.02 249.1 189.058 249.452Q189.096 249.805 189.116 250.159Q189.137 250.513 189.14 250.867Q189.143 251.222 189.129 251.576Q189.114 251.93 189.083 252.283Q189.051 252.636 189.002 252.988Q188.953 253.339 188.887 253.687Q188.821 254.035 188.738 254.38Q188.655 254.725 188.555 255.065Q188.455 255.405 188.338 255.74Q188.222 256.075 188.089 256.404Q187.956 256.732 187.808 257.054Q187.659 257.376 187.495 257.69Q187.33 258.004 187.151 258.31Q186.971 258.616 186.777 258.913Q186.583 259.209 186.374 259.496Q186.165 259.782 185.943 260.059Q185.721 260.335 185.485 260.6Q185.249 260.864 185.001 261.117Q184.752 261.37 184.492 261.611Q184.231 261.851 183.959 262.079Q183.687 262.306 183.405 262.52Q183.122 262.734 182.829 262.934Q182.536 263.133 182.234 263.318Q181.931 263.504 181.62 263.674Q181.309 263.844 180.99 263.998Q180.671 264.153 180.344 264.292Q180.018 264.43 179.686 264.553Q179.353 264.675 179.015 264.782Q178.676 264.888 178.333 264.977Q177.99 265.067 177.643 265.139Z"/>
	<path fill="white" transform="scale(0.078125 0.078125)" d="M341.492 263.043C334.342 263.417 326.955 263.047 319.78 263.046L239.444 263.042C233.912 263.045 228.074 263.473 222.575 263.079C208.811 262.094 207.42 242.242 222.383 240.323C227.802 239.887 233.807 240.308 239.277 240.315L317.49 240.319C324.048 240.318 341.578 238.762 346.956 242.304C356.336 248.483 352.377 261.111 341.492 263.043Z"/>
	<path fill="white" transform="scale(0.078125 0.078125)" d="M176.655 348.775Q176.306 348.83 175.955 348.867Q175.604 348.905 175.252 348.926Q174.9 348.946 174.547 348.95Q174.194 348.953 173.841 348.939Q173.488 348.925 173.137 348.894Q172.785 348.863 172.435 348.815Q172.086 348.766 171.739 348.701Q171.392 348.636 171.049 348.554Q170.705 348.472 170.366 348.373Q170.027 348.274 169.694 348.159Q169.36 348.044 169.032 347.913Q168.705 347.782 168.384 347.634Q168.063 347.487 167.75 347.325Q167.436 347.162 167.131 346.985Q166.826 346.807 166.53 346.615Q166.234 346.422 165.948 346.216Q165.662 346.009 165.386 345.789Q165.11 345.568 164.846 345.335Q164.581 345.102 164.328 344.855Q164.075 344.609 163.834 344.351Q163.593 344.093 163.365 343.823Q163.138 343.554 162.923 343.273Q162.709 342.993 162.508 342.703Q162.308 342.412 162.122 342.112Q161.936 341.812 161.764 341.503Q161.593 341.195 161.437 340.878Q161.281 340.561 161.141 340.238Q161.001 339.914 160.876 339.583Q160.752 339.253 160.644 338.917Q160.536 338.581 160.444 338.24Q160.353 337.899 160.278 337.554Q160.203 337.209 160.145 336.861Q160.087 336.513 160.046 336.162Q160.005 335.812 159.982 335.459Q159.958 335.107 159.952 334.754Q159.945 334.401 159.956 334.049Q159.967 333.696 159.995 333.344Q160.023 332.992 160.068 332.642Q160.113 332.292 160.175 331.944Q160.237 331.597 160.316 331.253Q160.395 330.909 160.491 330.569Q160.586 330.229 160.699 329.894Q160.811 329.56 160.939 329.231Q161.067 328.902 161.212 328.58Q161.356 328.258 161.516 327.943Q161.675 327.628 161.85 327.322Q162.025 327.015 162.215 326.717Q162.405 326.42 162.609 326.132Q162.813 325.844 163.03 325.566Q163.248 325.288 163.479 325.021Q163.71 324.754 163.954 324.499Q164.198 324.244 164.454 324.001Q164.71 323.758 164.978 323.528Q165.245 323.297 165.524 323.08Q165.802 322.864 166.091 322.66Q166.379 322.457 166.678 322.269Q166.976 322.08 167.283 321.906Q167.59 321.732 167.906 321.573Q168.221 321.414 168.543 321.271Q168.866 321.128 169.195 321.001Q169.525 320.873 169.86 320.762Q170.195 320.651 170.535 320.556Q170.875 320.462 171.219 320.384Q171.563 320.306 171.911 320.245Q172.263 320.183 172.617 320.139Q172.971 320.095 173.327 320.068Q173.683 320.041 174.04 320.032Q174.397 320.023 174.754 320.031Q175.111 320.04 175.467 320.066Q175.823 320.092 176.178 320.136Q176.532 320.179 176.884 320.24Q177.236 320.301 177.584 320.38Q177.932 320.458 178.276 320.553Q178.62 320.649 178.959 320.761Q179.298 320.873 179.631 321.002Q179.964 321.131 180.29 321.276Q180.617 321.422 180.935 321.583Q181.254 321.744 181.564 321.92Q181.875 322.097 182.176 322.289Q182.477 322.48 182.768 322.687Q183.06 322.893 183.341 323.113Q183.621 323.334 183.891 323.568Q184.161 323.802 184.418 324.049Q184.676 324.296 184.921 324.556Q185.167 324.815 185.399 325.086Q185.631 325.358 185.85 325.64Q186.068 325.922 186.272 326.215Q186.477 326.508 186.666 326.811Q186.856 327.113 187.03 327.425Q187.204 327.736 187.363 328.056Q187.522 328.376 187.665 328.703Q187.808 329.03 187.934 329.364Q188.061 329.698 188.171 330.038Q188.281 330.378 188.374 330.722Q188.467 331.067 188.543 331.416Q188.618 331.765 188.677 332.117Q188.736 332.469 188.777 332.824Q188.818 333.179 188.841 333.535Q188.865 333.891 188.871 334.248Q188.877 334.605 188.865 334.962Q188.853 335.319 188.824 335.674Q188.795 336.03 188.748 336.384Q188.701 336.738 188.637 337.089Q188.573 337.441 188.491 337.788Q188.41 338.136 188.311 338.479Q188.213 338.822 188.097 339.16Q187.982 339.498 187.85 339.83Q187.718 340.162 187.57 340.486Q187.422 340.811 187.258 341.129Q187.094 341.446 186.915 341.754Q186.735 342.063 186.541 342.363Q186.347 342.662 186.138 342.952Q185.929 343.241 185.706 343.52Q185.483 343.799 185.246 344.066Q185.01 344.334 184.761 344.589Q184.511 344.845 184.249 345.088Q183.988 345.331 183.714 345.56Q183.441 345.79 183.157 346.006Q182.872 346.222 182.578 346.423Q182.283 346.625 181.979 346.812Q181.675 346.999 181.362 347.17Q181.048 347.342 180.727 347.498Q180.406 347.654 180.078 347.794Q179.749 347.934 179.414 348.057Q179.079 348.181 178.739 348.287Q178.398 348.394 178.052 348.484Q177.707 348.574 177.357 348.647Q177.008 348.72 176.655 348.775Z"/>
	<path fill="white" transform="scale(0.078125 0.078125)" d="M339.805 346.746L235.729 346.762C229.88 346.763 221.01 348.211 216.051 344.344C207.387 337.589 211.424 324.865 224.347 324.077L328.643 324.057C332.758 324.037 337.168 323.672 341.239 324.174C355.7 325.956 354.846 346.417 339.805 346.746Z"/>
</svg>
