<?xml version="1.0" encoding="utf-8" ?>
<svg xmlns="http://www.w3.org/2000/svg" xmlns:xlink="http://www.w3.org/1999/xlink" width="40" height="40">
	<path fill="white" transform="scale(0.078125 0.078125)" d="M76.6254 118.539C80.1685 115.326 83.4614 111.882 86.8996 108.564L109.675 86.5354C114.06 82.3058 118.484 77.2669 123.439 73.7657C127.722 75.6503 159.326 108.969 164.299 114.106L164.299 139.449L201.497 176.605C208.75 183.868 216.311 190.978 223.102 198.674C217.23 205.537 210.091 211.447 203.891 218.021C199.906 213.343 194.882 208.777 190.585 204.26L159.636 172.967C154.853 168.139 149.803 163.557 145.176 158.581C135.461 158.175 125.565 158.574 115.833 158.581C111.005 152.682 105.549 147.572 100.178 142.195L76.6254 118.539Z"/>
	<path fill="white" transform="scale(0.078125 0.078125)" d="M344.601 86.4631C352.742 79.1678 361.175 74.086 372.384 73.7657C389.408 70.6734 402.008 83.7063 412.779 94.2138C423.746 104.912 432.338 111.999 434.103 128.385C435.588 142.165 431.03 153.362 422.522 163.859C412.927 154.846 404.076 145.053 394.423 136.084L340.274 191.075C344.787 196.365 350.185 200.898 354.622 206.243C352.229 207.985 350.16 210.228 348.063 212.31L151.546 409.855C146.261 415.284 141.559 420.302 134.86 424.074C98.1246 443.168 61.5651 399.232 84.7716 368.381C87.8687 364.264 91.8052 360.789 95.4799 357.198L301.49 151.887C306.561 157.294 312.008 162.401 317.297 167.594C329.63 155.606 341.671 143.275 353.802 131.08C358.342 126.516 366.536 117.161 371.521 114.106C368.749 110.087 364.887 106.751 361.451 103.293L344.601 86.4631ZM183.069 310.76C177.867 313.013 173.93 318.42 170.007 322.363L136.215 356.113C134.215 358.089 128.016 363.02 127.052 365.476C124.084 373.037 131.062 381.244 138.857 380.709C142.216 378.531 145.055 374.884 147.867 372.014L159.672 360.151C165.404 354.388 194.468 326.759 195.345 322.623C196.877 315.398 189.536 310.476 183.069 310.76Z"/>
	<path fill="white" transform="scale(0.078125 0.078125)" d="M288.012 302.078C295.197 296.586 300.562 288.557 307.635 283.001C319.042 293.41 330.226 305.215 341.213 316.142L424.16 399.89C427.458 403.199 430.729 406.713 434.328 409.697L421.151 422.631C419.311 424.431 417.499 426.61 415.508 428.2C410.889 422.658 405.237 417.731 400.151 412.609L308.649 322.057C301.794 315.377 295.069 308.546 288.012 302.078Z"/>
</svg>
