<?xml version="1.0" encoding="utf-8" ?>
<svg xmlns="http://www.w3.org/2000/svg" xmlns:xlink="http://www.w3.org/1999/xlink" width="40" height="40">
	<path fill="white" transform="scale(0.078125 0.078125)" d="M143.119 149.916Q142.211 150.001 141.301 150.041Q140.39 150.081 139.478 150.076Q138.567 150.071 137.656 150.021Q136.746 149.972 135.84 149.878Q134.933 149.784 134.032 149.645Q133.131 149.506 132.238 149.324Q131.345 149.141 130.462 148.915Q129.578 148.689 128.708 148.419Q127.837 148.15 126.98 147.838Q126.123 147.526 125.283 147.173Q124.443 146.819 123.621 146.425Q122.799 146.031 121.997 145.597Q121.196 145.163 120.417 144.69Q119.637 144.217 118.882 143.706Q118.127 143.195 117.398 142.648Q116.669 142.101 115.967 141.519Q115.266 140.936 114.594 140.32Q113.922 139.704 113.281 139.056Q112.64 138.408 112.032 137.729Q111.424 137.05 110.849 136.342Q110.275 135.634 109.736 134.899Q109.197 134.163 108.695 133.402Q108.193 132.642 107.729 131.857Q107.265 131.072 106.84 130.266Q106.415 129.459 106.03 128.633Q105.645 127.807 105.302 126.963Q104.958 126.118 104.656 125.258Q104.354 124.398 104.094 123.524Q103.835 122.65 103.619 121.765Q103.402 120.879 103.23 119.984Q103.057 119.089 102.929 118.186Q102.801 117.284 102.717 116.376Q102.633 115.468 102.594 114.558Q102.555 113.647 102.56 112.735Q102.566 111.824 102.616 110.913Q102.667 110.003 102.761 109.097Q102.856 108.19 102.996 107.289Q103.135 106.388 103.319 105.495Q103.502 104.602 103.729 103.719Q103.956 102.837 104.226 101.966Q104.496 101.095 104.809 100.239Q105.121 99.3826 105.475 98.5426Q105.829 97.7026 106.224 96.8811Q106.619 96.0595 107.054 95.2583Q107.489 94.4571 107.963 93.6782Q108.436 92.8993 108.948 92.1446Q109.459 91.39 110.007 90.6613Q110.554 89.9326 111.137 89.2317Q111.72 88.5308 112.337 87.8594Q112.953 87.1879 113.602 86.5475Q114.251 85.9072 114.93 85.2995Q115.61 84.6917 116.318 84.1181Q117.027 83.5444 117.763 83.0062Q118.498 82.4681 119.26 81.9667Q120.021 81.4653 120.806 81.0018Q121.591 80.5384 122.398 80.1141Q123.205 79.6898 124.031 79.3055Q124.858 78.9213 125.702 78.5782Q126.547 78.235 127.407 77.9338Q128.268 77.6325 129.142 77.3738Q130.016 77.1151 130.902 76.8997Q131.787 76.6842 132.683 76.5125Q133.578 76.3408 134.481 76.2132Q135.383 76.0857 136.291 76.0026Q137.198 75.9196 138.108 75.8812Q139.017 75.8428 139.928 75.849Q140.839 75.8553 141.748 75.9062Q142.657 75.957 143.563 76.0525Q144.468 76.1479 145.368 76.2876Q146.268 76.4273 147.16 76.611Q148.052 76.7947 148.933 77.0219Q149.815 77.249 150.685 77.5192Q151.554 77.7894 152.41 78.1018Q153.265 78.4143 154.104 78.7684Q154.943 79.1224 155.763 79.5172Q156.584 79.912 157.384 80.3465Q158.184 80.781 158.962 81.2543Q159.74 81.7276 160.494 82.2384Q161.248 82.7492 161.976 83.2964Q162.704 83.8436 163.404 84.4258Q164.104 85.0081 164.775 85.6239Q165.445 86.2398 166.085 86.8878Q166.725 87.5359 167.332 88.2145Q167.939 88.8931 168.513 89.6006Q169.086 90.3082 169.623 91.0431Q170.161 91.7779 170.662 92.5382Q171.163 93.2985 171.627 94.0825Q172.09 94.8665 172.514 95.6722Q172.938 96.478 173.323 97.3036Q173.707 98.1292 174.05 98.9726Q174.393 99.816 174.695 100.675Q174.996 101.535 175.255 102.408Q175.514 103.281 175.73 104.165Q175.946 105.05 176.118 105.944Q176.29 106.838 176.418 107.74Q176.546 108.641 176.63 109.548Q176.714 110.455 176.753 111.365Q176.792 112.274 176.787 113.185Q176.781 114.095 176.731 115.005Q176.681 115.914 176.586 116.82Q176.492 117.725 176.353 118.625Q176.214 119.525 176.031 120.417Q175.848 121.309 175.622 122.191Q175.395 123.073 175.126 123.943Q174.856 124.813 174.545 125.669Q174.233 126.524 173.88 127.363Q173.526 128.203 173.132 129.024Q172.738 129.844 172.304 130.645Q171.87 131.446 171.398 132.224Q170.925 133.002 170.415 133.757Q169.905 134.511 169.358 135.239Q168.812 135.968 168.23 136.668Q167.648 137.369 167.033 138.04Q166.418 138.711 165.77 139.352Q165.123 139.992 164.445 140.6Q163.767 141.208 163.06 141.781Q162.352 142.355 161.618 142.894Q160.884 143.432 160.124 143.934Q159.364 144.436 158.58 144.899Q157.797 145.363 156.991 145.788Q156.186 146.213 155.361 146.598Q154.535 146.983 153.692 147.327Q152.849 147.671 151.99 147.973Q151.131 148.275 150.258 148.535Q149.386 148.795 148.501 149.011Q147.617 149.228 146.723 149.401Q145.829 149.574 144.927 149.703Q144.026 149.831 143.119 149.916Z"/>
	<path fill="white" transform="scale(0.078125 0.078125)" d="M424.334 135.865L277.536 135.876C270.063 135.875 256.93 137.78 250.738 132.74C241.372 125.118 244.903 109.96 258.878 109.165C261.242 108.991 263.722 109.148 266.095 109.152L412.207 109.158C417.394 109.141 425.518 107.941 430.159 110.685C441.603 117.451 438.379 132.553 424.334 135.865Z"/>
	<path fill="white" transform="scale(0.078125 0.078125)" d="M143.875 230.185L106.931 230.192C96.063 230.195 78.3818 233.48 76.3406 218.357C74.8584 207.376 81.3418 190.709 88.0749 182.092C99.7553 167.144 116.165 158.531 134.899 156.239C168.837 153.742 201.765 179.657 201.934 214.802C202.022 233.157 187.657 230.191 174.473 230.194L143.875 230.185Z"/>
	<path fill="white" transform="scale(0.078125 0.078125)" d="M418.562 205.443L271.364 205.424C267.053 205.407 261.891 205.926 257.737 205.481C245.493 204.168 235.944 178.787 264.314 177.779L407.88 177.778C413.212 177.777 419.083 177.312 424.362 177.95C438.248 179.629 445.782 204.907 418.562 205.443Z"/>
	<path fill="white" transform="scale(0.078125 0.078125)" d="M144.137 344.586Q143.238 344.685 142.336 344.74Q141.434 344.794 140.53 344.805Q139.626 344.815 138.723 344.781Q137.819 344.747 136.919 344.669Q136.018 344.591 135.123 344.469Q134.227 344.347 133.338 344.181Q132.45 344.015 131.57 343.806Q130.691 343.597 129.823 343.345Q128.955 343.093 128.1 342.798Q127.245 342.504 126.406 342.168Q125.567 341.833 124.745 341.456Q123.923 341.08 123.121 340.663Q122.318 340.247 121.537 339.792Q120.756 339.337 119.998 338.844Q119.241 338.351 118.508 337.822Q117.775 337.292 117.069 336.728Q116.363 336.163 115.686 335.564Q115.008 334.966 114.361 334.335Q113.714 333.704 113.098 333.042Q112.483 332.38 111.9 331.688Q111.318 330.997 110.77 330.278Q110.222 329.559 109.71 328.814Q109.198 328.069 108.724 327.3Q108.249 326.531 107.812 325.739Q107.376 324.947 106.978 324.135Q106.581 323.323 106.224 322.493Q105.867 321.663 105.551 320.816Q105.235 319.969 104.961 319.107Q104.687 318.246 104.456 317.372Q104.224 316.498 104.036 315.614Q103.848 314.73 103.703 313.838Q103.558 312.945 103.457 312.047Q103.356 311.149 103.299 310.247Q103.242 309.344 103.23 308.441Q103.217 307.537 103.249 306.633Q103.281 305.73 103.357 304.829Q103.433 303.928 103.553 303.033Q103.673 302.137 103.836 301.248Q104 300.359 104.207 299.479Q104.414 298.599 104.664 297.73Q104.914 296.861 105.206 296.006Q105.499 295.151 105.832 294.311Q106.166 293.471 106.541 292.648Q106.915 291.825 107.33 291.022Q107.744 290.218 108.197 289.436Q108.651 288.654 109.142 287.895Q109.633 287.136 110.16 286.402Q110.688 285.668 111.251 284.961Q111.814 284.254 112.411 283.575Q113.008 282.896 113.637 282.247Q114.266 281.599 114.927 280.982Q115.587 280.364 116.277 279.78Q116.967 279.196 117.685 278.647Q118.403 278.097 119.146 277.584Q119.89 277.07 120.658 276.593Q121.426 276.117 122.217 275.678Q123.007 275.24 123.818 274.84Q124.629 274.441 125.459 274.082Q126.289 273.723 127.135 273.405Q127.981 273.087 128.842 272.811Q129.702 272.535 130.576 272.302Q131.449 272.068 132.333 271.878Q133.216 271.687 134.108 271.54Q135 271.393 135.898 271.29Q136.799 271.187 137.704 271.128Q138.608 271.068 139.515 271.054Q140.422 271.039 141.328 271.07Q142.234 271.1 143.138 271.174Q144.041 271.249 144.94 271.368Q145.839 271.486 146.731 271.649Q147.623 271.812 148.506 272.019Q149.389 272.225 150.26 272.475Q151.132 272.725 151.99 273.017Q152.849 273.309 153.692 273.643Q154.534 273.977 155.36 274.352Q156.185 274.727 156.992 275.143Q157.798 275.558 158.582 276.012Q159.367 276.466 160.128 276.959Q160.89 277.451 161.626 277.98Q162.362 278.509 163.072 279.074Q163.781 279.638 164.462 280.237Q165.143 280.836 165.793 281.468Q166.444 282.099 167.063 282.762Q167.681 283.425 168.267 284.117Q168.852 284.81 169.403 285.53Q169.954 286.25 170.468 286.997Q170.983 287.743 171.46 288.514Q171.938 289.285 172.376 290.079Q172.815 290.872 173.215 291.686Q173.614 292.5 173.973 293.333Q174.332 294.165 174.649 295.015Q174.967 295.864 175.242 296.728Q175.517 297.592 175.75 298.468Q175.982 299.345 176.172 300.231Q176.361 301.118 176.506 302.013Q176.652 302.908 176.753 303.809Q176.854 304.71 176.911 305.615Q176.968 306.52 176.98 307.426Q176.993 308.333 176.961 309.239Q176.928 310.145 176.852 311.049Q176.775 311.952 176.654 312.851Q176.533 313.749 176.368 314.641Q176.203 315.533 175.994 316.415Q175.785 317.297 175.534 318.168Q175.282 319.039 174.988 319.897Q174.693 320.755 174.357 321.597Q174.021 322.439 173.644 323.263Q173.267 324.088 172.85 324.893Q172.433 325.698 171.977 326.482Q171.521 327.265 171.027 328.026Q170.533 328.786 170.002 329.521Q169.471 330.256 168.904 330.964Q168.338 331.672 167.738 332.351Q167.137 333.031 166.504 333.68Q165.871 334.329 165.207 334.946Q164.542 335.563 163.849 336.147Q163.155 336.731 162.433 337.28Q161.712 337.829 160.964 338.341Q160.216 338.854 159.444 339.33Q158.672 339.805 157.878 340.242Q157.083 340.679 156.268 341.076Q155.453 341.474 154.62 341.831Q153.786 342.188 152.936 342.503Q152.086 342.818 151.222 343.092Q150.357 343.365 149.48 343.596Q148.603 343.826 147.716 344.013Q146.829 344.2 145.934 344.344Q145.038 344.487 144.137 344.586Z"/>
	<path fill="white" transform="scale(0.078125 0.078125)" d="M424.334 324.505L277.009 324.506C270.792 324.505 264.21 324.911 258.031 324.318C241.603 322.741 242.802 298.61 258.878 298.044L405.123 298.038C412.078 298.038 425.579 296.298 431.316 300.846C441.321 308.778 436.543 323.286 424.334 324.505Z"/>
	<path fill="white" transform="scale(0.078125 0.078125)" d="M139.875 425.811L103.443 425.817C93.0043 425.824 76.0074 429.367 75.4272 414.208C74.0907 379.285 104.49 353.974 137.974 352.64C170.516 351.003 201.804 378.8 201.986 411.781C202.082 429.175 186.914 425.819 174.843 425.821L139.875 425.811Z"/>
	<path fill="white" transform="scale(0.078125 0.078125)" d="M422.377 393.748L273.754 393.76C268.872 393.77 262.205 394.261 257.594 393.63C241.893 391.481 241.825 366.94 261.191 366.982C272.115 366.231 283.327 366.99 294.282 366.989L403.34 366.99C409.98 366.98 418.268 366.467 424.678 367.109C440.143 368.657 441.76 393.274 422.377 393.748Z"/>
</svg>
