<svg xmlns="http://www.w3.org/2000/svg" xmlns:xlink="http://www.w3.org/1999/xlink" viewBox="112.22 146.24 800.93 729.06">
	<path fill="#DDD" transform="scale(2 2)" d="M214.747 186.608C215.165 186.592 215.582 186.577 216 186.574L288.294 186.592C309.865 186.576 310.868 191.173 310.753 211.759C312.701 211.718 315.81 211.268 317.519 212.174C318.861 214.404 319.022 223.53 317.144 225.457C315.07 226.234 312.238 225.827 310.026 225.754C307.446 232.457 306.419 240.073 304.889 247.108L295.569 288.34C293.386 297.977 294.137 312.205 282.231 313.282C282.044 317.035 282.172 320.807 282.231 324.562C282.153 344.643 284.622 339.729 261.44 339.738L230.211 339.732C229.968 336.821 230.179 333.789 230.188 330.863L230.211 313.282C220.676 312.413 220.995 305.625 219.378 297.649L215.629 278.386C212.014 260.588 208.081 242.827 203.996 225.131C200.752 225.204 197.489 225.13 194.243 225.131C193.913 220.764 194.214 216.147 194.243 211.759C196.51 211.581 198.875 211.767 201.155 211.759C201.004 200.591 200.254 188 214.747 186.608ZM198.528 221.339C200.33 221.316 205.532 220.762 206.773 222.215C208.391 224.109 219.817 280.925 221.329 288.056C222.627 294.178 223.189 302.579 226.321 307.929C229.105 310.398 234.143 309.513 237.577 309.513L269.937 309.501C273.371 309.503 283.955 310.627 286.407 307.733C288.968 304.71 290.991 292.003 291.517 287.688C293.856 280.123 295.226 272.216 296.924 264.488L303.369 236.285C304.371 231.759 305.071 226.349 306.382 222.004L314.267 222.004L314.267 215.682L212.003 215.677C207.523 215.666 203.004 215.501 198.528 215.682L198.089 215.962C197.753 217.717 198.2 219.606 198.528 221.339ZM242.079 313.282C239.457 313.377 236.865 313.356 234.244 313.282C234.255 320.607 233.652 328.823 234.244 336C246.218 336.136 258.208 335.996 270.184 336C272.87 335.946 275.582 335.811 278.264 336L278.264 313.282L242.079 313.282ZM215.838 190.684C203.936 190.502 204.684 203.026 204.751 211.759L296.562 211.759L307.258 211.759C307.41 191.743 306.401 190.684 288.175 190.676L217.376 190.564C216.862 190.567 216.348 190.621 215.838 190.684Z"/>
	<path fill="#EEEEEE" transform="scale(2 2)" d="M257.251 259.458C263.055 259.138 271.012 258.397 275.46 262.803C280.211 267.508 280.055 275.22 275.365 279.902C271.192 283.191 262.612 284.547 257.767 283.088C257.097 281.263 256.805 260.188 257.251 259.458ZM261.335 279.244C265.497 279.308 269.141 279.716 272.65 277.007C280.702 266.383 269.996 263.29 261.335 263.41C261.334 268.684 261.256 273.971 261.335 279.244Z"/>
	<path fill="#EEEEEE" transform="scale(2 2)" d="M239.485 259.458C242.975 259.414 247.463 258.947 250.59 260.753C255.558 263.622 250.996 268.09 250.834 270.001C250.774 270.721 254.554 272.642 255.125 275.02C257.535 285.05 231.921 284.02 239.485 278.264C241.466 278.156 253.346 279.731 250.453 274.282C248.33 270.282 235.682 275.384 238.851 269.456C241.091 267.422 249.704 270.473 248.146 264.318C245.496 261.903 240.516 265.16 238.259 262.387C237.821 260.896 238.113 260.096 239.485 259.458Z"/>
	<path fill="#EEEEEE" transform="scale(2 2)" d="M260.308 236.204C264.662 236.212 295.448 233.1 289.402 239.934C283.253 240.065 265.481 240.751 260.109 239.701C259.11 238.397 259.254 237.514 260.308 236.204Z"/>
	<path fill="#EEEEEE" transform="scale(2 2)" d="M226.321 236.204C228.085 236.206 254.602 233.348 247.404 239.934C245.047 239.943 219.319 242.146 226.321 236.204Z"/>
	<path fill="#EEEEEE" transform="scale(2 2)" d="M375.768 368.737C375.92 357.183 375.774 345.607 375.774 334.052L375.772 265.306C375.772 258.588 373.934 220.003 377.591 218.681C381.436 219.458 379.754 240.659 379.753 244.569L379.761 351.942C379.765 357.262 380.217 362.868 379.76 368.143C379.063 363.701 379.768 355.336 379.767 350.529L379.764 316.965C379.762 310.251 379.947 303.482 379.588 296.777L379.645 297.707L379.567 297.472C379.937 304.492 379.773 311.555 379.77 318.585L379.768 351.862C379.77 355.584 379.775 359.304 379.714 363.026C379.639 367.619 377.938 369.806 382.48 369.491L382.657 369.887C381.184 370.678 382.205 370.565 381.671 372.04L381.977 372.441C384.362 372.534 379.683 372.697 379.494 372.843C379.496 374.566 379.637 376.282 379.76 378C378.962 372.406 377.762 376.489 376.027 372.809C373.637 372.234 367.058 372.713 364.322 372.847L364.396 372.964C367.887 373.361 371.487 372.981 375.005 373.1C372.256 373.298 369.371 373.129 366.611 373.122L136.698 373.1C136.7 377.078 139.457 400.044 133.56 397.396C131.443 395.189 132.508 377.072 132.457 373.1C129.735 373.106 116.165 373.519 114.451 372.363C113.071 371.432 113.337 369.211 115.046 368.828C117.556 368.264 129.445 368.599 132.457 368.737C132.274 365.105 132.45 361.437 132.453 357.798L132.45 235.231C132.449 232.355 130.91 220.606 134.022 219.168C138.281 217.2 136.694 236.154 136.694 238.403L136.698 368.737L351.442 368.734C359.456 368.736 367.791 369.326 375.768 368.737Z"/>
	<path fill="#DDD" transform="scale(2 2)" d="M255.482 99.5788C262.724 99.2547 274.003 115.304 278.789 120.559L287.116 129.527C291.048 133.748 298.594 143.777 287.825 145.831C284.402 146.484 280.681 145.979 277.21 145.962L256.219 145.947L236.594 145.965C231.183 145.966 219.714 147.731 218.566 140.25C217.663 134.366 229.522 124.615 233.246 120.54L244.274 108.378C247.407 104.964 250.609 100.381 255.482 99.5788ZM256.219 142.063L276.239 142.05C297.461 142.186 289.277 137.78 280.001 127.717L264.237 110.623C262.174 108.347 259.699 103.474 256.219 103.546C250.517 104.609 245.224 113.537 241.479 117.607C238.781 120.539 218.953 138.3 223.647 141.303C226.025 142.825 251.543 142.053 256.219 142.063Z"/>
	<path fill="#EEEEEE" transform="scale(2 2)" d="M379.76 378C379.637 376.282 379.496 374.566 379.494 372.843C379.683 372.697 384.362 372.534 381.977 372.441L381.671 372.04C382.205 370.565 381.184 370.678 382.657 369.887L382.48 369.491C377.938 369.806 379.639 367.619 379.714 363.026C379.775 359.304 379.77 355.584 379.768 351.862L379.77 318.585C379.773 311.555 379.937 304.492 379.567 297.472L379.645 297.707L379.588 296.777C379.947 303.482 379.762 310.251 379.764 316.965L379.767 350.529C379.768 355.336 379.063 363.701 379.76 368.143C380.707 370.666 397.249 366.435 399.562 370.323C402.304 374.931 382.403 373.115 379.76 373.1L379.775 393.832C379.779 397.349 379.956 400.926 379.76 404.435L407.524 404.43C410.349 404.429 426.415 402.741 426.133 406.979C425.879 410.801 416.334 408.904 413.866 408.921L382.757 408.972C359.977 409.21 337.166 408.972 314.384 408.972L99.9144 408.977C97.4876 408.979 84.4827 410.474 87.0304 405.523C89.8572 403.038 116.76 404.441 121.946 404.44L375.768 404.435L375.778 383.297C375.779 380.148 376.202 376.4 375.582 373.346L375.005 373.1C371.487 372.981 367.887 373.361 364.396 372.964L364.322 372.847C367.058 372.713 373.637 372.234 376.027 372.809C377.762 376.489 378.962 372.406 379.76 378Z"/>
	<path fill="#DDDDDD" transform="scale(2 2)" d="M379.76 378C379.637 376.282 379.496 374.566 379.494 372.843C379.683 372.697 384.362 372.534 381.977 372.441L381.671 372.04C382.205 370.565 381.184 370.678 382.657 369.887L382.48 369.491C377.938 369.806 379.639 367.619 379.714 363.026C379.775 359.304 379.77 355.584 379.768 351.862L379.77 318.585C379.773 311.555 379.937 304.492 379.567 297.472L379.645 297.707L379.588 296.777C379.947 303.482 379.762 310.251 379.764 316.965L379.767 350.529C379.768 355.336 379.063 363.701 379.76 368.143C380.707 370.666 397.249 366.435 399.562 370.323C402.304 374.931 382.403 373.115 379.76 373.1L379.775 393.832C379.779 397.349 379.956 400.926 379.76 404.435L407.524 404.43C410.349 404.429 426.415 402.741 426.133 406.979C425.879 410.801 416.334 408.904 413.866 408.921L382.757 408.972C374.951 407.711 360.876 409.416 351.603 408.664L351.653 408.55C358.06 408.791 365.349 408.402 371.892 408.448L409.944 408.406C412.896 408.406 425.505 410.356 425.72 406.685C425.885 403.859 407.065 405.081 402.527 405.081C394.974 405.079 387.311 405.067 379.764 404.903L379.585 404.263L379.992 404.215L380.162 403.333L379.672 403.134C379.556 402.905 379.76 380.587 379.76 378Z"/>
	<path fill="#EEEEEE" transform="scale(2 2)" d="M376.827 87.047C382.382 87.1647 379.439 99.8155 379.76 105.036C382.475 104.946 402.447 102.733 399.827 107.922C396.667 110.281 383.938 108.923 379.76 108.91L379.76 186.608C383.211 186.611 397.694 185.996 399.52 186.997C400.455 187.509 400.896 189.224 400.055 190.005C398.598 191.358 382.817 190.698 379.76 190.684C379.835 193.777 381.932 206.772 376.519 204.545C374.916 202.985 375.989 193.903 375.804 191.175L375.768 190.684C370.606 190.683 328.725 190.996 327.819 190.539C326.789 190.02 326.278 188.462 327.102 187.556C328.727 185.767 333.382 186.595 335.499 186.597L350.207 186.608L375.768 186.608L375.768 108.91L303.158 108.877C300.353 108.895 291.19 110.325 289.756 107.151C289.852 103.703 304.387 105.03 307.107 105.028L330.481 105.026C345.558 105.029 360.702 104.704 375.768 105.036C375.779 101.556 374.516 89.1738 376.827 87.047Z"/>
	<path fill="#DDD" transform="scale(2 2)" d="M133.798 89.2391C138.583 88.645 136.701 102.065 136.698 105.036C161.75 104.698 186.861 105.659 211.896 104.938C214.235 104.871 224.016 103.046 222.07 108.214C220.296 109.93 212.588 108.945 210.119 108.92L136.698 108.91C136.489 117.619 136.69 126.381 136.691 135.097L136.698 186.608L155.187 186.608C173.049 186.586 187.214 185.497 183.137 189.626C180.929 191.861 168.541 190.682 165.323 190.676L136.698 190.684C137.272 205.871 132.337 209.193 132.457 190.684C129.351 190.686 111.255 191.952 111.25 189.017C111.243 185.101 129.7 186.423 132.457 186.608C132.185 180.074 132.45 173.436 132.453 166.891L132.451 128.165C132.452 121.809 132.92 115.234 132.457 108.91C128.739 108.894 114.631 110.417 112.308 107.416C111.701 103.198 129.099 105.035 132.457 105.036L132.455 103.256C132.474 99.8608 131.314 91.7049 133.798 89.2391Z"/>
	<path fill="#EEEEEE" transform="scale(2 2)" d="M149.214 421.748L300.329 421.777C303.251 421.784 307.053 421.166 309.837 421.824C312.525 422.459 312.459 425.177 310.026 425.97L168.976 425.973C165.558 425.973 149.668 427.013 147.654 425.015C147.131 423.514 147.907 422.498 149.214 421.748Z"/>
	<path fill="#EEEEEE" transform="scale(2 2)" d="M321.742 249.459C323.207 249.552 324.167 250.027 325.413 250.791C358.503 271.095 349.475 322.76 312.359 331.386C310.733 331.373 309.624 331.171 309.47 329.238C310.156 327.458 317.426 325.817 320.356 324.242C345.003 310.989 349.307 276.724 328.092 258.023C325.424 255.671 319.22 253.596 321.742 249.459Z"/>
	<path fill="#EEEEEE" transform="scale(2 2)" d="M249.644 433.224L327.074 433.212C330.077 433.211 333.265 432.978 336.247 433.236C338.702 433.447 338.315 436.378 336.784 437.508C318.474 437.736 300.13 437.509 281.816 437.508L262.748 437.522C261.72 437.525 241.24 438.564 249.644 433.224Z"/>
	<path fill="#EEEEEE" transform="scale(2 2)" d="M293.613 336C296.037 335.944 302.084 334.992 300.876 339.27C299.491 340.706 297.622 339.661 295.923 340.322C293.617 343.706 304.716 342.246 306.017 342.247L333.096 342.251C336.58 342.249 342.878 340.798 345.737 343.114C345.818 344.171 345.875 345.08 345.038 345.884C343.221 346.555 297.705 346.579 293.71 346.115C290.797 345.778 289.417 336.584 293.613 336Z"/>
	<path fill="#DDD" transform="scale(2 2)" d="M166.856 73.2328Q167.049 73.1999 167.244 73.1765Q167.438 73.1531 167.634 73.1393Q167.829 73.1254 168.025 73.1211Q168.221 73.1169 168.417 73.1222Q168.613 73.1275 168.808 73.1423Q169.004 73.1572 169.198 73.1817Q169.392 73.2061 169.585 73.24Q169.778 73.2739 169.969 73.3172Q170.161 73.3605 170.349 73.4131Q170.538 73.4656 170.724 73.5274Q170.91 73.5892 171.093 73.6599Q171.275 73.7307 171.455 73.8103Q171.634 73.89 171.808 73.9783Q171.983 74.0666 172.154 74.1633Q172.324 74.26 172.49 74.365Q172.655 74.47 172.815 74.5829Q172.975 74.6958 173.13 74.8164Q173.284 74.937 173.433 75.0651Q173.581 75.1931 173.723 75.3282Q173.865 75.4634 174 75.6053Q174.135 75.7472 174.263 75.8955Q174.391 76.0439 174.512 76.1983Q174.632 76.3528 174.745 76.5129Q174.858 76.673 174.963 76.8385Q175.068 77.004 175.165 77.1744Q175.262 77.3448 175.35 77.5197Q175.438 77.6947 175.518 77.8737Q175.597 78.0528 175.668 78.2355Q175.739 78.4182 175.801 78.6042Q175.862 78.7901 175.915 78.9789Q175.968 79.1677 176.011 79.3588Q176.054 79.5499 176.088 79.7429Q176.122 79.9359 176.146 80.1303Q176.171 80.3247 176.186 80.5201Q176.2 80.7155 176.206 80.9114Q176.211 81.1073 176.207 81.3032Q176.202 81.4991 176.189 81.6945Q176.175 81.89 176.151 82.0846Q176.128 82.2791 176.095 82.4723Q176.062 82.6655 176.02 82.8568Q175.978 83.0481 175.926 83.2372Q175.874 83.4262 175.814 83.6125Q175.753 83.7988 175.683 83.9818Q175.613 84.1649 175.534 84.3444Q175.456 84.5238 175.368 84.6992Q175.281 84.8746 175.185 85.0455Q175.089 85.2164 174.985 85.3825Q174.881 85.5485 174.769 85.7092Q174.657 85.8699 174.537 86.025Q174.417 86.18 174.29 86.329Q174.163 86.478 174.028 86.6207Q173.894 86.7633 173.753 86.8991Q173.612 87.035 173.464 87.1638Q173.316 87.2926 173.162 87.414Q173.009 87.5354 172.849 87.6492Q172.689 87.7629 172.525 87.8687Q172.36 87.9745 172.19 88.0721Q172.02 88.1698 171.845 88.2589Q171.671 88.3481 171.492 88.4287Q171.314 88.5092 171.131 88.581Q170.949 88.6527 170.763 88.7154Q170.578 88.7781 170.389 88.8317Q170.201 88.8853 170.01 88.9295Q169.819 88.9738 169.626 89.0087Q169.432 89.0438 169.236 89.0694Q169.041 89.0949 168.844 89.1107Q168.647 89.1266 168.45 89.1328Q168.253 89.1389 168.056 89.1354Q167.859 89.1318 167.662 89.1186Q167.465 89.1053 167.269 89.0824Q167.073 89.0594 166.879 89.0269Q166.684 88.9944 166.491 88.9523Q166.299 88.9102 166.108 88.8587Q165.918 88.8072 165.73 88.7463Q165.543 88.6855 165.358 88.6155Q165.174 88.5455 164.993 88.4665Q164.812 88.3875 164.636 88.2998Q164.459 88.212 164.287 88.1156Q164.115 88.0192 163.948 87.9145Q163.781 87.8097 163.619 87.6969Q163.457 87.584 163.301 87.4634Q163.145 87.3427 162.995 87.2145Q162.845 87.0863 162.702 86.9509Q162.558 86.8155 162.422 86.6731Q162.285 86.5308 162.156 86.3819Q162.026 86.2331 161.904 86.078Q161.782 85.9229 161.668 85.7621Q161.554 85.6012 161.448 85.4349Q161.342 85.2686 161.244 85.0973Q161.146 84.9259 161.057 84.75Q160.968 84.5741 160.888 84.394Q160.807 84.2139 160.736 84.03Q160.664 83.8462 160.602 83.659Q160.539 83.4719 160.486 83.2819Q160.433 83.0919 160.39 82.8996Q160.346 82.7072 160.312 82.5129Q160.278 82.3186 160.253 82.1229Q160.229 81.9272 160.214 81.7305Q160.199 81.5338 160.194 81.3366Q160.189 81.1394 160.193 80.9422Q160.198 80.745 160.212 80.5483Q160.227 80.3515 160.251 80.1557Q160.275 79.96 160.308 79.7656Q160.342 79.5712 160.385 79.3787Q160.428 79.1862 160.48 78.9961Q160.533 78.806 160.595 78.6186Q160.656 78.4313 160.727 78.2473Q160.798 78.0632 160.878 77.8829Q160.958 77.7025 161.047 77.5264Q161.136 77.3502 161.233 77.1786Q161.33 77.007 161.436 76.8404Q161.541 76.6738 161.655 76.5126Q161.769 76.3514 161.89 76.196Q162.012 76.0406 162.141 75.8913Q162.27 75.7421 162.406 75.5993Q162.542 75.4566 162.685 75.3208Q162.828 75.185 162.978 75.0563Q163.127 74.9277 163.283 74.8066Q163.438 74.6855 163.6 74.5722Q163.761 74.4589 163.928 74.3537Q164.095 74.2485 164.267 74.1516Q164.439 74.0547 164.615 73.9664Q164.791 73.8781 164.972 73.7986Q165.152 73.7191 165.337 73.6486Q165.521 73.578 165.708 73.5167Q165.896 73.4553 166.086 73.4032Q166.276 73.3512 166.469 73.3085Q166.662 73.2659 166.856 73.2328ZM169.395 85.016C173.414 82.8471 172.693 76.6604 167.79 77.0088C162.07 78.5726 163.345 85.511 169.395 85.016Z"/>
	<path fill="#DDD" transform="scale(2 2)" d="M97.0134 197.924Q97.2603 197.873 97.5099 197.839Q97.7596 197.805 98.0109 197.787Q98.2623 197.77 98.5143 197.769Q98.7663 197.768 99.0178 197.783Q99.2693 197.799 99.5192 197.831Q99.7692 197.863 100.016 197.912Q100.264 197.96 100.507 198.025Q100.751 198.09 100.989 198.171Q101.228 198.251 101.461 198.348Q101.694 198.444 101.92 198.555Q102.146 198.667 102.364 198.793Q102.582 198.919 102.792 199.059Q103.001 199.2 103.201 199.353Q103.4 199.507 103.589 199.674Q103.778 199.84 103.956 200.019Q104.134 200.198 104.299 200.388Q104.464 200.578 104.617 200.779Q104.77 200.979 104.909 201.189Q105.048 201.4 105.172 201.619Q105.297 201.837 105.407 202.064Q105.517 202.291 105.612 202.524Q105.707 202.758 105.786 202.997Q105.866 203.236 105.929 203.48Q105.992 203.724 106.039 203.972Q106.087 204.219 106.117 204.469Q106.148 204.719 106.162 204.971Q106.176 205.223 106.173 205.475Q106.171 205.727 106.152 205.978Q106.132 206.229 106.097 206.479Q106.061 206.728 106.009 206.975Q105.957 207.221 105.888 207.464Q105.82 207.706 105.736 207.944Q105.652 208.182 105.552 208.413Q105.453 208.644 105.338 208.869Q105.223 209.093 105.094 209.31Q104.965 209.526 104.822 209.733Q104.679 209.94 104.522 210.138Q104.365 210.335 104.196 210.522Q104.027 210.709 103.846 210.884Q103.664 211.059 103.472 211.221Q103.28 211.384 103.077 211.534Q102.874 211.684 102.662 211.82Q102.45 211.956 102.229 212.077Q102.009 212.199 101.781 212.306Q101.552 212.413 101.318 212.504Q101.083 212.596 100.843 212.672Q100.602 212.748 100.358 212.808Q100.113 212.867 99.8646 212.911Q99.6818 212.943 99.4977 212.966Q99.3136 212.989 99.1285 213.004Q98.9435 213.018 98.758 213.023Q98.5724 213.028 98.3869 213.024Q98.2014 213.021 98.0162 213.008Q97.8311 212.995 97.6468 212.973Q97.4625 212.951 97.2795 212.92Q97.0965 212.889 96.9152 212.85Q96.7339 212.81 96.5547 212.762Q96.3756 212.713 96.199 212.656Q96.0224 212.599 95.8488 212.534Q95.6752 212.468 95.505 212.394Q95.3348 212.32 95.1684 212.238Q95.002 212.156 94.8397 212.066Q94.6775 211.975 94.5199 211.878Q94.3622 211.78 94.2095 211.674Q94.0568 211.569 93.9094 211.456Q93.7621 211.343 93.6203 211.223Q93.4786 211.104 93.3429 210.977Q93.2071 210.85 93.0777 210.717Q92.9483 210.584 92.8255 210.445Q92.7027 210.306 92.5868 210.161Q92.4709 210.016 92.3622 209.866Q92.2535 209.715 92.1522 209.56Q92.051 209.404 91.9574 209.244Q91.8638 209.084 91.7782 208.919Q91.6925 208.755 91.6149 208.586Q91.5373 208.417 91.4681 208.245Q91.3988 208.073 91.338 207.898Q91.2771 207.722 91.2249 207.544Q91.1727 207.366 91.1292 207.186Q91.0857 207.005 91.051 206.823Q91.0163 206.641 90.9906 206.457Q90.9648 206.273 90.948 206.088Q90.9311 205.903 90.9233 205.718Q90.9155 205.533 90.9167 205.347Q90.918 205.161 90.9282 204.976Q90.9384 204.791 90.9577 204.606Q90.9769 204.422 91.0051 204.238Q91.0333 204.055 91.0704 203.873Q91.1075 203.691 91.1533 203.511Q91.1992 203.332 91.2538 203.154Q91.3083 202.977 91.3715 202.802Q91.4346 202.628 91.5061 202.457Q91.5777 202.285 91.6575 202.118Q91.7373 201.95 91.8251 201.787Q91.9129 201.623 92.0086 201.464Q92.1043 201.305 92.2076 201.151Q92.3109 200.997 92.4215 200.848Q92.5322 200.699 92.65 200.555Q92.7678 200.412 92.8924 200.275Q93.017 200.137 93.1482 200.006Q93.2794 199.874 93.4167 199.75Q93.5541 199.625 93.6974 199.507Q93.8407 199.389 93.9896 199.278Q94.1384 199.167 94.2925 199.064Q94.4466 198.96 94.6055 198.865Q94.7644 198.769 94.9278 198.681Q95.0912 198.593 95.2587 198.513Q95.4262 198.433 95.5973 198.361Q95.7685 198.289 95.9429 198.226Q96.1174 198.163 96.2947 198.108Q96.472 198.053 96.6518 198.007Q96.8316 197.961 97.0134 197.924ZM94.8772 205.574C95.8493 207.971 96.9248 209.548 99.712 209.136C104.015 206.745 102.867 201.9 97.7965 201.463C95.9307 202.381 95.4231 203.721 94.8772 205.574Z"/>
	<path fill="#DDDDDD" transform="scale(2 2)" d="M438.26 404.435C438.776 404.433 463.848 403.077 454.484 408.972C451.961 409.19 440.59 409.281 438.529 408.811C436.028 408.24 436.11 405.328 438.26 404.435Z"/>
	<path fill="#DDD" transform="scale(2 2)" d="M59.0829 404.435C61.8578 404.44 70.6092 403.963 72.7432 404.624C75.8524 405.588 76.1124 408.363 72.5628 408.972C70.532 409.132 52.9607 410.904 56.6085 405.191C57.3911 404.645 58.1548 404.576 59.0829 404.435Z"/>
	<path fill="#DDDDDD" transform="scale(2 2)" d="M348.855 433.224C351.872 433.197 359.84 432.148 362.11 434.493C362.556 435.966 361.988 436.838 360.659 437.508C357.395 437.549 354.112 437.687 350.849 437.642C347.836 437.601 345.389 435.326 348.855 433.224Z"/>
	<path fill="#EEEEEE" transform="scale(2 2)" d="M255.482 158.378C259.921 159.128 258.305 171.388 256.219 173.058C252.679 172.519 253.684 160.196 255.482 158.378Z"/>
	<path fill="#EEEEEE" transform="scale(2 2)" d="M408.313 265.284C412.485 264.732 419.81 266.145 413.474 270.009C407.23 270.311 403.938 266.393 408.313 265.284Z"/>
	<path fill="#DDDDDD" transform="scale(2 2)" d="M420.851 265.284C422.878 265.177 432.199 264.055 428.498 268.747C425.446 269.666 419.049 270.461 420.851 265.284Z"/>
	<path fill="#DDDDDD" transform="scale(2 2)" d="M416.191 270.009C420.564 269.896 420.059 276.8 418.145 279.244C414.148 278.47 413.99 272.74 416.191 270.009Z"/>
	<path fill="#DDDDDD" transform="scale(2 2)" d="M416.191 255.25C420.466 254.946 419.648 262.004 418.145 264.157C414.35 263.366 413.97 257.848 416.191 255.25Z"/>
</svg>