<svg xmlns="http://www.w3.org/2000/svg" xmlns:xlink="http://www.w3.org/1999/xlink" viewBox="83.81 168.44 857.15 685.06">
	<defs>
		<linearGradient id="gradient_0" gradientUnits="userSpaceOnUse" x1="137.27632" y1="256.43259" x2="429.45892" y2="170.15263">
			<stop offset="0" stop-color="#EEEEEE"/>
			<stop offset="1" stop-color="#CCCCCC"/>
		</linearGradient>
	</defs>
	<path fill="url(#gradient_0)" transform="scale(2 2)" d="M116.373 84.3614C121.706 84.057 127.161 84.3713 132.511 84.3762L381.782 84.3653C391.866 84.3648 407.417 81.9565 407.732 96.6802C407.942 106.51 407.757 116.384 407.76 126.218C407.763 134.763 410.374 145.806 401.705 150.962C408.071 155.566 407.785 160.795 407.765 167.819L407.746 339.813C407.747 342.488 409.277 354.853 405.342 355.492C402.253 355.993 403.575 339.418 403.572 336.695L403.558 196.738C403.561 190.774 404.161 162.459 403.055 158.917C400.633 151.16 388.921 152.892 382.731 152.896L295.5 152.912C295.491 161.602 295.12 170.449 295.5 179.123C300.11 178.86 304.654 179.07 309.263 179.113L360.147 179.134C379.701 179.13 376.756 174.932 376.758 194.122L376.754 283.364C376.758 286.147 377.82 292.185 374.853 293.799C371.421 294.005 372.616 283.683 372.615 281.658L372.627 209.816C372.629 200.921 372.972 191.877 372.623 182.996L321.432 183.001C312.793 183.002 304.135 183.139 295.5 182.996C295.598 193.855 294.568 197.697 283.018 197.736C283.104 210.943 286.675 213.496 274.882 213.233C274.889 217.945 275.485 235.745 274.471 239.052C272.717 240.176 269.794 239.573 267.787 239.67C267.773 243.014 269.046 262.063 265.929 262.076C262.24 262.091 263.893 243.202 263.902 239.67L248.264 239.67L248.249 253.53C248.248 255.514 249.042 260.793 247.331 262.287C242.209 266.762 244.178 243.284 244.158 239.67C242.403 239.737 239.2 240.232 237.717 239.283C236.523 236.357 237.136 217.864 237.14 213.233C225.323 213.427 228.742 211.411 228.802 197.736C218.299 197.615 215.096 194.777 215.332 183.955L215.357 182.996C210.098 183.436 204.577 183.001 199.281 182.993L147.763 183.026C145.28 183.045 142.142 183.532 139.752 182.996C139.616 182.479 136.51 180.853 136.351 183.966L136.335 184.338C136.202 182.879 135.983 181.43 135.776 179.98C137.448 178.263 142.129 179.128 144.356 179.127L196.087 179.121C202.503 179.124 208.946 179.314 215.357 179.123L215.357 152.912L118.809 152.912C119.68 152.666 120.581 152.723 121.477 152.703C115.971 153.029 115.826 151.821 110.864 154.62C109.635 153.45 108.942 154.592 107.649 155.214C107.513 154.41 108.038 153.72 108.201 152.912C103.198 158.149 105.817 161.642 104.186 166.652C103.755 159.465 104.131 154.756 110.913 150.962C100.206 144.959 104.167 125.639 104.173 114.135C104.178 103.402 100.372 84.5483 116.373 84.3614ZM110.913 89.9986C107.619 94.1479 108.201 97.5565 108.198 102.608L108.184 132.161C108.048 150.941 110.537 148.879 128.11 148.925L186.334 148.93C195.997 148.929 205.7 149.097 215.357 148.925C215.312 144.616 215.379 140.303 215.357 135.992C215.294 123.258 214.034 115.349 229.373 115.064C242.052 114.828 254.77 115.021 267.453 115.023L279.846 115.029C295.279 115.042 295.53 118.316 295.525 133.162L295.5 148.925L382.736 148.938C399.727 148.947 403.73 151.509 403.588 132.034L403.61 103.066C403.837 86.8573 399.665 88.4453 386.513 88.4441L136.844 88.4555L124.046 88.4432C119.744 88.4289 114.777 87.7225 110.913 89.9986ZM232.747 197.736L232.747 208.888L262.499 208.896C267.96 208.9 273.614 209.235 279.051 208.888L279.051 197.736L232.747 197.736ZM271.017 213.233L241.226 213.233L241.226 235.513L271.017 235.513L271.017 213.233ZM285.813 193.529C286.831 193.568 287.829 193.583 288.847 193.529C293.341 188.962 291.344 177.056 291.345 170.561L291.331 128.445C291.311 125.649 291.638 122.383 289.396 120.283C286.756 117.812 268.78 118.99 264.671 118.989L226.457 119.002L223.054 119.002C219.891 122.185 219.603 124.341 219.616 128.68L219.692 168.596C219.687 174.53 219.197 182.616 219.713 188.319C220.497 196.987 237.535 193.532 244.848 193.53L285.813 193.529Z"/>
	<path fill="#EEEEEE" transform="scale(2 2)" d="M138.608 107.369C145.213 106.78 145.941 108.933 147.016 115.035C149.101 115.491 151.519 115.39 153.345 116.628C155.824 118.308 155.362 124.059 153.768 126.073C152.323 127.898 148.165 127.712 146.003 127.903C146.038 131.012 146.546 133.416 143.236 134.721C137.105 135.013 134.896 134.438 134.189 127.903C131.167 127.671 127.313 127.824 126.578 124.128C125.146 116.927 128.12 116.096 134.189 115.035C134.688 111.25 134.31 108.359 138.608 107.369ZM138.608 111.538C137.628 118.468 137.527 119.425 130.301 119.002C130.291 120.514 130.229 122.051 130.301 123.56C142.752 124.626 136.129 127.255 138.876 130.584L139.752 130.663C144.718 130.459 140.507 125.247 145.145 124.001C147.048 123.489 149.147 123.853 151.102 123.56C151.15 122.034 151.196 120.527 151.102 119.002C137.805 119.879 145.067 113.59 141.87 111.518L141.715 111.538L138.608 111.538Z"/>
	<path fill="#EEEEEE" transform="scale(2 2)" d="M110.913 150.962C100.206 144.959 104.167 125.639 104.173 114.135C104.178 103.402 100.372 84.5483 116.373 84.3614C117.165 84.4455 118.897 84.4027 119.545 84.7495L119.258 84.8359C116.827 85.5908 116.692 87.2961 114.822 88.2857L114.73 88.4555C115.858 87.7918 118.156 87.8675 119.448 87.8573C118.359 87.3822 118.498 87.3024 119.819 87.1125C127.668 90.4177 133.068 87.0204 138.611 88.096C138.021 88.2029 137.419 88.2847 136.844 88.4555L124.046 88.4432C119.744 88.4289 114.777 87.7225 110.913 89.9986C107.619 94.1479 108.201 97.5565 108.198 102.608L108.184 132.161C108.048 150.941 110.537 148.879 128.11 148.925C131.655 149.773 135.414 149.366 139.022 149.351L138.928 149.35L139.532 149.389C132.935 149.75 116.307 150.485 111.155 147.929C109.77 149.58 111.091 151.146 108.927 152.461L108.201 152.912C103.198 158.149 105.817 161.642 104.186 166.652C103.755 159.465 104.131 154.756 110.913 150.962Z"/>
	<path fill="#CCCCCC" transform="scale(2 2)" d="M274.882 129.491C276.032 129.458 282.86 129.209 280.21 132.462C278.668 134.355 268.75 133.649 266.063 133.627C264.077 133.672 258.524 134.214 260.191 130.611C262.534 128.654 271.58 129.471 274.882 129.491Z"/>
	<defs>
		<linearGradient id="gradient_1" gradientUnits="userSpaceOnUse" x1="27.154474" y1="319.94781" x2="349.8819" y2="272.57986">
			<stop offset="0" stop-color="#FFFFFF"/>
			<stop offset="1" stop-color="#DDDDDD"/>
		</linearGradient>
	</defs>
	<path fill="url(#gradient_1)" transform="scale(2 2)" d="M108.201 152.912C108.038 153.72 107.513 154.41 107.649 155.214C108.942 154.592 109.635 153.45 110.864 154.62C115.826 151.821 115.971 153.029 121.477 152.703C120.581 152.723 119.68 152.666 118.809 152.912C105.874 153.874 108.178 162.675 108.184 172.255L108.197 371.527C108.193 376.25 107.977 380.906 108.201 385.634C115.842 378.169 126.045 381.091 135.776 380.655L135.766 346.745C135.765 341.099 135.597 335.395 135.776 329.756L375.596 329.652C375.957 329.654 376.227 329.775 376.539 329.938L376.747 330.5C377.307 334.625 376.714 340.654 376.718 344.992L376.747 380.655C387.26 381.267 394.918 378.112 403.561 385.634L403.556 373.03C403.547 370.821 402.74 366.927 404.74 365.283C409.312 361.526 407.767 381.861 407.766 384.155C407.763 396.9 411.069 412.623 402.643 422.305C412.31 422.151 427.08 421.461 436.507 422.299C438.372 422.465 438.948 424.565 437.202 425.557C433.76 427.515 420.563 426.475 416.362 426.471L371.804 426.503C369.327 426.516 366.571 426.779 364.121 426.486C361.336 426.752 358.319 426.511 355.512 426.506L96.0802 426.484C90.8641 426.484 44.5824 427.041 42.8214 425.918C40.8785 424.678 42.358 422.408 44.2242 422.306C50.888 421.939 57.7795 422.305 64.4645 422.304L109.094 422.305L108.435 421.607C103.054 415.821 104.178 411.298 104.177 403.937L104.179 184.65C104.168 178.668 103.981 172.629 104.186 166.652C105.817 161.642 103.198 158.149 108.201 152.912ZM382.91 422.305C394.764 422.218 403.407 423.064 403.555 408.504C403.736 390.663 404.448 384.727 384.943 384.73L322.104 384.736L139.918 384.73C133.251 384.731 124.648 384.282 118.242 384.845C105.266 385.984 107.925 401.804 108.146 411.261C108.413 422.7 118.974 422.33 127.636 422.316L364.5 422.403C370.63 422.401 376.781 422.139 382.91 422.305ZM139.752 333.87L139.752 380.655L320.951 380.651C329.016 380.647 337.099 380.511 345.161 380.655C354.256 380.281 363.509 380.685 372.623 380.655L372.623 333.87C370.917 333.822 369.202 333.865 367.496 333.87L139.752 333.87Z"/>
	<path fill="#EEEEEE" transform="scale(2 2)" d="M155.983 348.381Q156.153 348.343 156.324 348.312Q156.495 348.282 156.668 348.261Q156.84 348.239 157.014 348.226Q157.187 348.213 157.361 348.208Q157.535 348.203 157.708 348.207Q157.882 348.211 158.056 348.224Q158.229 348.236 158.402 348.257Q158.574 348.278 158.746 348.307Q158.917 348.336 159.087 348.374Q159.257 348.412 159.424 348.458Q159.592 348.504 159.757 348.558Q159.923 348.612 160.085 348.674Q160.247 348.737 160.407 348.807Q160.566 348.877 160.721 348.955Q160.877 349.033 161.028 349.118Q161.18 349.203 161.327 349.296Q161.474 349.389 161.616 349.489Q161.759 349.589 161.896 349.695Q162.033 349.802 162.165 349.915Q162.297 350.028 162.423 350.148Q162.55 350.268 162.67 350.393Q162.79 350.519 162.904 350.651Q163.018 350.782 163.125 350.919Q163.232 351.056 163.333 351.198Q163.433 351.34 163.526 351.486Q163.62 351.633 163.706 351.784Q163.792 351.935 163.87 352.09Q163.949 352.246 164.02 352.404Q164.09 352.563 164.153 352.725Q164.216 352.887 164.271 353.052Q164.326 353.217 164.373 353.385Q164.42 353.552 164.458 353.722Q164.496 353.892 164.527 354.063Q164.557 354.234 164.578 354.407Q164.6 354.579 164.613 354.753Q164.626 354.926 164.631 355.1Q164.635 355.274 164.631 355.448Q164.628 355.621 164.615 355.795Q164.603 355.968 164.582 356.141Q164.561 356.314 164.531 356.485Q164.502 356.656 164.464 356.826Q164.426 356.996 164.38 357.164Q164.334 357.331 164.28 357.496Q164.226 357.662 164.164 357.824Q164.101 357.986 164.031 358.146Q163.961 358.305 163.883 358.46Q163.805 358.616 163.72 358.767Q163.634 358.919 163.542 359.066Q163.449 359.213 163.349 359.355Q163.249 359.498 163.143 359.635Q163.036 359.772 162.923 359.904Q162.809 360.036 162.69 360.162Q162.57 360.288 162.444 360.408Q162.318 360.529 162.187 360.642Q162.055 360.756 161.919 360.864Q161.782 360.971 161.64 361.071Q161.498 361.172 161.351 361.265Q161.204 361.358 161.053 361.444Q160.902 361.53 160.747 361.609Q160.592 361.687 160.433 361.758Q160.274 361.829 160.112 361.892Q159.95 361.954 159.785 362.009Q159.62 362.064 159.452 362.111Q159.285 362.158 159.115 362.196Q158.945 362.234 158.774 362.264Q158.603 362.294 158.431 362.316Q158.258 362.338 158.085 362.351Q157.911 362.364 157.738 362.369Q157.564 362.373 157.39 362.369Q157.216 362.365 157.043 362.353Q156.869 362.34 156.697 362.319Q156.524 362.298 156.353 362.269Q156.182 362.24 156.012 362.202Q155.842 362.164 155.675 362.118Q155.507 362.072 155.342 362.018Q155.177 361.964 155.014 361.901Q154.852 361.839 154.693 361.769Q154.534 361.699 154.378 361.621Q154.223 361.543 154.072 361.458Q153.92 361.372 153.773 361.28Q153.626 361.187 153.484 361.087Q153.341 360.987 153.204 360.881Q153.067 360.774 152.935 360.661Q152.803 360.547 152.677 360.428Q152.551 360.308 152.431 360.183Q152.311 360.057 152.197 359.926Q152.083 359.794 151.976 359.657Q151.869 359.521 151.768 359.379Q151.668 359.237 151.574 359.09Q151.481 358.943 151.395 358.792Q151.309 358.641 151.231 358.486Q151.152 358.331 151.081 358.172Q151.011 358.013 150.948 357.851Q150.885 357.689 150.83 357.524Q150.775 357.359 150.728 357.192Q150.681 357.025 150.643 356.855Q150.605 356.685 150.574 356.514Q150.544 356.343 150.523 356.17Q150.501 355.998 150.488 355.825Q150.475 355.651 150.47 355.477Q150.465 355.304 150.469 355.13Q150.473 354.956 150.486 354.783Q150.498 354.609 150.519 354.437Q150.54 354.264 150.569 354.093Q150.599 353.921 150.636 353.752Q150.674 353.582 150.72 353.414Q150.766 353.247 150.82 353.081Q150.874 352.916 150.937 352.754Q150.999 352.591 151.069 352.432Q151.139 352.273 151.217 352.118Q151.295 351.962 151.38 351.811Q151.465 351.659 151.558 351.512Q151.651 351.365 151.751 351.223Q151.85 351.08 151.957 350.943Q152.064 350.806 152.177 350.674Q152.29 350.542 152.41 350.416Q152.53 350.29 152.655 350.169Q152.781 350.049 152.912 349.935Q153.044 349.822 153.18 349.714Q153.317 349.607 153.459 349.507Q153.601 349.406 153.748 349.313Q153.895 349.219 154.046 349.133Q154.197 349.047 154.352 348.969Q154.507 348.89 154.666 348.82Q154.824 348.749 154.987 348.686Q155.149 348.623 155.314 348.568Q155.479 348.513 155.646 348.466Q155.813 348.419 155.983 348.381ZM158.647 358.226Q158.79 358.173 158.927 358.107Q159.065 358.04 159.195 357.961Q159.325 357.882 159.447 357.79Q159.569 357.698 159.681 357.595Q159.794 357.492 159.896 357.379Q159.998 357.266 160.088 357.143Q160.179 357.02 160.257 356.889Q160.335 356.759 160.4 356.621Q160.466 356.483 160.517 356.339Q160.569 356.196 160.606 356.048Q160.644 355.9 160.667 355.75Q160.69 355.599 160.698 355.447Q160.706 355.294 160.7 355.142Q160.694 354.99 160.672 354.839Q160.651 354.688 160.616 354.539Q160.58 354.391 160.53 354.247Q160.48 354.103 160.417 353.964Q160.353 353.826 160.276 353.694Q160.2 353.562 160.111 353.438Q160.022 353.314 159.921 353.2Q159.821 353.085 159.709 352.981Q159.598 352.876 159.477 352.783Q159.357 352.69 159.227 352.609Q159.098 352.528 158.962 352.46Q158.825 352.392 158.683 352.337Q158.54 352.283 158.393 352.242Q158.246 352.202 158.096 352.176Q157.946 352.149 157.794 352.138Q157.642 352.126 157.489 352.13Q157.337 352.133 157.186 352.151Q157.034 352.169 156.885 352.202Q156.736 352.234 156.591 352.281Q156.392 352.345 156.204 352.435Q156.015 352.525 155.84 352.639Q155.665 352.753 155.506 352.889Q155.348 353.025 155.209 353.181Q155.07 353.337 154.952 353.51Q154.835 353.683 154.742 353.87Q154.649 354.057 154.581 354.255Q154.513 354.452 154.472 354.657Q154.431 354.862 154.417 355.07Q154.404 355.279 154.418 355.487Q154.432 355.696 154.474 355.901Q154.515 356.105 154.584 356.303Q154.652 356.5 154.746 356.687Q154.84 356.874 154.957 357.046Q155.075 357.219 155.215 357.375Q155.354 357.53 155.513 357.666Q155.672 357.802 155.847 357.915Q156.023 358.029 156.211 358.118Q156.4 358.208 156.599 358.271Q156.798 358.335 157.004 358.372Q157.21 358.409 157.418 358.418Q157.627 358.427 157.835 358.409Q158.043 358.39 158.247 358.344Q158.451 358.298 158.647 358.226Z"/>
	<path fill="#CCCCCC" transform="scale(2 2)" d="M333.768 358.274C338.328 358.261 356.462 357.713 359.773 358.712C361.95 359.368 361.658 361.943 359.52 362.291L342.197 362.311C338.921 362.329 335.163 362.742 331.955 362.152C329.442 360.16 331.538 358.505 333.768 358.274Z"/>
	<path fill="#CCCCCC" transform="scale(2 2)" d="M332.681 347.541C336.415 347.424 358.904 346.667 360.827 348.494C361.359 349.969 360.936 350.701 359.52 351.279C355.335 351.487 328.765 353.187 331.284 348.456C331.62 347.825 332.052 347.778 332.681 347.541Z"/>
	<path fill="#CCCCCC" transform="scale(2 2)" d="M367.496 333.87C365.981 332.462 357.564 333.884 354.614 332.154C354.099 331.428 353.931 330.888 354.921 330.573C356.225 330.157 375.379 330.12 376.329 330.697L376.747 330.5C377.307 334.625 376.714 340.654 376.718 344.992L376.747 380.655C387.26 381.267 394.918 378.112 403.561 385.634L403.556 373.03C403.547 370.821 402.74 366.927 404.74 365.283C409.312 361.526 407.767 381.861 407.766 384.155C407.763 396.9 411.069 412.623 402.643 422.305C412.31 422.151 427.08 421.461 436.507 422.299C438.372 422.465 438.948 424.565 437.202 425.557C433.76 427.515 420.563 426.475 416.362 426.471L371.804 426.503C369.327 426.516 366.571 426.779 364.121 426.486C362.206 425.655 358.836 426.321 356.726 426.486C359.718 425.323 362.34 426.389 359.305 423.175C366.809 421.545 375.513 424.663 382.91 422.305C394.764 422.218 403.407 423.064 403.555 408.504C403.736 390.663 404.448 384.727 384.943 384.73L322.104 384.736C325.908 383.605 338.188 385.593 340.046 382.945L340.17 383.105L339.919 383.464C339.919 382.376 339.104 382.703 338.459 381.939C340.181 380.754 343.457 382.016 345.161 380.655C354.256 380.281 363.509 380.685 372.623 380.655L372.623 333.87C370.917 333.822 369.202 333.865 367.496 333.87Z"/>
	<path fill="#EEEEEE" transform="scale(2 2)" d="M135.776 179.98C135.983 181.43 136.202 182.879 136.335 184.338L136.351 183.966C136.51 180.853 139.616 182.479 139.752 182.996C139.461 183.587 139.772 281.096 139.747 291.386C139.737 295.476 141.419 314.535 137.992 316.197C134.526 315.634 135.766 306.263 135.775 303.809L135.766 189.666C135.753 186.543 135.311 183.04 135.776 179.98Z"/>
	<path fill="#EEEEEE" transform="scale(2 2)" d="M266.063 282.249C276.06 281.572 285.313 282.91 289.366 293.396C290.68 296.794 291.359 301.746 289.775 305.177C284.418 316.783 277.544 316.801 265.966 316.788L248.924 316.76C233.724 316.737 239.121 317.567 226.457 322.179C220.763 322.447 226.351 317.8 228.946 316.423C235.379 313.009 238.879 312.817 246.09 312.822L262.781 312.84C267.006 312.852 271.602 313.216 275.758 312.393C292.841 309.012 286.355 287.483 277.12 286.815C275.515 286.698 257.245 286.704 266.063 282.249Z"/>
	<path fill="#EEEEEE" transform="scale(2 2)" d="M208.308 297.266L264.239 297.28C266.255 297.261 275.764 296.191 276.024 299.167C274.032 303.233 266.089 301.369 262.438 301.351L216.613 301.344C213.286 301.344 190.324 303.259 195.866 298.16C197.449 296.704 205.817 297.254 208.308 297.266Z"/>
	<path fill="#CCCCCC" transform="scale(2 2)" d="M450.497 422.305C451.777 422.134 476.309 419.691 469.185 426.486C465.821 426.491 451.402 427.146 449.581 425.398C449.135 423.977 448.982 422.982 450.497 422.305Z"/>
	<path fill="#CCCCCC" transform="scale(2 2)" d="M373.556 303.989C379.523 304.227 376.702 316.816 375.634 317.989C370.252 318.063 372.704 304.937 373.556 303.989Z"/>
</svg>