<svg xmlns="http://www.w3.org/2000/svg" xmlns:xlink="http://www.w3.org/1999/xlink" viewBox="135.62 172.44 749.68 732.46">
	<defs>
		<linearGradient id="gradient_0" gradientUnits="userSpaceOnUse" x1="91.456406" y1="93.429825" x2="358.14429" y2="334.70889">
			<stop offset="0" stop-color="#FFFFFF"/>
			<stop offset="1" stop-color="#DDDDDD"/>
		</linearGradient>
	</defs>
	<path fill="url(#gradient_0)" transform="scale(2 2)" d="M102.518 86.7566C111.128 86.4202 119.872 86.7516 128.5 86.7518L247.727 86.7552C253.343 86.7556 283.679 84.5326 284.533 89.1482C285.37 93.6717 273.476 91.9041 271.276 91.8996L120.135 91.921C104.413 91.9191 92.3707 87.6785 95.1078 108.172C96.5836 119.222 117.54 115.737 126.377 115.735L325.412 115.744C330.73 115.745 342.814 116.329 347.418 115.4C358.143 113.234 359.437 96.8056 348.998 92.7787C341.584 89.9186 313.882 93.871 310.932 91.4124C309.91 90.5613 309.842 88.6617 310.781 87.7364C313.172 85.3832 347.43 87.0168 350.762 88.1531C362.161 92.041 364.476 108.106 356.146 116.269C350.029 122.262 342.271 120.784 334.483 120.754L334.483 307.695C341.387 307.839 350.624 305.773 356.074 311.019C361.398 316.144 361.679 332.24 356.812 337.282C352.104 342.16 344.162 341.161 337.999 341.168L267.618 341.161L119.282 341.163C109.35 341.169 92.7628 344.576 92.0157 330.067C90.6896 304.316 97.1498 308.535 118.583 307.695C118.799 301.555 118.593 295.33 118.591 289.181L118.58 249.278C118.58 244.484 115.551 221.348 122.91 224.408C124.707 226.409 123.836 234.953 123.822 237.575L123.815 307.695L329.743 307.695L329.743 120.754L123.815 120.754C123.817 128.83 125.742 169.101 121.624 170.046C116.979 171.112 118.588 153.985 118.586 151.675L118.583 120.754C112.354 120.671 99.9663 122.069 95.07 118.307C86.9129 112.04 84.9591 89.1852 102.518 86.7566ZM99.5492 335.299C105.214 337.548 114.916 336.269 121.059 336.266L154.875 336.258L326.403 336.27C333.379 336.274 340.583 336.633 347.536 336.219C356.061 335.711 355.464 329.131 355.309 322.103C355.08 311.704 349.351 312.688 341.125 312.737L307.934 312.731C304.609 312.715 301.164 312.473 297.852 312.743L128.534 312.739C124.071 312.739 101.875 311.505 98.9049 314.5C95.5076 317.925 96.1539 331.546 99.5492 335.299Z"/>
	<path fill="#EEEEEE" transform="scale(2 2)" d="M129.998 393.013C132.035 365.71 175.333 355.884 183.66 393.013C198.257 393.163 213.941 393.293 228.553 392.996C237.344 392.817 245.594 392.232 254.632 392.252L254.328 392.295C252.486 392.54 250.623 392.576 248.768 392.645L248.892 392.743L248.26 392.705C249.742 392.532 260.929 392.793 262.038 393.031C258.57 394.535 268.516 395.763 270.28 396.143C264.427 398.605 241.73 394.884 238.638 397.24C224.979 399.255 198.733 397.786 183.66 397.786C182.573 403.078 181.152 408.31 177.77 412.628C163.046 431.425 132.759 422.992 129.998 397.786C126.248 397.764 113.623 398.452 111.011 397.501C104.964 390.837 127.828 392.998 129.998 393.013ZM158.868 417.476Q159.403 417.424 159.935 417.345Q160.467 417.267 160.994 417.163Q161.522 417.058 162.043 416.928Q162.565 416.798 163.08 416.642Q163.594 416.487 164.101 416.306Q164.607 416.125 165.104 415.92Q165.601 415.715 166.087 415.485Q166.573 415.256 167.048 415.003Q167.522 414.75 167.984 414.473Q168.445 414.197 168.892 413.899Q169.34 413.601 169.772 413.281Q170.204 412.961 170.62 412.62Q171.035 412.279 171.434 411.918Q171.833 411.557 172.213 411.178Q172.594 410.798 172.955 410.399Q173.316 410.001 173.657 409.586Q173.999 409.17 174.319 408.739Q174.64 408.307 174.939 407.86Q175.238 407.413 175.514 406.952Q175.791 406.491 176.045 406.017Q176.298 405.543 176.529 405.057Q176.759 404.571 176.965 404.075Q177.171 403.578 177.352 403.072Q177.533 402.566 177.69 402.051Q177.846 401.537 177.977 401.015Q178.108 400.494 178.213 399.967Q178.318 399.439 178.397 398.907Q178.476 398.376 178.529 397.841Q178.582 397.305 178.608 396.768Q178.635 396.231 178.635 395.694Q178.635 395.156 178.609 394.619Q178.583 394.082 178.53 393.547Q178.477 393.012 178.399 392.48Q178.32 391.948 178.215 391.421Q178.11 390.894 177.98 390.372Q177.849 389.85 177.693 389.336Q177.537 388.821 177.356 388.315Q177.175 387.809 176.969 387.312Q176.764 386.815 176.534 386.329Q176.304 385.843 176.05 385.369Q175.797 384.895 175.521 384.434Q175.244 383.973 174.946 383.526Q174.647 383.079 174.327 382.647Q174.006 382.215 173.665 381.799Q173.324 381.384 172.963 380.985Q172.602 380.587 172.222 380.207Q171.841 379.827 171.443 379.466Q171.045 379.105 170.629 378.764Q170.213 378.423 169.781 378.103Q169.349 377.782 168.902 377.484Q168.455 377.185 167.994 376.909Q167.533 376.632 167.059 376.379Q166.584 376.126 166.098 375.896Q165.612 375.666 165.115 375.461Q164.619 375.255 164.112 375.074Q163.606 374.893 163.092 374.737Q162.577 374.581 162.056 374.451Q161.534 374.32 161.007 374.216Q160.479 374.111 159.947 374.032Q159.416 373.954 158.88 373.901Q158.345 373.849 157.808 373.823Q157.271 373.796 156.734 373.797Q156.196 373.797 155.659 373.823Q155.122 373.85 154.587 373.903Q154.052 373.956 153.521 374.035Q152.99 374.114 152.463 374.219Q151.936 374.324 151.415 374.455Q150.894 374.586 150.38 374.742Q149.866 374.898 149.361 375.079Q148.855 375.26 148.359 375.466Q147.863 375.672 147.377 375.902Q146.892 376.131 146.418 376.385Q145.944 376.638 145.484 376.914Q145.023 377.191 144.576 377.489Q144.13 377.788 143.698 378.108Q143.267 378.428 142.852 378.769Q142.437 379.11 142.039 379.471Q141.641 379.831 141.261 380.211Q140.881 380.591 140.521 380.989Q140.16 381.387 139.819 381.803Q139.479 382.218 139.159 382.649Q138.839 383.081 138.54 383.527Q138.242 383.974 137.966 384.435Q137.69 384.896 137.436 385.369Q137.183 385.843 136.954 386.329Q136.724 386.814 136.518 387.311Q136.313 387.807 136.132 388.313Q135.951 388.818 135.795 389.332Q135.639 389.846 135.508 390.367Q135.378 390.889 135.273 391.415Q135.168 391.942 135.089 392.474Q135.01 393.005 134.958 393.539Q134.905 394.074 134.879 394.611Q134.852 395.147 134.852 395.684Q134.852 396.221 134.878 396.758Q134.904 397.294 134.957 397.829Q135.01 398.364 135.088 398.895Q135.167 399.426 135.272 399.953Q135.376 400.48 135.507 401.001Q135.637 401.522 135.793 402.036Q135.948 402.55 136.129 403.056Q136.31 403.562 136.515 404.058Q136.721 404.555 136.95 405.04Q137.18 405.526 137.433 406Q137.686 406.473 137.962 406.934Q138.238 407.395 138.536 407.842Q138.834 408.289 139.154 408.72Q139.474 409.152 139.814 409.567Q140.155 409.983 140.515 410.381Q140.876 410.779 141.255 411.159Q141.635 411.539 142.033 411.9Q142.431 412.261 142.846 412.602Q143.261 412.943 143.692 413.263Q144.123 413.583 144.57 413.882Q145.016 414.181 145.477 414.457Q145.937 414.734 146.411 414.987Q146.884 415.241 147.37 415.471Q147.855 415.701 148.351 415.907Q148.847 416.113 149.353 416.294Q149.858 416.475 150.372 416.632Q150.886 416.788 151.407 416.919Q151.928 417.05 152.455 417.155Q152.982 417.26 153.513 417.34Q154.044 417.419 154.579 417.472Q155.113 417.525 155.65 417.552Q156.186 417.579 156.723 417.579Q157.26 417.58 157.797 417.554Q158.333 417.528 158.868 417.476Z"/>
	<defs>
		<linearGradient id="gradient_1" gradientUnits="userSpaceOnUse" x1="272.83908" y1="294.72736" x2="430.17755" y2="313.63412">
			<stop offset="0" stop-color="#EEEEEE"/>
			<stop offset="1" stop-color="#DDDDDD"/>
		</linearGradient>
	</defs>
	<path fill="url(#gradient_1)" transform="scale(2 2)" d="M254.632 392.252C262.012 392.256 269.415 392.374 276.793 392.25L349.504 391.239C365.746 391.237 379.11 391.208 391.554 378.872C402.116 368.401 403.598 357.885 403.594 343.752L403.576 273.015C403.527 242.354 410.167 242.151 429.382 222.706C431.601 220.459 437.575 212.716 440.693 212.597C445.719 214.777 439.706 219.05 437.745 221.031L421.908 236.847C406.096 252.722 408.474 255.16 408.508 276.81L408.519 342.282C408.527 358.379 407.466 369.164 395.766 381.446C377.124 401.016 348.085 395.28 323.098 395.887L272.49 396.969C261.248 397.188 249.877 397.613 238.638 397.24C241.73 394.884 264.427 398.605 270.28 396.143C268.516 395.763 258.57 394.535 262.038 393.031C260.929 392.793 249.742 392.532 248.26 392.705L248.892 392.743L248.768 392.645C250.623 392.576 252.486 392.54 254.328 392.295L254.632 392.252Z"/>
	<path fill="#FFFFFF" transform="scale(2 2)" d="M152.591 212.837C156.876 212.595 161.306 212.817 165.602 212.82L282.83 212.83C283.35 212.83 311.664 211.091 301.221 218.061C298.695 218.668 295.95 218.118 293.381 218.087L161.875 218.087C160.12 218.089 145.17 218.563 152.591 212.837Z"/>
	<path fill="#FFFFFF" transform="scale(2 2)" d="M152.591 147.98C157.967 147.551 163.739 147.965 169.147 147.972L298.344 147.809C302.463 147.842 304.327 149.955 301.221 153.234C299.212 153.541 297.14 153.277 295.117 153.265L164.087 153.24C162.316 153.238 145.274 154.201 152.591 147.98Z"/>
	<path fill="#FFFFFF" transform="scale(2 2)" d="M152.591 180.753L286.936 180.746C290.627 180.737 296.728 180.259 300.215 180.831C303.197 181.321 303.618 184.446 301.221 185.914C293.258 186.269 285.132 185.917 277.15 185.916L179.006 185.914C175.347 185.914 144.592 189.174 152.591 180.753Z"/>
	<path fill="#EEEEEE" transform="scale(2 2)" d="M152.591 277.233C163.906 276.437 175.603 277.233 186.96 277.233L289.872 277.211C292.738 277.209 298.582 276.743 301.195 277.361C303.86 277.99 302.899 281.121 301.221 282.255L212.035 282.254C193.047 282.254 174.05 282.119 155.067 282.429C151.697 282.484 149.294 279.795 152.591 277.233Z"/>
	<path fill="#EEEEEE" transform="scale(2 2)" d="M152.591 245.246C158.923 245.03 165.344 245.239 171.684 245.239L277.5 245.246C281.254 245.247 299.383 244.806 301.57 245.535C303.965 246.331 303.197 249.467 301.221 250.271L166.775 250.277C162.799 250.281 157.354 250.708 153.622 250.417C150.583 250.179 150.432 246.733 152.591 245.246Z"/>
	<path fill="#EEEEEE" transform="scale(2 2)" d="M185.784 445.359C186.999 445.32 207.869 443.323 201.989 449.187C200.21 450.961 194.921 450.356 192.619 450.438C172.886 451.142 153.014 450.83 133.313 452.006C131.693 451.977 112.818 454.46 117.543 447.974C119.466 446.728 122.536 447.25 124.717 447.171L178.034 445.439C180.619 445.331 183.2 445.505 185.784 445.359Z"/>
	<path fill="#FFFFFF" transform="scale(2 2)" d="M70.9965 393.013C75.116 393.015 96.8591 392.47 98.9544 393.632C101.322 394.945 99.5199 397.543 97.0062 397.786C93.7596 397.921 70.0305 398.141 68.9143 397.384C66.3018 395.61 68.88 393.276 70.9965 393.013Z"/>
	<path fill="#EEEEEE" transform="scale(2 2)" d="M119.925 180.753C126.855 179.679 123.85 198.345 122.207 199.97C114.786 200.244 118.936 181.572 119.925 180.753Z"/>
	<path fill="#EEEEEE" transform="scale(2 2)" d="M222.436 444.761C224.503 444.807 229.085 444.006 230.759 445.247C235.888 449.049 226.169 449.706 224.406 449.742C223.825 449.747 210.187 450.52 214.861 445.93C216.187 444.628 220.606 444.906 222.436 444.761Z"/>
</svg>