<?xml version="1.0" encoding="UTF-8" standalone="no"?>
<svg
   width="768.27631"
   height="576.81293"
   version="1.1"
   id="svg10"
   sodipodi:docname="filament.svg"
   xmlns:inkscape="http://www.inkscape.org/namespaces/inkscape"
   xmlns:sodipodi="http://sodipodi.sourceforge.net/DTD/sodipodi-0.dtd"
   xmlns="http://www.w3.org/2000/svg"
   xmlns:svg="http://www.w3.org/2000/svg">
  <defs
     id="defs14" />
  <sodipodi:namedview
     id="namedview12"
     pagecolor="#ffffff"
     bordercolor="#000000"
     borderopacity="0.25"
     inkscape:showpageshadow="2"
     inkscape:pageopacity="0.0"
     inkscape:pagecheckerboard="0"
     inkscape:deskcolor="#d1d1d1" />
  <path
     fill="#ffffff"
     d="m 34.177933,91.224972 c -29.3739998,-14.634 -46.1254,-48.072 -21.4538,-75.3 10.73,-11.8420002 23.5908,-14.6180002 38.8134,-15.47600021 l 294.364797,0.008 c 18.912,-0.004 39.152,-3.21799999 55.948,7.45800001 32.334,20.5520002 25.662,75.1720002 -12.574,83.3100002 V 279.05497 h 180.434 c 9.624,0.006 19.334,0.256 28.944,-0.256 36.938,-1.97 75.75,-29.046 80.996,-67.392 4.08,-29.824 2.738,-41.374 25.714,-66.786 8.166,-9.032 62.89,-53.269998 62.912,-21.354 0.006,9.836 -11.566,11.95 -18.688,15.21 -34.872,15.962 -43.87,41.618 -48.118,75.936 -3.918,31.638 -27.558,59.028 -55.126,73.616 -24.368,12.894 -44.814,13.034 -71.38,12.934 h -185.688 v 183.976 c 51.03,17.594 43.69,88.158 -10.826,91.28 -18.832,1.08 -38.132,0.24 -57.018,0.238 l -217.586,-0.01 c -19.287997,0.014 -38.921397,0.888 -58.157397,-0.116 -48.2691998,-2.518 -67.5106,-68.06 -11.511,-91.392 z m 37.7824,-68.288 c -12.8034,-0.042 -31.6616,-2.674 -41.3916,6.94 -14.2572,14.088 -3.2964,37.892 15.3608,39.802 10.8958,1.116 22.6152,0.308 33.5928,0.294 l 274.441997,-0.032 c 12.968,0.1 30.572,2.834 40.706,-6.942 14.628,-14.11 2.414,-37.768 -15.956,-39.772 -10.63,-1.158 -22.156,-0.32 -32.86,-0.314 z m -16.2864,69.438 V 484.93897 l 283.274397,-0.008 c 8.046,0.002 20.566,0.92 28.184,0.008 V 92.374972 Z m 64.428397,414.499998 -49.499997,-0.02 c -9.6578,0.002 -20.5254,-1.02 -29.9646,0.992 -27.1774,5.794 -21.8466,43.058 4.509,46.41 8.7642,1.114 18.3372,0.358 27.1836,0.352 l 231.133997,0.002 48.64,0.02 c 9.35,0 20.196,1.104 29.306,-0.958 27.194,-6.158 23.498,-42.986 -3.11,-46.45 -8.68,-1.13 -18.34,-0.362 -27.116,-0.364 z"
     id="path2"
     style="stroke-width:2" />
  <path
     fill="#ffffff"
     d="m 204.85433,195.75497 -48.336,0.022 c -7.984,0.028 -37.188,3.772 -37.182,-9.886 0.006,-17.366 28.114,-12.158 38.832,-12.152 l 58.674,-0.022 50.362,-0.022 c 8.438,-0.002 17.934,-0.826 26.268,0.446 8.552,1.306 13.002,11.926 6.224,18.286 -6.75,6.334 -27.396,3.38 -36.104,3.368 z"
     id="path4"
     style="stroke-width:2" />
  <path
     fill="#ffffff"
     d="m 120.10233,290.27497 c 1.844,-8.708 6.422,-10.674 14.978,-11.22 l 136.146,-0.034 c 7.23,-0.008 14.714,-0.282 21.902,0.56 14.212,1.668 13.926,21.444 -4.488,21.382 l -105.644,-0.002 c -16.858,0.002 -34.062,0.768 -50.884,0.038 -7.824,-0.34 -10.2,-3.002 -12.01,-10.724 z"
     id="path6"
     style="stroke-width:2" />
  <path
     fill="#ffffff"
     d="m 294.21833,404.48497 -122.45,-0.01 c -7.754,0 -39.258,1.012 -43.644,-0.372 -12.15,-3.83 -9.912,-17.154 0.058,-21.696 7.02,-0.564 14.33,-0.028 21.392,-0.022 l 118.24,0.07 c 8.642,0.038 30.364,-3.968 34.18,6.6 2.59,7.17 -0.794,13.146 -7.776,15.43 z"
     id="path8"
     style="stroke-width:2" />
</svg>
