<svg xmlns="http://www.w3.org/2000/svg" xmlns:xlink="http://www.w3.org/1999/xlink" viewBox="134.02 233.62 755.54 554.37">
	<path fill="#DDDDDD" transform="scale(2 2)" d="M203.65 269.845L403.43 269.841C411.743 269.841 420.473 270.442 428.722 269.477C441.057 268.034 439.009 253.133 439.005 244.401L438.994 166.055C438.999 156.591 439.136 147.107 438.988 137.646C438.742 121.998 429.211 122.586 416.339 122.581L129.538 122.57C126.833 122.554 118.477 124.2 118.2 119.805C117.942 115.716 128.072 117.23 130.475 117.226L421.156 117.202C423.678 117.186 426.381 116.989 428.881 117.274C448.245 119.486 444.494 141.904 444.483 155.356L444.476 238.809C444.478 251.675 447.609 273.83 428.755 275.05C425.477 275.263 422.189 274.886 418.907 274.858L220.088 274.849C215.972 274.853 211.708 275.089 207.607 274.841C205.854 275.048 203.901 274.878 202.131 274.872L105.719 274.843C80.8703 274.837 67.3499 278.591 67.3456 247.662L67.3506 210.827C67.3522 208.646 66.1746 194.019 69.8675 194.38C74.9752 194.88 72.4969 231.128 72.4938 239.125C72.4909 246.706 70.335 259.227 76.1484 265.32C82.8331 272.328 107.564 269.838 118.067 269.839L173.9 269.846C183.813 269.841 193.739 269.701 203.65 269.845Z"/>
	<path fill="#EEEEEE" transform="scale(2 2)" d="M207.607 274.841C205.854 275.048 203.901 274.878 202.131 274.872L105.719 274.843C80.8703 274.837 67.3499 278.591 67.3456 247.662L67.3506 210.827C67.3522 208.646 66.1746 194.019 69.8675 194.38C74.9752 194.88 72.4969 231.128 72.4938 239.125C72.4909 246.706 70.335 259.227 76.1484 265.32C82.8331 272.328 107.564 269.838 118.067 269.839L173.9 269.846C183.813 269.841 193.739 269.701 203.65 269.845L204.805 270.051L204.81 270.232C201.039 270.829 193.446 270.283 189.35 270.278L102.149 270.33C95.4495 270.27 84.2403 272.21 78.4765 268.034C76.077 266.295 72.8964 261.206 71.8635 260.646L71.593 261.663C70.1328 262.401 69.5649 259.653 68.4298 260.576L68.4563 261.018L68.8063 260.347L68.435 260.895L68.6287 260.36L68.8336 260.979L68.5257 261.232C75.8042 278.197 88.7047 274.682 104.376 274.716L179.633 274.746C188.458 274.749 198.92 273.546 207.607 274.841Z"/>
	<path fill="#EEEEEE" transform="scale(2 2)" d="M349.898 158.745C360.201 158.009 377.524 157.319 384.859 164.506C393.544 173.014 393.814 186.911 385.193 195.513C378.198 202.493 371.931 201.894 362.812 201.859L352.492 201.859C352.606 205.281 355.534 229.853 348.415 227.64C346.029 225.386 347.021 219.447 347.018 216.476L347.009 176.137C347.011 171.482 344.867 159.126 349.898 158.745ZM379.722 192.534C390.563 184.351 386.647 166.163 372.598 164.334C369.014 163.868 358.441 163.869 354.511 164.241C350.699 164.463 352.46 172.177 352.47 176.258L352.492 196.254C360.003 196.276 373.909 198.499 379.722 192.534Z"/>
	<path fill="#DDDDDD" transform="scale(2 2)" d="M388.106 393.711C385.187 394.01 381.978 393.731 379.026 393.727L198.506 393.719C184.225 393.721 165.827 394.243 163.437 374.928C162.91 370.661 160.743 342.602 165.879 342.744C170.979 342.886 167.512 369.746 168.86 375.619C172.14 389.913 187.381 388.355 198.526 388.337L332.754 388.326C337.494 388.314 342.284 388.122 347.018 388.326L375.428 388.351C377.885 388.356 391.466 386.543 390.971 391.057C390.773 392.866 389.702 393.464 388.106 393.711Z"/>
	<path fill="#CCCCCC" transform="scale(2 2)" d="M347.018 388.326L375.428 388.351C377.885 388.356 391.466 386.543 390.971 391.057C390.773 392.866 389.702 393.464 388.106 393.711C374.526 391.983 352.005 394.009 337.02 393.356C346.463 392.797 378.635 394.657 384.097 392.489L384.374 393.061L384.61 393.11L385.074 392.437C384.91 392.081 382.432 390.786 384.443 389.012L384.311 389.017C378.776 385.951 351.409 391.125 342.695 388.639C344.15 388.586 345.572 388.51 347.018 388.326Z"/>
	<path fill="#DDDDDD" transform="scale(2 2)" d="M336.104 309.135C346.532 307.098 348.827 313.733 341.766 314.133C334.79 314.529 327.638 314.232 320.645 314.232L160.125 314.229C157.707 314.258 150.196 315.665 150.232 311.635C150.272 307.148 169.791 309.138 173.496 309.138L336.104 309.135Z"/>
	<path fill="#EEEEEE" transform="scale(2 2)" d="M243.706 158.745C247.349 158.547 250.508 160.926 247.63 163.615C246.308 164.85 213.629 164.478 208.997 164.241C209.003 172.787 208.841 181.35 208.997 189.893L233.174 189.901C235.855 189.899 245.354 188.229 245.913 192.338C246.564 197.114 237.258 194.797 234.756 194.782L208.997 194.791C209.25 203.619 209.006 212.523 208.997 221.359L218.692 221.359C222.239 221.359 245.667 220.995 247.12 221.483C249.33 222.225 249.428 225.898 247.079 226.464C244.962 226.974 242.114 226.724 239.913 226.729L226.669 226.733C220.004 226.742 212.987 227.202 206.364 226.667C202.019 226.316 203.649 214.789 203.647 211.844L203.644 172.38C203.508 155.736 202.523 158.734 218.822 158.738L243.706 158.745Z"/>
	<path fill="#EEEEEE" transform="scale(2 2)" d="M166.949 158.745C172.38 158.478 170.498 166.407 170.501 170.67L170.508 212.584C170.507 216.718 170.746 221.024 170.438 225.141C170.278 227.282 167.436 228.996 165.938 226.978C164.292 224.76 165.228 216.05 165.242 213.293L165.235 194.791L126.272 194.791L126.272 226.73C120.021 231.275 121.48 219.379 121.489 216.521L121.505 174.196C121.504 171.317 119.983 158.745 123.303 158.655C127.812 158.533 126.249 167.2 126.252 169.929L126.272 189.266L165.235 189.266L165.219 168.994C165.216 165.819 163.855 159.739 166.949 158.745Z"/>
	<path fill="#DDDDDD" transform="scale(2 2)" d="M328.323 348.962L348.796 348.963C351.001 348.948 358.845 347.946 360.423 349.388C367.762 356.089 344.38 354.139 343.973 354.139L232.998 354.136L213.256 354.147C209.335 354.149 202.712 355.191 199.165 353.131C196.192 347.003 207.73 348.962 210.615 348.962L328.323 348.962Z"/>
	<defs>
		<linearGradient id="gradient_0" gradientUnits="userSpaceOnUse" x1="276.08453" y1="191.83733" x2="319.04126" y2="196.86186">
			<stop offset="0" stop-color="#EEEEEE"/>
			<stop offset="1" stop-color="#DDDDDD"/>
		</linearGradient>
	</defs>
	<path fill="url(#gradient_0)" transform="scale(2 2)" d="M281.214 158.745C287.243 158.408 284.523 176.282 284.524 181.274L284.518 221.359C289.782 221.054 312.752 220.725 315.554 222.312C317.893 223.638 316.336 226.339 314.231 226.73C309.116 227.194 283.603 227.247 279.982 226.524C278.004 223.185 279.243 192.65 279.244 186.842L279.291 167.577C279.304 164.844 277.993 160.007 281.214 158.745Z"/>
	<path fill="#EEEEEE" transform="scale(2 2)" d="M83.3044 117.221C84.3259 117.221 114.003 114.674 105.322 122.254C101.876 125.263 76.7704 116.646 73.0775 131.592C72.0053 135.931 72.4826 141.01 72.483 145.458L72.4988 164.241C72.4865 167.397 74.0761 182.414 70.5139 183.352C65.4285 184.691 67.379 165.623 67.3745 163.049L67.348 144.691C67.3433 132.306 67.2938 119.952 83.3044 117.221Z"/>
	<defs>
		<linearGradient id="gradient_1" gradientUnits="userSpaceOnUse" x1="113.54591" y1="322.26672" x2="146.10396" y2="316.68607">
			<stop offset="0" stop-color="#EEEEEE"/>
			<stop offset="1" stop-color="#DDDDDD"/>
		</linearGradient>
	</defs>
	<path fill="url(#gradient_1)" transform="scale(2 2)" d="M115.563 289.537C121.286 289.296 119.482 295.046 119.476 299.791L119.436 318.419C119.425 325.608 118.517 332.949 123.815 338.652C132.362 347.853 160.31 339.872 149.723 348.962C136.107 349.714 119.096 349.717 115.035 333.177C114.083 329.304 112.859 291.769 115.563 289.537Z"/>
	<path fill="#CCCCCC" transform="scale(2 2)" d="M405.59 388.326C408.848 388.08 439.295 388.137 440.439 388.535C443.332 389.543 442.063 392.836 439.834 393.711C434.814 393.966 409.579 394.285 406.237 393.481C402.946 392.689 402.308 389.465 405.59 388.326Z"/>
	<path fill="#CCCCCC" transform="scale(2 2)" d="M396.674 337.675C399.048 337.93 416.286 353.977 419.225 357.509C420.691 359.271 419.17 360.572 417.726 361.733C413.798 361.067 406.46 352.755 403.354 349.912C399.658 346.528 390.928 341.692 396.674 337.675Z"/>
	<path fill="#CCCCCC" transform="scale(2 2)" d="M378.252 313.232C384.926 313.034 381.357 328.796 379.722 329.923C373.702 330.141 375.453 315.155 378.252 313.232Z"/>
	<path fill="#CCCCCC" transform="scale(2 2)" d="M378.252 286.229C384.609 286.122 381.987 299.712 379.722 300.885C374.517 301.318 374.73 288.842 378.252 286.229Z"/>
</svg>