<?xml version="1.0" encoding="UTF-8" standalone="no"?>
<svg
   width="764.76758"
   height="579.07806"
   version="1.1"
   id="svg12"
   sodipodi:docname="help.svg"
   xmlns:inkscape="http://www.inkscape.org/namespaces/inkscape"
   xmlns:sodipodi="http://sodipodi.sourceforge.net/DTD/sodipodi-0.dtd"
   xmlns="http://www.w3.org/2000/svg"
   xmlns:svg="http://www.w3.org/2000/svg">
  <defs
     id="defs16" />
  <sodipodi:namedview
     id="namedview14"
     pagecolor="#ffffff"
     bordercolor="#000000"
     borderopacity="0.25"
     inkscape:showpageshadow="2"
     inkscape:pageopacity="0.0"
     inkscape:pagecheckerboard="0"
     inkscape:deskcolor="#d1d1d1" />
  <path
     fill="#ffffff"
     d="m 333.0296,448.22415 -250.138,0.02 c -25.8782,0.004 -45.524,1.772 -65.592,-18.006 C 4.5314,417.65415 0.0752,402.32215 0,384.72215 L 0.0832,94.492149 c 0.0028,-27.604 -2.2826,-53.882 19.0148,-75.164 C 34.9054,3.5321486 51.4764,0.0901486 73.0496,0.0641486 l 608.236,-0.026 c 9.578,-0.004 19.358,-0.326 28.866,0.974 31.282,4.278 54.346,33.4520004 54.616,64.4040004 l -0.056,289.220001 c 0.056,37.122 0.574,79.806 -46.43,91.186 -17.12,4.146 -45.38,2.406 -63.666,2.406 l -93.24,-0.004 h -130.18 c -1.246,10.038 -1.728,20.276 -2.546,30.364 l -3.572,39.68 c -0.846,9.6 -0.87,20.306 -3.282,29.606 -9.296,35.854 -63.906,44.452 -76.404,6.438 -6.35,-19.32 -9.564,-82.676 -12.362,-106.088 z m 295.958,-422.094001 -544.874,-0.02 c -24.207,-0.014 -53.4366,0.64 -58.1078,32.558 -1.5922,10.878 -0.6068,22.982 -0.605,34.01 L 25.391,381.96815 c 0.1388,38.24 21.579,41.022 54.0686,40.76 l 187.416,-0.044 54.318,-0.03 c 11.006,-0.006 33.136,-4.764 36.65,9.57 2.188,8.92 2.47,21.054 3.45,30.362 l 6.086,56.898 c 0.668,6.858 0.882,21.828 3.828,27.356 5.134,9.628 21.772,5.86 24.324,-4.06 2.082,-8.09 2.046,-17.614 2.778,-25.982 l 5.47,-56.486 c 0.864,-8.64 1.006,-17.892 2.606,-26.392 3.036,-16.134 19.276,-11.27 31.598,-11.17 l 240.364,-0.052 c 9.658,0.004 20.284,0.844 29.784,-0.844 35.578,-6.324 30.876,-41.634 30.88,-67.332 l -0.034,-231.13 c -0.002,-26.026001 7.18,-67.300001 -12.398,-86.154001 -13.918,-13.404 -33.468,-11.146 -51.172,-11.142 z"
     id="path2"
     style="stroke-width:2" />
  <path
     fill="#ffffff"
     d="m 569.0016,239.78215 -1.88,0.114 c -4.442,5.348 3.478,43.548 -4.694,52.9 -4.402,5.04 -13.314,5.41 -18.038,0.636 -6.024,-6.088 -4.56,-16.218 -4.534,-23.998 l 0.112,-25.536 c 0.016,-25.9 -0.564,-51.898 -0.01,-77.786 0.298,-13.97 3.618,-20.928 18.55,-19.956 l 40.428,-0.212 c 41.634,-0.63 63.46,49.9 33.37,79.6 -17.462,17.238 -40.844,14.296 -63.304,14.238 z m -2.932,-69.952 c -0.628,1.98 -0.166,39.48 0,44.494 15.364,0.042 32.546,2.42 46.326,-5.632 4.416,-5.71 8.148,-10.764 7.122,-18.416 -3.44,-25.644 -34.57,-20.498 -53.448,-20.446 z"
     id="path4"
     style="stroke-width:2" />
  <path
     fill="#ffffff"
     d="m 143.0016,234.05015 -0.016,36.652 c 0.006,5.112 0.74,11.052 -0.136,16.048 -2.006,11.448 -18.024,12.972 -23.73,3.32 -4.536,-7.676 -1.74,-58.608 -1.738,-70.122 0.006,-17.456 -6.926,-66.178 8.33,-73.792 27.432,-4.51 16.49,43.996 17.29,62.536 h 70.086 l -0.034,-32.926 c -0.004,-6.218 -0.284,-12.6 0.144,-18.796 0.752,-10.922 16.51,-14.988 22.982,-6.506 4.62,6.052 2.472,31.15 2.474,38.902 l 0.046,83.192 c 0.024,10.684 1.444,17.644 -8.866,24.11 -19.124,2.86 -16.818,-16.59 -16.802,-28.884 l 0.056,-33.734 z"
     id="path6"
     style="stroke-width:2" />
  <path
     fill="#ffffff"
     d="m 299.4936,271.83615 47.83,-0.018 c 8.56,0.006 17.742,-0.56 26.226,0.384 9.802,1.09 15.932,10.664 9.612,19.634 -4.698,6.664 -14.014,4.842 -21.03,4.816 l -54.578,0.028 c -32.452,0.162 -32.642,1.066 -32.526,-33.07 l 0.02,-78.942 c -0.03,-25.864 -6.672,-36.74 21.716,-38.512 l 50.126,-0.02 c 10.914,0.002 37.124,-4.33 37.68,12.78 0.558,17.144 -25.38,13.268 -35.716,13.27 l -49.36,-0.022 c -0.24,12.158 -0.006,24.366 0,36.528 l 46.054,-0.024 c 8.408,0 27.712,-2.408 34.332,3.812 7.686,7.22 2.764,19.266 -6.898,20.944 -8.3,1.442 -17.582,0.642 -26.014,0.644 l -47.474,-0.018 z"
     id="path8"
     style="stroke-width:2" />
  <path
     fill="#ffffff"
     d="m 505.5776,296.66815 c -13.258,1.31 -75.048,0.614 -81.504,-1.288 -11.17,-3.29 -8.456,-19.486 -8.46,-28.276 l -0.014,-32.086 c -0.002,-10.154 -1.078,-74.148 0.778,-79.524 1.476,-4.276 4.81,-7.306 8.738,-9.338 23.964,1.434 15.962,29.632 15.964,49.458 l -0.016,76.222 c 12.336,-0.014 58.088,-1.414 66.674,1.454 11.6,3.876 8.954,18.206 -2.16,23.378 z"
     id="path10"
     style="stroke-width:2" />
</svg>
