<svg xmlns="http://www.w3.org/2000/svg" xmlns:xlink="http://www.w3.org/1999/xlink" viewBox="211.98 154.08 599.19 715.25">
	<defs>
		<linearGradient id="gradient_0" gradientUnits="userSpaceOnUse" x1="339.39261" y1="335.47934" x2="397.45047" y2="430.25812">
			<stop offset="0" stop-color="#EEEEEE"/>
			<stop offset="1" stop-color="#CCCCCC"/>
		</linearGradient>
	</defs>
	<path fill="url(#gradient_0)" transform="scale(2 2)" d="M402.03 327.575C400.264 327.554 394.29 328.592 393.973 325.852C393.617 322.778 403.545 323.859 404.815 324.987C406.246 327.886 405.246 342.92 405.246 346.952L405.264 416.247C405.281 419.721 405.648 423.448 405.252 426.884C403.832 434.103 397.338 434.636 391.185 434.259L351.637 434.273C332.648 434.273 323.349 438.935 323.519 416.029L323.526 353.259C334.346 345.508 346.263 333.017 356.696 324.129C361.111 323.912 383.849 323.309 386.046 325.169C387.419 328.879 377.265 327.567 375.648 327.559L358.988 327.575L358.988 353.259L402.03 353.259L402.03 327.575ZM397.307 431.022C398.561 430.737 399.522 430.062 400.548 429.337C401.598 427.135 401.828 425.188 402.03 422.782L402.03 356.726L326.845 356.726L326.846 402.47C326.84 409.218 326.22 419.423 327.225 425.763C328.27 432.351 338.623 431.047 343.334 431.038L385.056 431.036C389.039 431.043 393.37 431.594 397.307 431.022ZM329.73 353.259L355.779 353.259C355.769 345.585 355.466 337.772 356.059 330.123L355.779 329.947C348.512 334.703 336.191 346.157 329.476 352.914L329.492 353.207L329.73 353.259Z"/>
	<defs>
		<linearGradient id="gradient_1" gradientUnits="userSpaceOnUse" x1="352.21207" y1="368.49225" x2="381.39438" y2="409.41583">
			<stop offset="0" stop-color="#EEEEEE"/>
			<stop offset="1" stop-color="#DDDDDD"/>
		</linearGradient>
	</defs>
	<path fill="url(#gradient_1)" transform="scale(2 2)" d="M362.975 364.331C379.836 362.902 394.824 378.754 387.682 394.885C385.412 400.013 371.748 415.74 367.237 420.328C366.427 421.004 365.534 422.056 364.487 421.319C361.261 419.05 346.006 400.984 343.812 397.053C335.765 382.635 347.373 366.785 362.975 364.331ZM366.245 416.345C373.039 408.248 386.786 396.392 385.844 385.365C384.975 375.197 374.576 365.869 364.132 367.596C358.366 368.201 353.428 370.412 349.697 374.954C336.929 390.497 352.623 403.169 362.398 414.262C363.311 415.299 363.871 417.026 365.45 417.023L366.245 416.345Z"/>
	<path fill="#DDDDDD" transform="scale(2 2)" d="M376.906 380.205C382.799 382.914 364.389 396.231 362.975 396.965C360.429 395.364 358.011 393.084 355.779 391.071C354.566 390.271 352.345 388.379 354.257 387.09C357.332 387.004 360.805 390.887 362.975 392.835C367.336 389.266 372.392 382.891 376.906 380.205Z"/>
	<path fill="#DDDDDD" transform="scale(2 2)" d="M402.03 422.782L402.375 422.862C402.609 422.181 402.54 421.473 402.528 420.763C403.537 421.203 404.849 425.808 405.252 426.884C403.832 434.103 397.338 434.636 391.185 434.259C392.419 433.606 392.713 432.856 393.269 431.622C394.795 431.712 395.967 431.902 397.307 431.022C398.561 430.737 399.522 430.062 400.548 429.337C401.598 427.135 401.828 425.188 402.03 422.782Z"/>
	<path fill="#EEEEEE" transform="scale(2 2)" d="M186.753 102.199C192.864 101.738 200.16 102.194 206.419 102.197L288.407 102.201C296.664 102.191 311.06 100.239 318.289 104.834C329.636 112.047 325.8 128.158 311.562 131.204L201.684 131.214C196.342 131.216 190.818 131.473 185.507 130.829C168.931 128.82 169.972 103.32 186.753 102.199ZM311.562 127.748C321.796 125.245 325.128 112.29 314.962 107C310.131 104.486 298.552 105.757 293.126 105.76L262.558 105.77C237.306 105.771 212 105.419 186.753 105.77C173.954 107.76 173.586 126.234 187.422 127.624C191.045 127.987 194.855 127.749 198.497 127.746L301.05 127.742C304.534 127.737 308.084 127.584 311.562 127.748Z"/>
	<path fill="#EEEEEE" transform="scale(2 2)" d="M116.924 434.259C104.273 432.834 106.514 422.3 106.513 412.794L106.509 131.968C106.51 128.484 104.964 110.026 108.839 110.208C111.173 111.808 109.981 167.273 109.981 174.768L109.982 408.377C109.983 417.335 106.938 428.378 116.924 431.022C132.581 431.218 148.265 431.024 163.924 431.024L294.124 431.014C297.781 431.012 312.015 430.029 314.56 431.593C316.872 435.141 307.131 434.295 305.92 434.29L116.924 434.259Z"/>
	<path fill="#DDDDDD" transform="scale(2 2)" d="M116.924 431.022C132.581 431.218 148.265 431.024 163.924 431.024L294.124 431.014C297.781 431.012 312.015 430.029 314.56 431.593C316.872 435.141 307.131 434.295 305.92 434.29L116.924 434.259C120.303 432.457 132.915 433.623 137.288 433.622C158.092 433.615 179.225 434.902 199.998 433.57C198.76 433.599 196.157 433.595 195.092 432.997L194.808 431.701C193.005 431.028 175.99 431.605 172.584 431.613L129.209 431.558C126.24 431.533 119.276 432.046 116.706 431.235L116.924 431.022Z"/>
	<path fill="#EEEEEE" transform="scale(2 2)" d="M345.553 80.7432C341.083 81.0149 336.426 80.7588 331.938 80.7553L156.716 80.7468C154.228 80.7674 147.815 81.7673 146.073 79.4925C145.985 76.6624 149.71 77.2344 151.59 77.236L349.469 77.2348L371.232 77.211C385.212 77.1944 389.274 76.993 389.174 93.545L389.146 297.458C389.145 301.802 389.355 306.227 389.244 310.557C389.14 314.614 385.834 314.89 385.682 310.671C385.478 305.006 385.751 299.208 385.744 293.523L385.748 100.443C385.785 84.7489 389.267 80.6806 371.37 80.7147L353.981 80.7581C351.254 80.7658 348.248 81.0269 345.553 80.7432Z"/>
	<path fill="#EEEEEE" transform="scale(2 2)" d="M345.553 80.7432C341.083 81.0149 336.426 80.7588 331.938 80.7553L156.716 80.7468C154.228 80.7674 147.815 81.7673 146.073 79.4925C145.985 76.6624 149.71 77.2344 151.59 77.236L349.469 77.2348L348.986 77.3072C341.259 78.407 328.691 77.834 320.066 77.8459L287.63 77.8512C283.587 77.8815 271.389 75.9861 268.453 78.5971C269.497 78.416 270.251 78.3945 271.166 79.0884C275.048 82.0316 307.511 80.8303 313.388 80.7343C319.244 80.6387 341.762 79.794 345.553 80.7432Z"/>
	<path fill="#FFFFFF" transform="scale(2 2)" d="M138.882 283.185C143.733 283.186 167.565 282.478 170.308 283.817C171.401 286.682 171.333 312.909 169.963 314.76C166.435 315.395 142.707 315.089 138.882 314.76C138.697 312.435 138.85 310.048 138.863 307.716L138.879 295.315C138.874 291.99 138.266 286.195 138.882 283.185ZM142.043 286.697C142.053 294.879 142.139 303.069 142.043 311.25L151.875 311.25L167.239 311.25L167.239 286.697C164.059 286.545 160.933 286.48 157.752 286.697L142.043 286.697Z"/>
	<defs>
		<linearGradient id="gradient_2" gradientUnits="userSpaceOnUse" x1="142.43193" y1="160.01289" x2="166.31807" y2="193.98711">
			<stop offset="0" stop-color="#EEEEEE"/>
			<stop offset="1" stop-color="#DDDDDD"/>
		</linearGradient>
	</defs>
	<path fill="url(#gradient_2)" transform="scale(2 2)" d="M138.494 161.727L157.386 161.718C160.986 161.703 166.998 161.136 170.314 162.03C171.174 166.649 171.31 186.869 170.733 192.739C168.478 193.108 140.33 192.814 138.838 192.324C137.96 189.293 138.085 166.407 138.494 161.727ZM142.043 189.258L167.239 189.258L167.239 165.063L142.043 165.063L142.043 189.258Z"/>
	<defs>
		<linearGradient id="gradient_3" gradientUnits="userSpaceOnUse" x1="137.94397" y1="360.06085" x2="170.93472" y2="385.84433">
			<stop offset="0" stop-color="#EEEEEE"/>
			<stop offset="1" stop-color="#DDDDDD"/>
		</linearGradient>
	</defs>
	<path fill="url(#gradient_3)" transform="scale(2 2)" d="M138.882 356.726C142.726 357.239 168.833 355.938 170.061 358.085C171.311 360.272 171.424 383.82 169.963 388.988L138.882 388.988C138.499 380.273 138.196 365.385 138.882 356.726ZM142.043 385.812C150.4 385.803 158.899 385.464 167.239 385.812L167.239 360.696L142.043 360.696L142.043 385.812Z"/>
	<path fill="#EEEEEE" transform="scale(2 2)" d="M159.655 224.137C163.32 224.083 167.08 223.863 170.733 224.137C170.796 229.57 171.409 250.469 170.008 254.194C168.263 255.643 152.419 254.984 149.051 254.98C147.128 254.989 140.062 255.533 138.973 254.458C137.731 249.78 138.404 230.033 138.494 224.137C145.519 224.395 152.622 224.151 159.655 224.137ZM142.043 251.56L166.062 251.56L167.004 251.489C167.731 250.233 167.234 230.894 167.239 227.489C159.132 227.485 151.002 227.346 142.898 227.489L142.052 227.751C141.803 228.313 141.829 248.995 142.043 251.56Z"/>
	<path fill="#EEEEEE" transform="scale(2 2)" d="M245.064 287.261L341.869 287.279C344.681 287.284 351.594 285.948 353.573 288.353C354.742 292.952 340.207 290.894 337.015 290.894L305.125 290.883L220.603 290.877C216.422 290.878 193.831 293.72 196.613 288.105C198.608 286.541 239.203 287.258 245.064 287.261Z"/>
	<path fill="#FFFFFF" transform="scale(2 2)" d="M303.465 168.468L338.438 168.477C341.217 168.478 352.351 166.987 353.758 169.658C355.631 173.213 341.823 171.893 340.508 171.893L246.437 171.898L213.129 171.881C210.695 171.873 196.003 173.242 195.754 170.131C197.229 167.098 206.235 168.472 209.187 168.471L303.465 168.468Z"/>
	<path fill="#EEEEEE" transform="scale(2 2)" d="M331.327 228.745C338.293 228.758 357.001 226.754 353.3 230.914C350.87 233.646 309.58 232.224 303.67 232.224L218.214 232.228C214.866 232.223 198.936 232.637 197.049 232.097C192.278 226.843 211.358 228.75 213.058 228.75L331.327 228.745Z"/>
	<path fill="#EEEEEE" transform="scale(2 2)" d="M197.073 305.259L290.294 305.255C291.483 305.253 309.483 303.603 303.465 308.837C293.596 308.877 198.373 309.197 197.153 308.645C195.666 307.971 196.452 306.31 197.073 305.259Z"/>
	<path fill="#EEEEEE" transform="scale(2 2)" d="M197.073 363.239L292.824 363.239C294.422 363.239 309.737 361.472 305.125 366.752L210.267 366.753C207.374 366.758 190.81 367.633 197.073 363.239Z"/>
	<path fill="#FFFFFF" transform="scale(2 2)" d="M197.073 185.746C200.202 185.492 203.45 185.733 206.594 185.737L278.146 185.747C281.745 185.744 308.556 183.076 303.465 189.258C296.544 189.67 288.521 189.265 281.466 189.263L210.051 189.271C207.069 189.275 193.458 191.368 197.073 185.746Z"/>
	<path fill="#EEEEEE" transform="scale(2 2)" d="M201.671 246.873L295.595 246.859C297.449 246.841 306.007 245.192 303.937 249.509C302.64 250.522 300.618 250.188 299.063 250.147L207.125 250.112C204.301 250.115 198.234 251.31 196.041 249.085C195.763 246.639 200.155 246.903 201.671 246.873Z"/>
	<path fill="#EEEEEE" transform="scale(2 2)" d="M198.127 382.255C203.222 382.085 208.378 382.246 213.478 382.248L265.456 382.257C267.636 382.256 278.915 380.843 278.789 384.373L278.435 384.079L278.732 384.515C278.276 385.213 278.096 385.482 277.291 385.812L224.199 385.809C215.757 385.809 207.139 386.225 198.72 385.837C195.616 385.694 195.663 383.327 198.127 382.255Z"/>
	<path fill="#FFFFFF" transform="scale(2 2)" d="M115.215 77.2348C118.835 77.4856 138.258 75.6357 135.784 79.833C129.822 83.4721 116.002 77.4026 110.649 83.2497C109.087 88.2954 110.811 94.2398 109.849 98.4788C109.488 100.065 107.082 101.158 106.73 99.1829C105.269 90.9814 105.018 79.1554 115.215 77.2348Z"/>
	<path fill="#EEEEEE" transform="scale(2 2)" d="M366.245 338.995C370.011 338.86 391.596 338.613 393.27 339.073C394.754 339.48 394.453 341.113 394.057 342.236C392.053 342.541 368.92 342.395 367.091 342.046C365.65 341.771 365.984 340.061 366.245 338.995Z"/>
</svg>