<?xml version="1.0" encoding="UTF-8" standalone="no"?>
<svg
   width="634.56171"
   height="729.7027"
   version="1.1"
   id="svg8"
   sodipodi:docname="parts.svg"
   xmlns:inkscape="http://www.inkscape.org/namespaces/inkscape"
   xmlns:sodipodi="http://sodipodi.sourceforge.net/DTD/sodipodi-0.dtd"
   xmlns="http://www.w3.org/2000/svg"
   xmlns:svg="http://www.w3.org/2000/svg">
  <defs
     id="defs12" />
  <sodipodi:namedview
     id="namedview10"
     pagecolor="#ffffff"
     bordercolor="#000000"
     borderopacity="0.25"
     inkscape:showpageshadow="2"
     inkscape:pageopacity="0.0"
     inkscape:pagecheckerboard="0"
     inkscape:deskcolor="#d1d1d1" />
  <path
     fill="#ffffff"
     d="m 144.98713,61.314118 c -1.946,-15.7488 13.3,-19.3592 25.864,-25.6894 43.118,-21.7258 87.162,-33.1968 135.38,-35.3848 158.132,-6.3264 302.392,113.212202 324.95,269.834202 25.082,174.14 -91.952,333.522 -266.514,358.768 19.264,25.888 16.738,51.316 0,78.292 l 138.978,-0.05 c 8.126,-0.016 42.448,-1.812 29.426,16.784 -5.106,7.292 -18.716,5.252 -26.324,5.196 l -369.67,-0.066 c -8.24,-0.002 -28.292,2.754 -34.94,-2.622 -4.975996,-4.026 -4.853996,-11.622 -0.632,-16.176 4.72,-5.09 17.128,-3.124 23.3,-3.112 l 31.67,0.056 c 38.452,0.038 77,0.554 115.442,-0.01 -18.194,-19.9 -20.028,-58.852 0,-78.292 -3.874,-0.444 -7.64,-1.074 -11.458,-1.86 -84.29,-18.154 -151.168,-57.604 -202.071996,-127.028 -73.462,-100.194 -76.467,-235.622 -15.416,-342.396 4.598,-8.042 29.002,-55.574 43.024,-40.292 6.628,7.224 0.796,14.16 -3.752,20.302 -37.138,50.154 -56.308,102.778 -60.376,165.036 H 265.43313 v -140.612 c 37.2,-19.766 81.598,-48.91 117.292,-71.922002 v -60.8542 c -72.438,-15.224 -148.092,-4.7378 -212.568,31.6262 -9.804,5.53 -17.404,11.834 -25.17,0.472 z m 259.732,-25.12 -0.054,34.806 c -0.02,6.31 -0.352,12.78 0.054,19.07 37.352,22.646002 82.754,48.616002 118.126,73.920002 v 138.614 h 90.03 c -8.106,-85.566 -39.342,-156.426 -107.57,-212.722002 -24.896,-20.544 -69.164,-46.638 -100.586,-53.688 z m -11.082,73.200002 -66.61,40.894 c -10.322,6.348 -32.55,18.142 -39.848,26.162 v 131.344 c 9.69,5.556 18.732,12.246 28.17,18.22 l 64.408,40.022 c 2.356,1.468 11.51,8.464 13.34,8.656 l 0.54,-0.236 c 13.798,-9.224 28.114,-17.644 41.992,-26.76 l 40.87,-26.468 c 8.084,-5.158 16.134,-10.526 24.486,-15.236 v -129.542 c -12.732,-9.372 -27.072,-17.206 -40.496,-25.59 l -54.83,-33.802 c -4.062,-2.468 -7.932,-5.25 -12.022,-7.664 z m -367.597996,214.324 c -7.788,0.4 -4.15,8.998 -3.826,15.144 1.964,37.45 13.122,73.77 29.268,107.372 68.923996,143.44 253.067996,204.474 395.239996,135.398 45.332,-22.026 87.314,-55.3 115.01,-97.922 31.306,-47.638 51.916,-102.24 51.144,-159.992 l -62.734,0.02 c -40.45,0 -27.922,-4.686 -59.592,15.22 l -56.326,35.238 c -13.456,8.596 -26.752,17.842 -40.586,25.786 -7.584,-3.39 -14.498,-8.254 -21.476,-12.732 l -34.556,-22.488 c -21.294,-13.742 -43.428,-26.048 -63.89,-41.044 z m 286.793996,306.394 q -0.938,0.128 -1.868,0.302 -0.93,0.174 -1.852,0.392 -0.92,0.22 -1.828,0.484 -0.91,0.266 -1.804,0.574 -0.894,0.308 -1.772,0.662 -0.88,0.352 -1.738,0.746 -0.86,0.396 -1.7,0.832 -0.84,0.438 -1.656,0.916 -0.818,0.478 -1.61,0.994 -0.792,0.518 -1.558,1.074 -0.766,0.556 -1.504,1.148 -0.738,0.594 -1.446,1.222 -0.708,0.628 -1.384,1.29 -0.676,0.662 -1.318,1.358 -0.644,0.694 -1.25,1.42 -0.608,0.726 -1.18,1.48 -0.57,0.754 -1.104,1.536 -0.534,0.782 -1.028,1.588 -0.494,0.808 -0.948,1.638 -0.454,0.83 -0.868,1.682 -0.412,0.852 -0.782,1.724 -0.37,0.87 -0.698,1.758 -0.326,0.888 -0.608,1.792 -0.284,0.902 -0.522,1.818 -0.238,0.916 -0.43,1.844 -0.194,0.926 -0.34,1.86 -0.148,0.936 -0.248,1.876 -0.1,0.942 -0.156,1.886 -0.054,0.946 -0.062,1.892 -0.008,0.946 0.032,1.892 0.038,0.946 0.124,1.888 0.084,0.942 0.216,1.88 0.132,0.938 0.308,1.866 0.178,0.93 0.4,1.85 0.224,0.92 0.492,1.828 0.268,0.908 0.58,1.8 0.312,0.894 0.668,1.772 0.356,0.876 0.754,1.734 0.398,0.86 0.838,1.698 0.44,0.838 0.922,1.652 0.48,0.816 1,1.606 0.52,0.79 1.08,1.554 0.558,0.764 1.154,1.5 0.596,0.736 1.226,1.44 0.632,0.706 1.296,1.38 0.664,0.674 1.362,1.314 0.698,0.64 1.426,1.244 0.728,0.606 1.484,1.174 0.756,0.568 1.54,1.098 0.784,0.53 1.594,1.022 0.808,0.492 1.64,0.942 0.832,0.452 1.686,0.86 0.852,0.41 1.726,0.776 0.872,0.368 1.76,0.692 0.89,0.322 1.794,0.602 0.904,0.28 1.822,0.514 0.916,0.236 1.844,0.424 0.928,0.19 1.862,0.334 0.936,0.142 1.878,0.24 0.94,0.096 1.886,0.148 0.946,0.05 1.892,0.054 0.946,0.006 1.892,-0.038 0.944,-0.042 1.888,-0.13 0.942,-0.09 1.878,-0.224 0.932,-0.134 1.856,-0.314 0.926,-0.18 1.84,-0.404 0.914,-0.226 1.818,-0.494 0.902,-0.27 1.79,-0.584 0.888,-0.312 1.76,-0.668 0.872,-0.358 1.726,-0.756 0.852,-0.398 1.686,-0.838 0.832,-0.44 1.642,-0.92 0.812,-0.48 1.598,-1 0.784,-0.518 1.544,-1.076 0.76,-0.556 1.492,-1.15 0.73,-0.594 1.432,-1.222 0.702,-0.628 1.372,-1.29 0.668,-0.664 1.306,-1.358 0.636,-0.694 1.238,-1.418 0.602,-0.724 1.168,-1.478 0.564,-0.752 1.094,-1.532 0.528,-0.78 1.016,-1.586 0.49,-0.804 0.94,-1.632 0.448,-0.828 0.856,-1.676 0.408,-0.85 0.774,-1.718 0.368,-0.866 0.69,-1.752 0.324,-0.884 0.604,-1.784 0.278,-0.9 0.514,-1.812 0.236,-0.912 0.426,-1.834 0.19,-0.922 0.334,-1.852 0.146,-0.932 0.244,-1.868 0.1,-0.936 0.154,-1.878 0.052,-0.94 0.06,-1.882 0.006,-0.942 -0.032,-1.882 -0.04,-0.942 -0.124,-1.88 -0.086,-0.938 -0.216,-1.87 -0.13,-0.932 -0.308,-1.858 -0.176,-0.926 -0.396,-1.84 -0.222,-0.916 -0.488,-1.82 -0.266,-0.904 -0.576,-1.792 -0.31,-0.89 -0.662,-1.764 -0.354,-0.872 -0.748,-1.728 -0.396,-0.854 -0.832,-1.688 -0.438,-0.836 -0.914,-1.648 -0.478,-0.812 -0.994,-1.6 -0.516,-0.788 -1.07,-1.548 -0.554,-0.762 -1.144,-1.496 -0.592,-0.734 -1.218,-1.438 -0.626,-0.704 -1.286,-1.376 -0.658,-0.672 -1.35,-1.31 -0.692,-0.64 -1.414,-1.244 -0.722,-0.606 -1.474,-1.174 -0.75,-0.568 -1.528,-1.1 -0.778,-0.53 -1.582,-1.022 -0.802,-0.492 -1.628,-0.946 -0.826,-0.452 -1.674,-0.864 -0.848,-0.41 -1.714,-0.78 -0.866,-0.37 -1.75,-0.696 -0.882,-0.326 -1.782,-0.61 -0.898,-0.282 -1.808,-0.522 -0.912,-0.238 -1.834,-0.432 -0.922,-0.194 -1.852,-0.342 -0.93,-0.148 -1.866,-0.252 -0.936,-0.102 -1.876,-0.158 -0.94,-0.058 -1.882,-0.068 -0.942,-0.01 -1.882,0.024 -0.942,0.036 -1.88,0.118 -0.938,0.08 -1.872,0.208 z"
     id="path2"
     style="stroke-width:2" />
  <path
     fill="#ffffff"
     d="m 111.16913,102.76412 c -18.109996,1.564 -16.405996,-20.120002 5.262,-29.790002 18.864,-1.598 16.678,20.408 -5.262,29.790002 z"
     id="path4"
     style="stroke-width:2" />
  <path
     fill="#ffffff"
     d="m 229.94513,539.43212 c -9.094,2.448 -19.048,-4.19 -26.958,-7.888 -41.108,-19.222 -78.552,-53.38 -100.386,-93.348 -6.185996,-11.324 -21.103996,-32.896 -5.659996,-41.138 14.841996,-1.266 18.493996,18.56 23.905996,28.962 18.18,34.932 55.52,70.142 91.16,85.938 7.994,3.544 42.008,13.262 17.938,27.474 z"
     id="path6"
     style="stroke-width:2" />
</svg>
