<?xml version="1.0" encoding="UTF-8" standalone="no"?>
<svg
   width="761.66302"
   height="645.80603"
   version="1.1"
   id="svg10"
   sodipodi:docname="printers.svg"
   xmlns:inkscape="http://www.inkscape.org/namespaces/inkscape"
   xmlns:sodipodi="http://sodipodi.sourceforge.net/DTD/sodipodi-0.dtd"
   xmlns="http://www.w3.org/2000/svg"
   xmlns:svg="http://www.w3.org/2000/svg">
  <defs
     id="defs14" />
  <sodipodi:namedview
     id="namedview12"
     pagecolor="#ffffff"
     bordercolor="#000000"
     borderopacity="0.25"
     inkscape:showpageshadow="2"
     inkscape:pageopacity="0.0"
     inkscape:pagecheckerboard="0"
     inkscape:deskcolor="#d1d1d1" />
  <path
     fill="#ffffff"
     d="m 288.16019,17.470757 c 10.384,-11.579 19.172,-15.5206 34.62,-16.67240004 l 81.302,-0.0202 c 22.578,-6e-4 52.71,-6.25199996 66.406,16.69260004 l 252.76,0.0032 c 9.254,-0.0102 19.124,-0.896 28.286,-0.017 8.976,0.8612 13.736,11.6336 6.848,18.3356 -6.806,6.622 -28.35,3.52 -37.28,3.522 l -243.16,-0.01 v 84.040003 c 11.43,0.444 23.038,0.006 34.488,0.006 l 68.808,0.006 c 15.334,0.002 32.57,-1.558 47.542,1.798 56.794,12.728 57.316,62.024 57.284,106.904 l 0.21,338.418 c 0.096,35.092 -25.818,66.308 -59.824,73.758 -9.674,2.12 -20.144,1.484 -30,1.476 l -157.066,-0.018 -268.922,0.024 c -29.89,0.004 -52.042,1.766 -75.194005,-21.044 -16.126,-15.888 -20.906,-36.176 -20.994,-58.092 l 0.006,-336.114 c -0.002,-45.454 -0.912,-92.858 57.018005,-105.35 15.38,-3.316 40.198,-1.8 56.822,-1.798 l 93.936,0.026 V 39.304557 l -241.704805,-0.058 c -8.9484,0.05 -18.4068,0.936 -27.277,0.326 -9.094,-0.624 -17.9348,-9.678 -9.975,-18.152 6.5194,-6.9404 29.4758,-3.9436 38.2642,-3.9456 z m 30.478,3.8238 c -20.42,7.914 -15.106,33.152 -15.106,50.716 l 0.02,57.706003 c 20.538,25.28 38.308,53.218 57.738,79.386 30.088,11.786 38.196,0.478 53.418,-22.044 14.06,-18.92 27.11,-38.964 41.792,-57.342 l 0.026,-64.420003 c 0.006,-21.016 5.702,-44.262 -24.222,-44.126 l -75.868,0.118 c -12.574,-0.002 -25.23,-0.314 -37.798,0.006 z m 153.368,123.634003 c -10.308,15.374 -21.994,29.866 -32.842,44.862 -15.55,21.494 -20.366,39.678 -48.576,44.168 0.054,7.282 1.772,19.136 -3.69,24.778 -4.08,4.214 -10.83,4.592 -14.718,-0.086 -4.43,-5.332 -2.384,-18.148 -2.126,-24.692 -31.638,-7.922 -28.762,-15.248 -47.74,-41.968 -11.208,-15.78 -22.562,-31.562 -34.154,-47.062 l -96.624,0.018 c -39.14,-0.008 -95.896005,-6.404 -95.916005,52.238 l 0.122,342.902 c -0.076,59.388 4.002,85.04 71.416005,84.9 l 2.332,-0.012 395.506,0.01 c 37.116,0.016 89.812,6.092 98.128,-44.834 2.108,-12.908 0.91,-28.096 0.898,-41.302 l 0.002,-336.788 c -0.242,-43.73 -25.546,-57.606 -65.636,-57.19 l -24.232,0.064 c -34.026,-0.008 -68.132,-0.736 -102.15,-0.006 z"
     id="path2"
     style="stroke-width:2" />
  <path
     fill="#ffffff"
     d="m 381.72019,100.50456 q -0.548,0.058 -1.098,0.078 -0.55,0.022 -1.1,0.006 -0.55,-0.016 -1.098,-0.066 -0.548,-0.052 -1.09,-0.14 -0.544,-0.088 -1.08,-0.21 -0.536,-0.124 -1.064,-0.282003 -0.528,-0.158 -1.042,-0.35 -0.516,-0.192 -1.018,-0.418 -0.502,-0.226 -0.988,-0.486 -0.486,-0.258 -0.952,-0.548 -0.468,-0.29 -0.916,-0.61 -0.448,-0.322 -0.874,-0.67 -0.424,-0.35 -0.826,-0.726 -0.402,-0.376 -0.778,-0.778 -0.376,-0.402 -0.724,-0.828 -0.348,-0.426 -0.668,-0.874 -0.32,-0.448 -0.61,-0.916 -0.288,-0.468 -0.546,-0.954 -0.258,-0.486 -0.484,-0.988 -0.226,-0.502 -0.418,-1.018 -0.192,-0.516 -0.348,-1.044 -0.158,-0.526 -0.28,-1.064 -0.122,-0.536 -0.21,-1.08 -0.086,-0.542 -0.136,-1.09 -0.052,-0.548 -0.066,-1.1 -0.014,-0.55 0.008,-1.1 0.02,-0.55 0.078,-1.096 0.058,-0.548 0.152,-1.09 0.094,-0.542 0.224,-1.078 0.13,-0.534 0.294,-1.06 0.164,-0.524 0.364,-1.038 0.198,-0.514 0.43,-1.012 0.232,-0.5 0.496,-0.982 0.264,-0.482 0.56,-0.946 0.296,-0.464 0.622,-0.908 0.326,-0.444 0.68,-0.866 0.354,-0.42 0.736,-0.818 0.38,-0.396 0.786,-0.768 0.408,-0.372 0.838,-0.714 0.43,-0.344 0.882,-0.658 0.45,-0.314 0.922,-0.598 0.472,-0.284 0.962,-0.536 0.488,-0.252 0.992,-0.472 0.506,-0.22 1.024,-0.406 0.518,-0.186 1.048,-0.336 0.528,-0.152 1.066,-0.268 0.538,-0.116 1.082,-0.196 0.546,-0.08 1.094,-0.124 0.406,-0.032 0.812,-0.046 0.406,-0.012 0.812,-0.006 0.406,0.008 0.812,0.034 0.406,0.028 0.81,0.074 0.404,0.046 0.804,0.112 0.402,0.066 0.798,0.152 0.398,0.086 0.79,0.19 0.394,0.104 0.78,0.228 0.388,0.124 0.768,0.266 0.382,0.144 0.754,0.304 0.374,0.162 0.738,0.34 0.366,0.178 0.722,0.376 0.356,0.196 0.702,0.408 0.346,0.214 0.68,0.444 0.336,0.23 0.66,0.476 0.322,0.246 0.634,0.508 0.31,0.262 0.608,0.538 0.298,0.276 0.582,0.568 0.286,0.29 0.554,0.594 0.27,0.304 0.526,0.622 0.254,0.316 0.492,0.644 0.24,0.33 0.462,0.67 0.222,0.34 0.428,0.69 0.206,0.352 0.394,0.712 0.188,0.36 0.36,0.728 0.17,0.37 0.322,0.746 0.154,0.376 0.288,0.76 0.132,0.384 0.248,0.774 0.116,0.39 0.212,0.786 0.096,0.394 0.172,0.794 0.076,0.398 0.134,0.8 0.056,0.404 0.094,0.808 0.038,0.404 0.056,0.81 0.016,0.406 0.014,0.814 -0.002,0.406 -0.024,0.812 -0.022,0.406 -0.062,0.81 -0.042,0.404 -0.104,0.806 -0.06,0.402 -0.142,0.8 -0.08,0.398 -0.18,0.792 -0.1,0.394 -0.22,0.784 -0.118,0.388 -0.256,0.77 -0.138,0.382 -0.294,0.758 -0.158,0.376 -0.332,0.742 -0.174,0.368 -0.366,0.726 -0.192,0.358 -0.402,0.706 -0.208,0.348 -0.434,0.686 -0.228,0.338 -0.47,0.664 -0.242,0.328 -0.5,0.642 -0.258,0.314 -0.53,0.614 -0.272,0.302 -0.56,0.59 -0.288,0.288 -0.588,0.56 -0.3,0.274 -0.614,0.532 -0.314,0.258 -0.64,0.502 -0.326,0.242 -0.664,0.47 -0.338,0.226 -0.686,0.436 -0.348,0.21 -0.706,0.402 -0.358,0.192 -0.724,0.368 -0.368,0.176 -0.742,0.332 -0.376,0.158 -0.758,0.296 -0.382,0.138 -0.77,0.258 -0.388,0.12 -0.782,0.220003 -0.394,0.102 -0.792,0.182 -0.398,0.082 -0.8,0.144 -0.402,0.062 -0.806,0.104 z"
     id="path4"
     style="stroke-width:2" />
  <path
     fill="#ffffff"
     d="m 382.15419,334.39856 c -5.41,-0.088 -10.228,-2.448 -11.564,-8.18 -2.198,-9.422 -5.078,-36.632 8.612,-39.28 4.218,0.206 8.506,1.76 10.228,6 3.006,7.406 5.598,36.514 -7.276,41.46 z"
     id="path6"
     style="stroke-width:2" />
  <path
     fill="#ffffff"
     d="m 293.42019,517.79656 c 0.054,-16.274 -1.276,-128.814 1.016,-134.028 1.338,-3.046 4.23,-4.34 7.108,-5.59 0.636,-0.03 1.27,-0.06 1.908,-0.066 l 136.898,0.028 c 24.864,-0.044 25.996,-1.466 25.994,26.478 l -0.024,113.178 61.006,0.002 c 8.354,0 28.546,-2.962 35.05,3.406 7.288,7.132 0.346,16.508 -8.008,17.49 -9.512,1.118 -19.98,0.112 -29.624,0.112 l -66.542,0.02 -222.65,-0.028 c -7.36,-0.004 -32.292,2.354 -38.034,-2.266 -4.91,-3.948 -4.208,-12.262 0.134,-16.282 5.126,-4.744 31.172,-2.468 38.122,-2.468 z m 21.208,-118.458 c -0.492,39.46 0,78.99 0,118.458 h 130.088 v -118.458 z"
     id="path8"
     style="stroke-width:2" />
</svg>
