<?xml version="1.0" encoding="UTF-8" standalone="no"?>
<svg
   width="584.05798"
   height="715.61267"
   version="1.1"
   id="svg16"
   sodipodi:docname="tasks.svg"
   xmlns:inkscape="http://www.inkscape.org/namespaces/inkscape"
   xmlns:sodipodi="http://sodipodi.sourceforge.net/DTD/sodipodi-0.dtd"
   xmlns="http://www.w3.org/2000/svg"
   xmlns:svg="http://www.w3.org/2000/svg">
  <defs
     id="defs20" />
  <sodipodi:namedview
     id="namedview18"
     pagecolor="#ffffff"
     bordercolor="#000000"
     borderopacity="0.25"
     inkscape:showpageshadow="2"
     inkscape:pageopacity="0.0"
     inkscape:pagecheckerboard="0"
     inkscape:deskcolor="#d1d1d1" />
  <path
     fill="#ffffff"
     d="m 453.85201,715.27445 -353.748,0.004 c -13.966004,-0.002 -29.474004,1.304 -43.182004,-1.234 -44.014,-8.156 -56.9320002,-43.852 -56.9220001996892,-82.624 L 0.0160058,85.492453 C 0.0480058,20.549053 29.620006,0.14485303 91.656006,0.14205303 l 39.902004,0.0254 348.044,-0.015 c 29.856,-0.028 59.666,-3.09540003 82.972,19.68539997 15.584,15.2328 21.38,36.6726 21.484,57.9506 l -0.004,552.527997 c 0.008,63.99 -30.95,84.978 -92.196,84.984 z M 70.970006,21.837653 c -51.89,6.0132 -48.892,44.6688 -48.89,85.728797 l -0.016,516.41 c -0.014,9.126 -0.664,18.72 0.418,27.768 4.914,41.128 39.62,41.142 69.84,41.11 l 400.362004,0.002 c 31.408,0.052 55.284,-1.316 67.658,-37.506 2.21,-10.276 1.5,-20.606 1.46,-31.046 l -0.014,-507.262 c 0.022,-35.373997 7.632,-84.688197 -39.116,-94.001597 -12.598,-2.5094 -28.972,-1.2156 -41.976,-1.2146 l -351.74,0.0114 0.018,47.2588 c 0.004,7.62 2.738,25.268 -3.29,31.163997 -6.31,6.174 -18.262,1.956 -19.256,-6.759997 -0.884,-7.742 -0.126,-16.29 -0.102,-24.106 l 0.014,-47.5568 c -11.710004,-0.0172 -23.690004,-0.5668 -35.370004,0 z"
     id="path2"
     style="stroke-width:2" />
  <path
     fill="#ffffff"
     d="m 127.10401,200.96245 q -0.598,0.08 -1.2,0.128 -0.602,0.05 -1.206,0.07 -0.604,0.02 -1.208,0.01 -0.602,-0.01 -1.206,-0.048 -0.602,-0.04 -1.202,-0.108 -0.6,-0.07 -1.196,-0.168 -0.596,-0.098 -1.186,-0.226 -0.59,-0.128 -1.174,-0.284 -0.582,-0.156 -1.158,-0.342 -0.574,-0.184 -1.14,-0.398 -0.564,-0.212 -1.118,-0.452 -0.554,-0.242 -1.096,-0.508 -0.542,-0.268 -1.068,-0.562 -0.528,-0.294 -1.04,-0.612 -0.514,-0.32 -1.01,-0.664 -0.496,-0.344 -0.974,-0.712 -0.48,-0.368 -0.94,-0.76 -0.46,-0.39 -0.9,-0.804 -0.44,-0.414 -0.86,-0.848 -0.418,-0.434 -0.816,-0.888 -0.398,-0.456 -0.772,-0.928 -0.376,-0.474 -0.726,-0.966 -0.352,-0.492 -0.678,-1 -0.326,-0.508 -0.626,-1.03 -0.302,-0.524 -0.576,-1.062 -0.276,-0.538 -0.524,-1.088 -0.248,-0.55 -0.468,-1.112 -0.222,-0.562 -0.414,-1.136 -0.194,-0.572 -0.358,-1.152 -0.164,-0.582 -0.300004,-1.17 -0.136,-0.588 -0.242,-1.182 -0.106,-0.596 -0.184,-1.194 -0.078,-0.598 -0.124,-1.2 -0.048,-0.602 -0.066,-1.206 -0.018,-0.604 -0.008,-1.208 0.012,-0.604 0.054,-1.206 0.042,-0.602 0.112,-1.202 0.07,-0.6 0.172,-1.196 0.1,-0.594 0.228,-1.184 0.130004,-0.59 0.288004,-1.174 0.158,-0.582 0.346,-1.156 0.186,-0.574 0.402,-1.138 0.214,-0.566 0.456,-1.118 0.242,-0.554 0.512,-1.094 0.268,-0.54 0.564,-1.068 0.296,-0.526 0.616,-1.038 0.322,-0.512 0.668,-1.006 0.344,-0.496 0.714,-0.972 0.37,-0.478 0.762,-0.938 0.394,-0.458 0.808,-0.896 0.414,-0.44 0.85,-0.858 0.436,-0.418 0.892,-0.814 0.456,-0.396 0.93,-0.77 0.476,-0.372 0.968,-0.722 0.492,-0.348 1.002,-0.674 0.508,-0.324 1.034,-0.624 0.524,-0.3 1.062,-0.572 0.538,-0.274 1.09,-0.52 0.552,-0.246 1.114,-0.466 0.564,-0.218 1.136,-0.41 0.572,-0.19 1.154,-0.352 0.582,-0.164 1.17,-0.298 0.59,-0.134 1.184,-0.238 0.594,-0.104 1.194,-0.18 0.596,-0.076 1.196,-0.12 0.6,-0.046 1.202,-0.062 0.6,-0.018 1.202,-0.004 0.602,0.012 1.202,0.056 0.6,0.042 1.196,0.114 0.598,0.072 1.19,0.172 0.594,0.102 1.18,0.232 0.588,0.13 1.168,0.288 0.58,0.158 1.152,0.346 0.572,0.186 1.134,0.4 0.56,0.216 1.112,0.458 0.55,0.242 1.088,0.51 0.538,0.268 1.064,0.562 0.524,0.294 1.032,0.614 0.51,0.32 1.004,0.664 0.492,0.346 0.968,0.714 0.476,0.368 0.932,0.758 0.458,0.392 0.896,0.804 0.436,0.414 0.854,0.848 0.416,0.432 0.81,0.886 0.396,0.454 0.768,0.926 0.372,0.474 0.72,0.964 0.348,0.49 0.672,0.996 0.326,0.506 0.624,1.028 0.3,0.522 0.572,1.058 0.274,0.536 0.52,1.084 0.246,0.55 0.466,1.11 0.218,0.56 0.41,1.13 0.192,0.57 0.356,1.148 0.162,0.58 0.298,1.166 0.134,0.586 0.24,1.178 0.108,0.592 0.184,1.188 0.076,0.596 0.124,1.196 0.048,0.6 0.066,1.2 0.018,0.602 0.008,1.204 -0.012,0.6 -0.052,1.2 -0.042,0.6 -0.112,1.198 -0.07,0.598 -0.168,1.19 -0.1,0.594 -0.228,1.182 -0.128,0.588 -0.284,1.168 -0.158,0.58 -0.342,1.152 -0.186,0.572 -0.398,1.136 -0.212,0.562 -0.452,1.114 -0.24,0.55 -0.508,1.09 -0.266,0.538 -0.56,1.064 -0.292,0.526 -0.61,1.036 -0.318,0.51 -0.662,1.004 -0.342,0.494 -0.708,0.972 -0.368,0.476 -0.758,0.934 -0.388,0.458 -0.8,0.898 -0.412,0.438 -0.844,0.856 -0.432,0.418 -0.886,0.814 -0.452,0.396 -0.922,0.77 -0.472,0.374 -0.962,0.724 -0.488,0.35 -0.994,0.676 -0.506,0.326 -1.026,0.626 -0.522,0.3 -1.056,0.576 -0.536,0.274 -1.084,0.522 -0.546,0.248 -1.106,0.47 -0.56,0.22 -1.13,0.414 -0.568,0.194 -1.146,0.358 -0.58,0.166 -1.164,0.302 -0.586,0.138 -1.178,0.246 -0.592,0.108 -1.188,0.186 z"
     id="path4"
     style="stroke-width:2" />
  <path
     fill="#ffffff"
     d="m 457.25601,185.34245 c -5.808,0.64 -12.102,0.072 -17.976,0.046 l -170.22,-0.05 c -9.246,0.002 -49.784,1.148 -55.548,-0.73 -11,-3.584 -6.262,-16.954 2.106,-20.856 12.248,-0.692 24.95,-0.018 37.246,-0.014 l 163.07,-0.01 c 8.71,-0.012 35.238,-1.194 42.528,0.874 11.928,3.384 7.684,16.466 -1.206,20.74 z"
     id="path6"
     style="stroke-width:2" />
  <path
     fill="#ffffff"
     d="m 127.86401,383.83645 q -0.6,0.094 -1.202,0.158 -0.604,0.066 -1.21,0.1 -0.606,0.036 -1.214,0.042 -0.606,0.004 -1.212,-0.02 -0.606,-0.024 -1.212,-0.078 -0.604,-0.054 -1.204,-0.138 -0.602,-0.084 -1.198,-0.196 -0.596,-0.114 -1.186,-0.256 -0.59,-0.142 -1.172,-0.312 -0.584,-0.172 -1.156,-0.37 -0.574,-0.2 -1.136,-0.426 -0.564,-0.228 -1.114,-0.482 -0.552,-0.254 -1.09,-0.536 -0.538,-0.28 -1.062,-0.588 -0.522,-0.306 -1.03,-0.638 -0.508,-0.332 -1,-0.69 -0.49,-0.356 -0.964,-0.736 -0.472,-0.38 -0.926,-0.784 -0.454,-0.402 -0.886,-0.828 -0.434,-0.424 -0.846,-0.87 -0.412,-0.446 -0.802,-0.91 -0.39,-0.466 -0.756,-0.95 -0.368,-0.484 -0.71,-0.984 -0.342,-0.502 -0.66,-1.018 -0.316,-0.518 -0.608,-1.05 -0.292,-0.532 -0.558,-1.078 -0.264,-0.546 -0.502,-1.104 -0.238,-0.558 -0.45,-1.128 -0.21,-0.57 -0.392,-1.148 -0.182,-0.578 -0.336,-1.166 -0.154004,-0.586 -0.280004,-1.18 -0.124,-0.594 -0.22,-1.194 -0.096,-0.6 -0.162,-1.202 -0.066,-0.604 -0.102,-1.21 -0.038,-0.606 -0.044,-1.212 -0.006,-0.608 0.016,-1.214 0.024,-0.606 0.076,-1.21 0.052,-0.606 0.134,-1.206 0.082,-0.602 0.194,-1.198 0.112,-0.596 0.252,-1.188 0.140004,-0.59 0.310004,-1.172 0.17,-0.584 0.368,-1.156 0.196,-0.574 0.422,-1.138 0.226,-0.564 0.478,-1.116 0.254,-0.55 0.534,-1.09 0.28,-0.538 0.584,-1.062 0.306,-0.524 0.638,-1.034 0.33,-0.508 0.686,-1 0.356,-0.492 0.734,-0.966 0.38,-0.474 0.782,-0.928 0.402,-0.454 0.826,-0.89 0.424,-0.434 0.868,-0.846 0.444,-0.414 0.908,-0.804 0.464,-0.392 0.948,-0.76 0.482,-0.368 0.982,-0.71 0.5,-0.344 1.018,-0.662 0.516,-0.32 1.048,-0.612 0.53,-0.294 1.076,-0.56 0.546,-0.266 1.102,-0.506 0.558,-0.24 1.128,-0.452 0.568,-0.212 1.146,-0.396 0.578,-0.184 1.166,-0.338 0.586,-0.156 1.18,-0.282 0.592,-0.126 1.192,-0.224 0.6,-0.098 1.206,-0.166 0.604,-0.068 1.212,-0.106 0.608,-0.036 1.216,-0.046 0.61,-0.008 1.218,0.014 0.608,0.022 1.216,0.074 0.606,0.052 1.208,0.134 0.604,0.082 1.202,0.192 0.6,0.112 1.192,0.252 0.592,0.14 1.176,0.308 0.586,0.17 1.162,0.368 0.576,0.198 1.14,0.424 0.566,0.226 1.12,0.478 0.554,0.254 1.094,0.534 0.54,0.28 1.066,0.588 0.526,0.306 1.036,0.638 0.51,0.332 1.004,0.688 0.494,0.356 0.968,0.738 0.476,0.38 0.932,0.784 0.456,0.402 0.892,0.828 0.436,0.424 0.85,0.87 0.414,0.448 0.806,0.914 0.392,0.466 0.76,0.95 0.368,0.484 0.712,0.986 0.344,0.502 0.664,1.022 0.318,0.518 0.612,1.052 0.292,0.532 0.56,1.08 0.266,0.548 0.506,1.108 0.238,0.56 0.45,1.13 0.212,0.57 0.394,1.152 0.184,0.58 0.338,1.168 0.156,0.59 0.28,1.186 0.126,0.594 0.222,1.196 0.096,0.602 0.162,1.206 0.066,0.606 0.104,1.214 0.036,0.608 0.042,1.216 0.006,0.608 -0.016,1.216 -0.024,0.61 -0.078,1.216 -0.052,0.606 -0.136,1.21 -0.082,0.602 -0.194,1.2 -0.114,0.6 -0.254,1.192 -0.142,0.592 -0.314,1.176 -0.17,0.584 -0.37,1.16 -0.198,0.574 -0.426,1.14 -0.226,0.564 -0.482,1.118 -0.254,0.552 -0.536,1.092 -0.282,0.54 -0.59,1.064 -0.308,0.526 -0.64,1.036 -0.334,0.51 -0.692,1.002 -0.358,0.492 -0.738,0.966 -0.382,0.474 -0.786,0.93 -0.406,0.454 -0.832,0.89 -0.426,0.434 -0.874,0.848 -0.446,0.412 -0.914,0.802 -0.466,0.392 -0.952,0.758 -0.486,0.368 -0.988,0.71 -0.504,0.344 -1.022,0.662 -0.52,0.318 -1.054,0.61 -0.534,0.29 -1.082,0.556 -0.548,0.266 -1.108,0.504 -0.562,0.238 -1.132,0.448 -0.572,0.21 -1.152,0.392 -0.582,0.182 -1.172,0.334 -0.588,0.154 -1.184,0.278 -0.596,0.124 -1.198,0.218 z"
     id="path8"
     style="stroke-width:2" />
  <path
     fill="#ffffff"
     d="m 459.54401,368.79445 c -10.154,0.736 -20.846,0.012 -31.072,0.01 l -157.622,-0.008 c -9.612,0.002 -51.89,2.496 -58.774,-2.21 -8.814,-6.022 -4.536,-17.902 7.016,-19.83 l 166.372,0.002 c 10.46,-0.002 71.372,-1.07 76.73,0.842 11.068,3.948 9.822,16.454 -2.65,21.194 z"
     id="path10"
     style="stroke-width:2" />
  <path
     fill="#ffffff"
     d="m 127.85201,565.81045 q -0.6,0.094 -1.204,0.158 -0.602,0.064 -1.208,0.098 -0.606,0.036 -1.214,0.04 -0.606,0.004 -1.212,-0.02 -0.606,-0.024 -1.21,-0.08 -0.606,-0.054 -1.206,-0.138 -0.602,-0.084 -1.198,-0.198 -0.596,-0.114 -1.186,-0.256 -0.59,-0.144 -1.172,-0.314 -0.582,-0.172 -1.154,-0.372 -0.574,-0.2 -1.136,-0.428 -0.562,-0.228 -1.114,-0.482 -0.55,-0.256 -1.088,-0.538 -0.536,-0.28 -1.06,-0.588 -0.524,-0.308 -1.03,-0.642 -0.508,-0.332 -0.998,-0.69 -0.49,-0.358 -0.962,-0.738 -0.474,-0.382 -0.926,-0.786 -0.454,-0.402 -0.886,-0.828 -0.432,-0.426 -0.844,-0.872 -0.41,-0.446 -0.8,-0.912 -0.388,-0.466 -0.754,-0.95 -0.366,-0.486 -0.708,-0.986 -0.34,-0.502 -0.658,-1.02 -0.316,-0.518 -0.606,-1.052 -0.29,-0.532 -0.554,-1.078 -0.264,-0.546 -0.502,-1.106 -0.236,-0.558 -0.446,-1.128 -0.21,-0.57 -0.39,-1.148 -0.182,-0.58 -0.334,-1.166 -0.152004,-0.588 -0.276004,-1.182 -0.124,-0.594 -0.218,-1.194 -0.094,-0.6 -0.158,-1.202 -0.066,-0.604 -0.1,-1.21 -0.036,-0.606 -0.042,-1.212 -0.004,-0.608 0.02,-1.214 0.024,-0.606 0.078,-1.212 0.054,-0.604 0.138,-1.204 0.084,-0.602 0.198,-1.198 0.112,-0.596 0.254,-1.186 0.142004,-0.59 0.314004,-1.172 0.17,-0.582 0.37,-1.156 0.2,-0.574 0.426,-1.136 0.228,-0.562 0.482,-1.114 0.256,-0.55 0.536,-1.088 0.282,-0.538 0.588,-1.062 0.308,-0.522 0.64,-1.03 0.334,-0.508 0.69,-0.998 0.358,-0.492 0.738,-0.964 0.382,-0.472 0.784,-0.926 0.404,-0.454 0.83,-0.886 0.424,-0.434 0.87,-0.846 0.446,-0.41 0.912,-0.8 0.466,-0.39 0.95,-0.756 0.484,-0.366 0.986,-0.708 0.5,-0.342 1.018,-0.658 0.518,-0.316 1.05,-0.608 0.534,-0.29 1.08,-0.556 0.546,-0.264 1.104,-0.502 0.558,-0.236 1.128,-0.446 0.57,-0.21 1.148,-0.392 0.58,-0.182 1.168,-0.334 0.586,-0.154 1.18,-0.278 0.594,-0.124 1.194,-0.218 0.6,-0.094 1.204,-0.16 0.604,-0.066 1.21,-0.1 0.606,-0.036 1.214,-0.042 0.608,-0.006 1.214,0.018 0.608,0.026 1.212,0.078 0.606,0.054 1.208,0.138 0.602,0.084 1.198,0.198 0.598,0.112 1.188,0.254 0.59,0.142 1.174,0.314 0.582,0.17 1.156,0.37 0.574,0.2 1.138,0.426 0.562,0.228 1.114,0.482 0.552,0.256 1.09,0.538 0.538,0.28 1.062,0.588 0.524,0.308 1.032,0.64 0.508,0.334 1,0.692 0.49,0.356 0.964,0.738 0.472,0.382 0.926,0.784 0.454,0.404 0.888,0.83 0.432,0.426 0.844,0.872 0.412,0.448 0.802,0.914 0.39,0.466 0.756,0.95 0.366,0.486 0.708,0.988 0.342,0.502 0.658,1.02 0.318,0.518 0.608,1.052 0.292,0.532 0.556,1.08 0.264,0.546 0.502,1.106 0.238,0.558 0.446,1.128 0.21,0.57 0.392,1.15 0.182,0.58 0.334,1.168 0.152,0.588 0.276,1.184 0.124,0.594 0.218,1.194 0.094,0.6 0.16,1.204 0.064,0.604 0.098,1.21 0.036,0.608 0.04,1.214 0.006,0.608 -0.018,1.214 -0.026,0.608 -0.08,1.212 -0.054,0.606 -0.138,1.208 -0.084,0.602 -0.198,1.198 -0.112,0.596 -0.256,1.188 -0.142,0.59 -0.314,1.172 -0.172,0.584 -0.37,1.156 -0.2,0.574 -0.428,1.138 -0.228,0.562 -0.484,1.114 -0.254,0.552 -0.536,1.09 -0.282,0.538 -0.59,1.06 -0.308,0.524 -0.642,1.032 -0.332,0.508 -0.69,1 -0.358,0.49 -0.74,0.962 -0.382,0.474 -0.786,0.926 -0.404,0.454 -0.83,0.888 -0.426,0.432 -0.872,0.844 -0.448,0.412 -0.914,0.8 -0.466,0.39 -0.952,0.756 -0.484,0.366 -0.986,0.708 -0.504,0.34 -1.022,0.658 -0.518,0.316 -1.052,0.606 -0.532,0.29 -1.08,0.556 -0.546,0.264 -1.106,0.5 -0.56,0.238 -1.13,0.446 -0.57,0.21 -1.15,0.39 -0.58,0.182 -1.168,0.334 -0.588,0.152 -1.182,0.274 -0.596,0.124 -1.196,0.218 z"
     id="path12"
     style="stroke-width:2" />
  <path
     fill="#ffffff"
     d="m 459.54401,553.25045 c -11.42,0.826 -23.54,0.02 -35.024,0.014 l -163.74,-0.012 c -13.946,0.004 -28.28,0.77 -42.186,0.112 -13.264,-0.626 -14.332,-19.662 0.498,-22.498 11.174,-0.702 22.87,-0.01 34.1,-0.01 l 157.54,-0.004 c 17.934,0.002 53.148,-7.336 58.508,11.452 -1.628,5.674 -3.604,9.148 -9.696,10.946 z"
     id="path14"
     style="stroke-width:2" />
</svg>
