<?xml version="1.0" encoding="UTF-8" standalone="no"?>
<svg
   width="701.85565"
   height="705.8833"
   version="1.1"
   id="svg10"
   sodipodi:docname="tools.svg"
   xmlns:inkscape="http://www.inkscape.org/namespaces/inkscape"
   xmlns:sodipodi="http://sodipodi.sourceforge.net/DTD/sodipodi-0.dtd"
   xmlns="http://www.w3.org/2000/svg"
   xmlns:svg="http://www.w3.org/2000/svg">
  <defs
     id="defs14" />
  <sodipodi:namedview
     id="namedview12"
     pagecolor="#ffffff"
     bordercolor="#000000"
     borderopacity="0.25"
     inkscape:showpageshadow="2"
     inkscape:pageopacity="0.0"
     inkscape:pagecheckerboard="0"
     inkscape:deskcolor="#d1d1d1" />
  <path
     fill="#ffffff"
     d="m 512.82864,125.1569 c -17.048,-26.278001 -2.966,-42.398001 14.924,-60.434001 l 23.166,-23.2444 c 14.366,-14.454 30.238,-37.6773995 51.616,-41.22619953 8.25,-0.9148 16.534,0.656 23.786,4.74660003 6.636,3.7422 61.536,58.8359995 68.506,67.8259995 25.852,33.340001 -26.41,68.062001 -47.022,88.646001 -21.078,21.052 -38.738,47.472 -73.504,26.792 -8.026,6.946 -15.39,14.668 -22.974,22.09 l -98.714,98.36 c -9.004,8.958 -18.204,17.698 -27.038,26.826 6.582,7.664 14.398,15.132 22.414,21.288 13.702,-15.916 47.984,29.664 58.556,40.192 l 145.124,145.214 c 10.63,10.652 22.604,20.886 31.228,33.26 52.214,74.906 -51.19,173.036 -124.688,104.492 -12.87,-12 -24.994,-24.882 -37.44,-37.32 l -132.816,-132.75 c -6.258,-6.202 -43.906,-39.36 -43.832,-46.14 0.086,-7.976 12.664,-17.168 18.286,-22.418 -7.52,-7.084 -14.634,-14.646 -22.138,-21.774 l -24.696,24.858 c 17.94,17.196 32.49,36.082 11.2,58.438 -11.788,12.378 -24.31,24.036 -36.43,36.08 l -129.236,128.554 c -16.31,16.032 -32.594,33.972 -57.274,34.616 -22.894005,10.798 -57.302005,-3.604 -74.436405,-19.042 -38.8731998,-35.022 -38.2817998,-95.49 -3.6118,-133.262 13.7662,-14.996 28.8802,-28.802 43.3022,-43.156 L 176.07664,398.6769 c 26.014,-26.774 43.206,-47.956 77.224,-16.27 6.238,-4.676 11.838,-11.044 17.424,-16.508 l 35.542,-35.26 -113.746,-115.774 c -23.626,-24.472 -50.016,-53.486 -75.066,-76.27 -10.942,-9.954 -34.142005,-10.028 -44.756005,-19.954 -8.406,-7.864 -16.194,-16.706 -24.372,-24.860001 -6.22,-6.2 -33.2494,-26.82 -26.7078,-37.216 3.1242,-4.964 27.8238,-31.9742 35.0978,-31.4812 5.936,0.4022 10.518,6.2902 14.37,10.2646 l 31.098005,31.6866 c 4.23,4.326 9.508,8.442 12.88,13.466 7.132,10.628 10.76,31.144001 18.542,39.560001 6.448,6.972 13.458,13.526 20.166,20.25 l 112.87,114.75 c 18.99,19.288 38.686,38.058 56.866,58.108 5.97,-5.602 11.572,-11.656 17.364,-17.45 z m 92.738,-100.997801 c -7.764,2.92 -59.196,55.6338 -70.354,67.4678 -17.348,18.400001 10.124,20.830001 4.972,37.334001 -3.05,9.77 -21.792,24.688 -29.124,31.904 l -161.376,159.942 c -23.762,23.288 -54.21,58.506 -78.954,78.64 l 27.188,28.356 c 7.574,-7.456 16.714,-18.046 25.59,-23.58 4.484,-6.364 10.244,-11.576 15.754,-17.03 l 211.632,-211.366 c 7.114,-7.166 13.356,-16.464 23.406,-19.414 l 0.64,0.208 c 8.302,2.8 18.864,18.906 26.736,15.044 8.06,-3.954 61.854,-59.074 71.302,-69.476 12.828,-14.126001 -6.3,-24.164001 -16.75,-34.638001 -10.15,-10.174 -37.422,-44.578 -50.662,-43.3918 z m -548.664005,31.8558 -5.95,5.948 c 8.83,9.162 34.64,37.418 45.18,41.876001 l 2.16,0.614 0.822,-0.484 c 1.512005,-9.846001 -35.14,-41.278001 -42.212,-47.954001 z M 408.91664,352.5169 c -16.972,17.506 -34.498,34.962 -52.226,51.706 7.338,7.096 14.874,13.994 22.356,20.942 13.012,-10.666 41.232,-39.69 50.842,-51.602 -6.702,-7.042 -13.634,-14.708 -20.972,-21.046 z m 47.734,29.89 c -8.422,5.724 -15.416,14.98 -22.644,22.226 -19.598,19.652 -38.952,39.554 -58.778,58.976 12.132,13.228 25.348,25.55 38.134,38.148 l 131.058,130.678 c 10.152,10.132 20.748,21.908 31.574,31.104 5.372,4.562 11.782,7.562 17.256,11.93 19.374,3.216 36.56,4.216 53.32,-7.728 26.838,-19.126 33.342,-55.552 13.818,-82.474 -7.128,-9.826 -17.47,-18.518 -26.08,-27.094 l -151.08,-150.738 c -6.314,-6.204 -19.07,-21.658 -26.578,-25.028 z m -238.666,8.754 c -12.512,8.768 -35.492,35.716 -47.316,47.526 L 54.030635,555.5389 c -4.986,5.062 -10.242,10.032 -14.64,15.628 -41.5383998,52.882 7.938,132.542 73.196005,104.302 13.768,-6.854 22.96,-17.2 33.676,-27.854 l 141.43,-140.092 c 29.382,-28.97 33.928,-23.116 6.086,-50.876 l -50.648,-50.562 c -7.878,-8.048 -13.058,-15.68 -25.146,-14.924 z"
     id="path2"
     style="stroke-width:2" />
  <path
     fill="#ffffff"
     d="m 472.02264,486.3529 c -11.074,1.302 -45.808,-29.212 -24.034,-39.15 13.176,-1.186 45.106,27.922 24.034,39.15 z"
     id="path4"
     style="stroke-width:2" />
  <path
     fill="#ffffff"
     d="m 589.09064,606.0749 c -10.984,-1.138 -29.72,-25.13 -37.72,-33.066 l -30.938,-30.99 c -8.38,-8.35 -42.918,-35.28 -15.622,-42.8 9.124,-0.456 16.13,10.572 21.902,16.368 l 30.172,30.152 c 9.216,9.332 65.684,51.286 32.206,60.336 z"
     id="path6"
     style="stroke-width:2" />
  <path
     fill="#ffffff"
     d="m 92.734635,647.9629 c -12.952,2.628 -35.598,-23.634 -39.976,-31.908 -3.288,-6.212 1.004,-13.048 6.64,-15.902 13.386,-0.634 36.608,25.046 40.558,33.148 3.100005,6.36 -1.414,12.286 -7.222,14.662 z"
     id="path8"
     style="stroke-width:2" />
</svg>
