<svg xmlns="http://www.w3.org/2000/svg" xmlns:xlink="http://www.w3.org/1999/xlink" viewBox="129.19 127.51 763.76 770.41">
	<defs>
		<linearGradient id="gradient_0" gradientUnits="userSpaceOnUse" x1="228.18251" y1="407.66638" x2="87.208603" y2="301.16846">
			<stop offset="0" stop-color="#DDDDDD"/>
			<stop offset="1" stop-color="#EEEEEE"/>
		</linearGradient>
	</defs>
	<path fill="url(#gradient_0)" transform="scale(2 2)" d="M136.081 261.625C145.659 260.349 154.353 273.316 160.715 279.608L234.475 353.282C238.731 357.595 243.57 361.604 247.371 366.319C257.278 378.609 241.189 389.641 233.599 397.078L205.543 424.616C201.11 428.912 196.778 433.329 192.475 437.755C177.647 453.007 178.285 452.444 163.241 437.584C160.168 434.415 150.602 427.999 153.678 422.741C156.752 417.488 164.661 414.09 167.125 407.164C170.178 398.585 162.433 392.638 157.155 387.324C145.829 375.922 131.649 360.597 119.879 350.368C104.524 337.023 93.2092 360.629 88.5353 358.731C85.4976 357.498 66.1862 338.738 64.9516 335.388C62.2507 328.062 75.6935 318.983 80.0601 314.551C91.8758 302.559 103.63 290.495 115.609 278.663C121.347 272.996 128.043 263.723 136.081 261.625ZM158.415 425.135C162.407 429.505 167.987 435.45 172.728 438.875C174.32 440.996 176.101 442.831 178.058 444.614C184.123 438.3 190.454 432.248 196.697 426.112L226.69 396.491C230.965 392.231 245.359 379.99 245.268 375.131C245.157 369.249 236.299 361.954 231.917 358.475C226.564 363.742 220.35 366.299 212.786 366.197C203.221 366.069 198.381 359.794 192.006 353.497L177.881 339.305C164.51 325.816 136.15 305.565 157.703 285.327L158.415 284.666C154.061 280.784 143.008 266.326 137.736 266.258C132.108 267.815 128.302 273.296 124.333 277.271L78.4689 323.152C76.5976 325.032 69.9231 330.428 69.8816 332.983C71.408 336.314 86.2727 350.531 89.6237 352.999C97.5955 342.593 110.648 336.528 122.299 345.385C125.499 347.818 128.164 351.009 131.011 353.834L161.579 384.262C179.103 401.407 176.148 408.498 158.415 425.135ZM221.337 359.753C223.986 358.512 226.205 356.957 228.412 355.032C221.876 348.049 215.048 341.458 208.283 334.712L188.319 314.655C184.097 310.484 165.741 290.382 161.751 288.995C154.456 295.858 153.063 306.836 160.203 314.349C171.225 325.947 183.516 337.925 194.992 349.162C203.296 357.293 207.623 365.337 221.337 359.753Z"/>
	<path fill="#DDD" transform="scale(2 2)" d="M143.651 333.691C146.587 333.453 150.252 338.54 152.164 340.426C161.583 349.719 172.992 360.28 181.802 369.983C183.781 372.164 185.311 373.411 183.046 375.974C179.038 376.164 176.924 372.852 174.321 370.253L165.714 361.635C162.07 357.974 141.373 338.356 141.732 336.012C141.895 334.948 142.864 334.295 143.651 333.691Z"/>
	<path fill="#CCCCCC" transform="scale(2 2)" d="M418.417 74.5977C421.238 73.0639 447.561 57.3977 443.458 66.6768C439.544 75.5284 434.725 84.0558 430.429 92.7301C424.723 104.251 425.792 105.615 411.773 111.391C410.161 112.857 410.181 124.528 409.824 127.23C409.292 131.259 405.752 133.711 403.074 136.411L342.451 196.443C339.358 199.445 336.65 203.127 333.225 205.742C328.987 205.824 305.486 203.784 302.034 202.569C300.287 197.879 297.094 177.46 296.519 171.701C304.67 163.062 313.361 154.901 321.692 146.432L350.235 117.525C354.404 113.285 370.105 96.4212 373.824 94.5515C380.661 93.8841 387.971 94.5811 394.869 94.5515C396.604 90.9196 398.491 85.8589 401.652 83.2123C403.249 81.8746 415.743 75.3982 418.417 74.5977ZM302.034 173.878C302.476 182.157 304.812 190.434 305.905 198.669C314.262 199.036 322.776 199.932 331.066 201.047L382.52 149.766C389.928 142.399 397.017 134.439 404.84 127.522C404.794 122.146 405.439 116.742 405.927 111.391C402.867 106.851 397.898 103.957 394.869 99.3573C388.875 99.4165 382.311 98.4915 376.413 99.3573C372.745 100.544 363.317 111.689 360.052 114.927L323.428 151.669C317.933 157.256 306.166 167.692 302.034 173.878ZM399.137 97.6309C401.304 98.9911 403.06 100.912 404.84 102.73L409.324 107.447C429.123 95.5425 422.987 94.7819 434.634 73.0927L434.622 72.6531L434.439 72.5171C429.996 74.1636 406.954 85.0593 404.66 87.5552C402.243 90.1847 400.946 94.5103 399.137 97.6309Z"/>
	<path fill="#EEEEEE" transform="scale(2 2)" d="M418.417 74.5977C421.238 73.0639 447.561 57.3977 443.458 66.6768C439.544 75.5284 434.725 84.0558 430.429 92.7301C424.723 104.251 425.792 105.615 411.773 111.391L411.493 111.072C416.258 107.946 421.758 106.443 425.358 101.911C425.659 101.531 434.663 83.3391 434.902 82.5995C435.92 79.4416 442.873 69.0875 441.959 66.6992C432.18 62.1359 426.355 75.1709 418.417 74.5977Z"/>
	<path fill="#CCCCCC" transform="scale(2 2)" d="M381.749 119.024C383.348 118.963 384.991 119.999 384.762 121.801C384.578 123.244 355.986 151.658 353.07 153.862C349.232 154.607 349.589 150.99 351.439 148.816C355.439 144.113 377.806 121.354 381.749 119.024Z"/>
	<path fill="#CCCCCC" transform="scale(2 2)" d="M342.608 158.155C350.608 159.922 335.509 171.734 333.129 174.137C329.661 177.639 326.104 182.752 321.687 185.07C320.04 184.833 318.488 183.804 318.982 181.931C319.432 180.223 340.287 159.546 342.608 158.155Z"/>
	<path fill="#CCCCCC" transform="scale(2 2)" d="M263.381 313.685C267.418 314.521 289.5 338.642 293.679 342.762L358.763 407.465C363.418 412.126 368.185 416.693 372.746 421.444C379.946 428.944 391.703 445.601 403.791 438.375C407.795 435.982 413.644 428.943 417.134 425.516L431.501 411.395C445.688 397.224 444.584 394.868 431.988 382.291L382.151 332.599C380.879 331.32 365.067 318.749 372.867 317.638C374.542 317.399 377.133 320.688 378.232 321.841C392.56 336.414 407.19 350.745 421.694 365.145L434.907 378.33C442.107 385.552 451.398 394.952 443.395 406.096C440.992 409.442 437.532 412.133 434.656 415.08C427.535 422.378 416.198 435.041 408.311 441.101C391.232 454.223 374.905 430.485 364.285 419.967L311.698 367.328C298.728 354.439 285.566 341.741 272.748 328.7C268.449 324.326 257.133 317.817 263.381 313.685Z"/>
	<path fill="#FFFFFF" transform="scale(2 2)" d="M72.7498 128.994C76.6806 128.545 89.4498 143.479 92.5656 146.646L208.684 262.341C213.997 267.537 219.369 272.672 224.541 278.008C226.9 280.443 233.319 284.672 229.032 287.894C225.59 288.12 218.572 279.312 216.237 276.975L80.3184 141.183C77.4384 138.267 68.5963 132.576 72.7498 128.994Z"/>
	<path fill="#FFFFFF" transform="scale(2 2)" d="M144.584 142.191C147.696 142.432 150.715 146.86 152.759 148.92L252.628 248.722C255.751 251.838 262.678 256.004 257.681 259.377C253.613 258.102 236.646 239.766 232.674 235.804L158.365 161.298L148.024 151.187C145.305 148.508 139.904 145.5 144.584 142.191Z"/>
	<path fill="#FFFFFF" transform="scale(2 2)" d="M313.346 228.458C324.858 228.105 296.013 252.072 291.608 256.512L234.479 313.685C230.808 314.426 230.526 310.692 233.074 308.01C242.727 297.856 252.865 288.117 262.805 278.245L294.095 247.012C298.191 242.978 309.312 230.65 313.346 228.458Z"/>
	<path fill="#CCCCCC" transform="scale(2 2)" d="M289.448 288.995C292.73 289.327 295.043 293.147 297.251 295.324L358.667 356.585C362.003 359.945 376.875 370.349 369.357 373.356C365.035 371.343 354.382 359.048 350.512 355.205L304.031 308.892C299.875 304.752 282.837 292.709 289.448 288.995Z"/>
	<path fill="#FFFFFF" transform="scale(2 2)" d="M130.823 72.5171C134.137 72.3994 138.681 78.5913 140.862 80.7311L177.433 116.903C180.742 120.133 187.729 123.888 183.046 127.522C179.461 127.673 171.641 118.067 169.173 115.59L151.715 98.1473C144.717 91.1052 137.152 84.4241 130.508 77.0466C128.596 74.9236 128.512 74.1688 130.823 72.5171Z"/>
	<path fill="#DDD" transform="scale(2 2)" d="M89.6237 66.3445C94.7638 65.8763 107.486 68.9444 108.924 74.5101C108.527 78.2865 105.271 76.6874 103.449 75.3984C89.0611 65.2221 72.1208 75.3848 73.9782 92.6047C75.4314 98.8298 79.7981 101.935 80.3468 104.263C80.7491 105.97 78.7177 107.943 77.1405 106.855C62.7576 96.9385 67.6066 69.8934 89.6237 66.3445Z"/>
	<path fill="#FFFFFF" transform="scale(2 2)" d="M249.114 189.654C252.524 189.947 256.647 195.505 258.892 197.745L282.013 220.54C284.835 223.29 292.431 228.085 286.908 231.217C284.322 231.237 265.407 211.083 262.857 208.532C258.486 204.159 243.101 193.821 249.114 189.654Z"/>
	<path fill="#CCCCCC" transform="scale(2 2)" d="M315.074 260.479C317.887 260.502 320.177 263.965 321.999 265.768L331.671 275.474C338.441 282.326 345.526 288.889 352.033 296.001C353.958 298.104 355.588 299.593 353.07 301.834C349.183 301.584 343.585 294.274 340.932 291.636L323.752 274.394C320.463 271.031 308.978 263.616 315.074 260.479Z"/>
	<path fill="#FFFFFF" transform="scale(2 2)" d="M191.979 133.012C195.078 133.427 207.729 147.13 210.844 150.227L221.783 161.045C224.667 163.88 233.047 169.658 228.412 173.878C224.428 172.29 219.73 165.975 216.626 162.905L202.758 149.133C199.794 146.219 185.203 135.837 191.979 133.012Z"/>
	<path fill="#CCCCCC" transform="scale(2 2)" d="M409.324 389.246C420.692 387.813 397.016 408.346 395.808 409.166C382.731 411.098 406.867 390.623 409.324 389.246Z"/>
	<path fill="#DDD" transform="scale(2 2)" d="M119.299 116.488C122.93 117.664 128.972 122.886 123.655 125.823C120.685 124.854 114.181 118.828 119.299 116.488Z"/>
	<path fill="#FFFFFF" transform="scale(2 2)" d="M132.061 130.51C136.137 130.432 138.812 134.03 136.081 137.335C132.612 137.188 128.421 133.354 132.061 130.51Z"/>
	<path fill="#CCCCCC" transform="scale(2 2)" d="M361.33 306.178C365.314 306.388 367.352 310.17 364.166 312.831C360.673 312.873 357.802 308.636 361.33 306.178Z"/>
	<path fill="#CCCCCC" transform="scale(2 2)" d="M236.724 178.133C240.256 178.504 243.505 182.352 240.161 185.07C236.925 184.827 234.027 180.865 236.724 178.133Z"/>
</svg>